<?xml version="1.0" encoding="UTF-8"?>
<svg xmlns="http://www.w3.org/2000/svg" xmlns:xlink="http://www.w3.org/1999/xlink" width="396pt" height="252pt" viewBox="0 0 396 252">
<defs>
<g>
<g id="glyph-0-0">
<path d="M 0.28125 0 L 0.28125 -6.3125 L 5.296875 -6.3125 L 5.296875 0 Z M 4.5 -0.796875 L 4.5 -5.515625 L 1.078125 -5.515625 L 1.078125 -0.796875 Z M 4.5 -0.796875 "/>
</g>
<g id="glyph-0-1">
<path d="M 2.375 -6.15625 C 3.175781 -6.15625 3.753906 -5.828125 4.109375 -5.171875 C 4.378906 -4.660156 4.515625 -3.960938 4.515625 -3.078125 C 4.515625 -2.242188 4.390625 -1.554688 4.140625 -1.015625 C 3.785156 -0.222656 3.195312 0.171875 2.375 0.171875 C 1.632812 0.171875 1.082031 -0.148438 0.71875 -0.796875 C 0.425781 -1.328125 0.28125 -2.046875 0.28125 -2.953125 C 0.28125 -3.648438 0.367188 -4.25 0.546875 -4.75 C 0.878906 -5.6875 1.488281 -6.15625 2.375 -6.15625 Z M 2.375 -0.53125 C 2.769531 -0.53125 3.085938 -0.707031 3.328125 -1.0625 C 3.566406 -1.425781 3.6875 -2.085938 3.6875 -3.046875 C 3.6875 -3.753906 3.597656 -4.332031 3.421875 -4.78125 C 3.253906 -5.226562 2.921875 -5.453125 2.421875 -5.453125 C 1.972656 -5.453125 1.640625 -5.238281 1.421875 -4.8125 C 1.210938 -4.382812 1.109375 -3.753906 1.109375 -2.921875 C 1.109375 -2.296875 1.175781 -1.789062 1.3125 -1.40625 C 1.519531 -0.820312 1.875 -0.53125 2.375 -0.53125 Z M 2.375 -0.53125 "/>
</g>
<g id="glyph-0-2">
<path d="M 0.75 -0.9375 L 1.65625 -0.9375 L 1.65625 0 L 0.75 0 Z M 0.75 -0.9375 "/>
</g>
<g id="glyph-0-3">
<path d="M 0.28125 0 C 0.300781 -0.53125 0.40625 -0.988281 0.59375 -1.375 C 0.789062 -1.769531 1.164062 -2.128906 1.71875 -2.453125 L 2.546875 -2.921875 C 2.910156 -3.140625 3.164062 -3.328125 3.3125 -3.484375 C 3.550781 -3.710938 3.671875 -3.984375 3.671875 -4.296875 C 3.671875 -4.648438 3.5625 -4.929688 3.34375 -5.140625 C 3.132812 -5.359375 2.847656 -5.46875 2.484375 -5.46875 C 1.960938 -5.46875 1.597656 -5.265625 1.390625 -4.859375 C 1.285156 -4.648438 1.226562 -4.351562 1.21875 -3.96875 L 0.421875 -3.96875 C 0.429688 -4.5 0.53125 -4.9375 0.71875 -5.28125 C 1.050781 -5.875 1.644531 -6.171875 2.5 -6.171875 C 3.195312 -6.171875 3.707031 -5.976562 4.03125 -5.59375 C 4.363281 -5.21875 4.53125 -4.796875 4.53125 -4.328125 C 4.53125 -3.835938 4.351562 -3.414062 4 -3.0625 C 3.800781 -2.863281 3.441406 -2.617188 2.921875 -2.328125 L 2.34375 -2 C 2.0625 -1.84375 1.835938 -1.695312 1.671875 -1.5625 C 1.390625 -1.3125 1.210938 -1.035156 1.140625 -0.734375 L 4.5 -0.734375 L 4.5 0 Z M 0.28125 0 "/>
</g>
<g id="glyph-0-4">
<path d="M 1.09375 -1.5625 C 1.132812 -1.125 1.335938 -0.820312 1.703125 -0.65625 C 1.878906 -0.570312 2.09375 -0.53125 2.34375 -0.53125 C 2.800781 -0.53125 3.140625 -0.675781 3.359375 -0.96875 C 3.578125 -1.257812 3.6875 -1.582031 3.6875 -1.9375 C 3.6875 -2.363281 3.554688 -2.691406 3.296875 -2.921875 C 3.035156 -3.160156 2.71875 -3.28125 2.34375 -3.28125 C 2.082031 -3.28125 1.851562 -3.226562 1.65625 -3.125 C 1.46875 -3.019531 1.304688 -2.878906 1.171875 -2.703125 L 0.5 -2.734375 L 0.96875 -6.046875 L 4.171875 -6.046875 L 4.171875 -5.296875 L 1.5625 -5.296875 L 1.296875 -3.59375 C 1.429688 -3.695312 1.566406 -3.773438 1.703125 -3.828125 C 1.929688 -3.929688 2.195312 -3.984375 2.5 -3.984375 C 3.0625 -3.984375 3.535156 -3.800781 3.921875 -3.4375 C 4.316406 -3.070312 4.515625 -2.609375 4.515625 -2.046875 C 4.515625 -1.460938 4.332031 -0.945312 3.96875 -0.5 C 3.613281 -0.0625 3.046875 0.15625 2.265625 0.15625 C 1.753906 0.15625 1.304688 0.0117188 0.921875 -0.265625 C 0.546875 -0.546875 0.332031 -0.976562 0.28125 -1.5625 Z M 1.09375 -1.5625 "/>
</g>
<g id="glyph-0-5">
<path d="M 4.59375 -6.046875 L 4.59375 -5.375 C 4.394531 -5.175781 4.128906 -4.835938 3.796875 -4.359375 C 3.472656 -3.890625 3.1875 -3.378906 2.9375 -2.828125 C 2.6875 -2.296875 2.5 -1.8125 2.375 -1.375 C 2.289062 -1.082031 2.179688 -0.625 2.046875 0 L 1.203125 0 C 1.390625 -1.175781 1.816406 -2.34375 2.484375 -3.5 C 2.878906 -4.1875 3.289062 -4.773438 3.71875 -5.265625 L 0.328125 -5.265625 L 0.328125 -6.046875 Z M 4.59375 -6.046875 "/>
</g>
<g id="glyph-0-6">
<path d="M 0.84375 -4.359375 L 0.84375 -4.953125 C 1.394531 -5.003906 1.78125 -5.09375 2 -5.21875 C 2.226562 -5.34375 2.394531 -5.644531 2.5 -6.125 L 3.109375 -6.125 L 3.109375 0 L 2.296875 0 L 2.296875 -4.359375 Z M 0.84375 -4.359375 "/>
</g>
<g id="glyph-0-7">
<path d="M 1.171875 -1.484375 C 1.191406 -1.054688 1.351562 -0.757812 1.65625 -0.59375 C 1.820312 -0.507812 2 -0.46875 2.1875 -0.46875 C 2.5625 -0.46875 2.878906 -0.617188 3.140625 -0.921875 C 3.398438 -1.234375 3.582031 -1.863281 3.6875 -2.8125 C 3.519531 -2.539062 3.304688 -2.347656 3.046875 -2.234375 C 2.796875 -2.128906 2.523438 -2.078125 2.234375 -2.078125 C 1.640625 -2.078125 1.171875 -2.257812 0.828125 -2.625 C 0.484375 -2.988281 0.3125 -3.460938 0.3125 -4.046875 C 0.3125 -4.609375 0.476562 -5.097656 0.8125 -5.515625 C 1.15625 -5.941406 1.660156 -6.15625 2.328125 -6.15625 C 3.222656 -6.15625 3.84375 -5.753906 4.1875 -4.953125 C 4.375 -4.503906 4.46875 -3.945312 4.46875 -3.28125 C 4.46875 -2.53125 4.351562 -1.863281 4.125 -1.28125 C 3.75 -0.3125 3.113281 0.171875 2.21875 0.171875 C 1.625 0.171875 1.171875 0.0117188 0.859375 -0.296875 C 0.546875 -0.609375 0.390625 -1.003906 0.390625 -1.484375 Z M 2.34375 -2.75 C 2.644531 -2.75 2.921875 -2.847656 3.171875 -3.046875 C 3.429688 -3.253906 3.5625 -3.609375 3.5625 -4.109375 C 3.5625 -4.566406 3.445312 -4.90625 3.21875 -5.125 C 2.988281 -5.34375 2.695312 -5.453125 2.34375 -5.453125 C 1.96875 -5.453125 1.664062 -5.320312 1.4375 -5.0625 C 1.21875 -4.8125 1.109375 -4.476562 1.109375 -4.0625 C 1.109375 -3.65625 1.207031 -3.332031 1.40625 -3.09375 C 1.601562 -2.863281 1.914062 -2.75 2.34375 -2.75 Z M 2.34375 -2.75 "/>
</g>
<g id="glyph-0-8">
<path d="M 2.90625 -2.171875 L 2.90625 -4.96875 L 0.9375 -2.171875 Z M 2.921875 0 L 2.921875 -1.5 L 0.21875 -1.5 L 0.21875 -2.265625 L 3.046875 -6.171875 L 3.6875 -6.171875 L 3.6875 -2.171875 L 4.59375 -2.171875 L 4.59375 -1.5 L 3.6875 -1.5 L 3.6875 0 Z M 2.921875 0 "/>
</g>
<g id="glyph-0-9">
<path d="M 2.390625 -3.578125 C 2.734375 -3.578125 3 -3.671875 3.1875 -3.859375 C 3.382812 -4.046875 3.484375 -4.273438 3.484375 -4.546875 C 3.484375 -4.773438 3.390625 -4.984375 3.203125 -5.171875 C 3.015625 -5.359375 2.734375 -5.453125 2.359375 -5.453125 C 1.992188 -5.453125 1.726562 -5.359375 1.5625 -5.171875 C 1.394531 -4.984375 1.3125 -4.757812 1.3125 -4.5 C 1.3125 -4.207031 1.414062 -3.976562 1.625 -3.8125 C 1.84375 -3.65625 2.097656 -3.578125 2.390625 -3.578125 Z M 2.4375 -0.53125 C 2.800781 -0.53125 3.097656 -0.625 3.328125 -0.8125 C 3.566406 -1.007812 3.6875 -1.300781 3.6875 -1.6875 C 3.6875 -2.082031 3.5625 -2.382812 3.3125 -2.59375 C 3.070312 -2.800781 2.765625 -2.90625 2.390625 -2.90625 C 2.015625 -2.90625 1.707031 -2.796875 1.46875 -2.578125 C 1.238281 -2.367188 1.125 -2.078125 1.125 -1.703125 C 1.125 -1.390625 1.226562 -1.113281 1.4375 -0.875 C 1.65625 -0.644531 1.988281 -0.53125 2.4375 -0.53125 Z M 1.34375 -3.28125 C 1.125 -3.375 0.957031 -3.476562 0.84375 -3.59375 C 0.613281 -3.820312 0.5 -4.125 0.5 -4.5 C 0.5 -4.957031 0.664062 -5.347656 1 -5.671875 C 1.332031 -6.003906 1.800781 -6.171875 2.40625 -6.171875 C 3 -6.171875 3.460938 -6.015625 3.796875 -5.703125 C 4.128906 -5.390625 4.296875 -5.023438 4.296875 -4.609375 C 4.296875 -4.222656 4.195312 -3.914062 4 -3.6875 C 3.894531 -3.550781 3.726562 -3.414062 3.5 -3.28125 C 3.757812 -3.164062 3.960938 -3.03125 4.109375 -2.875 C 4.378906 -2.59375 4.515625 -2.222656 4.515625 -1.765625 C 4.515625 -1.222656 4.332031 -0.765625 3.96875 -0.390625 C 3.601562 -0.015625 3.085938 0.171875 2.421875 0.171875 C 1.828125 0.171875 1.320312 0.0078125 0.90625 -0.3125 C 0.488281 -0.632812 0.28125 -1.109375 0.28125 -1.734375 C 0.28125 -2.085938 0.367188 -2.394531 0.546875 -2.65625 C 0.722656 -2.925781 0.988281 -3.132812 1.34375 -3.28125 Z M 1.34375 -3.28125 "/>
</g>
<g id="glyph-0-10">
<path d="M 0.75 -6.3125 L 5.125 -6.3125 L 5.125 -5.53125 L 1.609375 -5.53125 L 1.609375 -3.625 L 4.703125 -3.625 L 4.703125 -2.875 L 1.609375 -2.875 L 1.609375 0 L 0.75 0 Z M 0.75 -6.3125 "/>
</g>
<g id="glyph-0-11">
<path d="M 3.90625 -2.578125 L 2.953125 -5.375 L 1.9375 -2.578125 Z M 2.5 -6.3125 L 3.46875 -6.3125 L 5.765625 0 L 4.828125 0 L 4.1875 -1.890625 L 1.6875 -1.890625 L 1 0 L 0.125 0 Z M 2.5 -6.3125 "/>
</g>
<g id="glyph-0-12">
<path d="M 0.671875 -6.3125 L 1.53125 -6.3125 L 1.53125 -0.75 L 4.71875 -0.75 L 4.71875 0 L 0.671875 0 Z M 0.671875 -6.3125 "/>
</g>
<g id="glyph-0-13">
<path d="M 1.234375 -2.03125 C 1.253906 -1.675781 1.335938 -1.382812 1.484375 -1.15625 C 1.765625 -0.738281 2.265625 -0.53125 2.984375 -0.53125 C 3.304688 -0.53125 3.597656 -0.578125 3.859375 -0.671875 C 4.367188 -0.847656 4.625 -1.164062 4.625 -1.625 C 4.625 -1.96875 4.515625 -2.210938 4.296875 -2.359375 C 4.078125 -2.503906 3.738281 -2.628906 3.28125 -2.734375 L 2.421875 -2.921875 C 1.859375 -3.054688 1.460938 -3.195312 1.234375 -3.34375 C 0.835938 -3.601562 0.640625 -4 0.640625 -4.53125 C 0.640625 -5.09375 0.832031 -5.554688 1.21875 -5.921875 C 1.613281 -6.285156 2.171875 -6.46875 2.890625 -6.46875 C 3.554688 -6.46875 4.117188 -6.304688 4.578125 -5.984375 C 5.035156 -5.671875 5.265625 -5.160156 5.265625 -4.453125 L 4.46875 -4.453125 C 4.425781 -4.796875 4.332031 -5.054688 4.1875 -5.234375 C 3.925781 -5.566406 3.484375 -5.734375 2.859375 -5.734375 C 2.359375 -5.734375 2 -5.625 1.78125 -5.40625 C 1.5625 -5.195312 1.453125 -4.953125 1.453125 -4.671875 C 1.453125 -4.359375 1.578125 -4.132812 1.828125 -4 C 2.003906 -3.90625 2.390625 -3.789062 2.984375 -3.65625 L 3.859375 -3.453125 C 4.285156 -3.347656 4.617188 -3.210938 4.859375 -3.046875 C 5.253906 -2.753906 5.453125 -2.328125 5.453125 -1.765625 C 5.453125 -1.066406 5.195312 -0.566406 4.6875 -0.265625 C 4.1875 0.0351562 3.597656 0.1875 2.921875 0.1875 C 2.140625 0.1875 1.523438 -0.015625 1.078125 -0.421875 C 0.628906 -0.816406 0.410156 -1.351562 0.421875 -2.03125 Z M 2.953125 -6.484375 Z M 2.953125 -6.484375 "/>
</g>
<g id="glyph-0-14">
<path d="M 0.75 -6.3125 L 5.359375 -6.3125 L 5.359375 -5.53125 L 1.578125 -5.53125 L 1.578125 -3.625 L 5.0625 -3.625 L 5.0625 -2.890625 L 1.578125 -2.890625 L 1.578125 -0.75 L 5.421875 -0.75 L 5.421875 0 L 0.75 0 Z M 3.078125 -6.3125 Z M 3.078125 -6.3125 "/>
</g>
<g id="glyph-0-15">
<path d="M 5.265625 -6.3125 L 5.265625 -5.5625 L 3.140625 -5.5625 L 3.140625 0 L 2.265625 0 L 2.265625 -5.5625 L 0.140625 -5.5625 L 0.140625 -6.3125 Z M 5.265625 -6.3125 "/>
</g>
<g id="glyph-0-16">
<path d="M 3.609375 -3.421875 C 4.003906 -3.421875 4.316406 -3.5 4.546875 -3.65625 C 4.785156 -3.820312 4.90625 -4.113281 4.90625 -4.53125 C 4.90625 -4.976562 4.742188 -5.285156 4.421875 -5.453125 C 4.242188 -5.535156 4.007812 -5.578125 3.71875 -5.578125 L 1.625 -5.578125 L 1.625 -3.421875 Z M 0.765625 -6.3125 L 3.6875 -6.3125 C 4.175781 -6.3125 4.578125 -6.238281 4.890625 -6.09375 C 5.472656 -5.832031 5.765625 -5.335938 5.765625 -4.609375 C 5.765625 -4.234375 5.6875 -3.921875 5.53125 -3.671875 C 5.382812 -3.429688 5.171875 -3.238281 4.890625 -3.09375 C 5.128906 -3 5.3125 -2.867188 5.4375 -2.703125 C 5.5625 -2.546875 5.628906 -2.28125 5.640625 -1.90625 L 5.671875 -1.0625 C 5.679688 -0.820312 5.703125 -0.644531 5.734375 -0.53125 C 5.785156 -0.332031 5.878906 -0.203125 6.015625 -0.140625 L 6.015625 0 L 4.96875 0 C 4.9375 -0.0507812 4.910156 -0.117188 4.890625 -0.203125 C 4.878906 -0.296875 4.867188 -0.460938 4.859375 -0.703125 L 4.796875 -1.765625 C 4.773438 -2.171875 4.625 -2.445312 4.34375 -2.59375 C 4.175781 -2.664062 3.921875 -2.703125 3.578125 -2.703125 L 1.625 -2.703125 L 1.625 0 L 0.765625 0 Z M 0.765625 -6.3125 "/>
</g>
<g id="glyph-0-17">
<path d="M 1.59375 -6.3125 L 1.59375 -2.40625 C 1.59375 -1.945312 1.679688 -1.566406 1.859375 -1.265625 C 2.109375 -0.804688 2.535156 -0.578125 3.140625 -0.578125 C 3.867188 -0.578125 4.363281 -0.828125 4.625 -1.328125 C 4.757812 -1.597656 4.828125 -1.957031 4.828125 -2.40625 L 4.828125 -6.3125 L 5.703125 -6.3125 L 5.703125 -2.765625 C 5.703125 -1.992188 5.597656 -1.394531 5.390625 -0.96875 C 5.003906 -0.207031 4.28125 0.171875 3.21875 0.171875 C 2.144531 0.171875 1.421875 -0.207031 1.046875 -0.96875 C 0.835938 -1.394531 0.734375 -1.992188 0.734375 -2.765625 L 0.734375 -6.3125 Z M 3.21875 -6.3125 Z M 3.21875 -6.3125 "/>
</g>
<g id="glyph-1-0">
<path d="M 0.359375 0 L 0.359375 -7.890625 L 6.625 -7.890625 L 6.625 0 Z M 5.625 -0.984375 L 5.625 -6.90625 L 1.34375 -6.90625 L 1.34375 -0.984375 Z M 5.625 -0.984375 "/>
</g>
<g id="glyph-1-1">
<path d="M 1.1875 -5.75 L 2.71875 -1.0625 L 4.328125 -5.75 L 5.375 -5.75 L 3.21875 0 L 2.1875 0 L 0.0625 -5.75 Z M 1.1875 -5.75 "/>
</g>
<g id="glyph-1-2">
<path d="M 1.453125 -1.53125 C 1.453125 -1.25 1.550781 -1.023438 1.75 -0.859375 C 1.957031 -0.703125 2.203125 -0.625 2.484375 -0.625 C 2.816406 -0.625 3.144531 -0.703125 3.46875 -0.859375 C 4.007812 -1.117188 4.28125 -1.550781 4.28125 -2.15625 L 4.28125 -2.921875 C 4.15625 -2.847656 4 -2.785156 3.8125 -2.734375 C 3.632812 -2.691406 3.453125 -2.65625 3.265625 -2.625 L 2.6875 -2.5625 C 2.332031 -2.507812 2.066406 -2.4375 1.890625 -2.34375 C 1.597656 -2.164062 1.453125 -1.894531 1.453125 -1.53125 Z M 3.796875 -3.484375 C 4.015625 -3.515625 4.160156 -3.609375 4.234375 -3.765625 C 4.273438 -3.847656 4.296875 -3.972656 4.296875 -4.140625 C 4.296875 -4.460938 4.175781 -4.695312 3.9375 -4.84375 C 3.707031 -5 3.375 -5.078125 2.9375 -5.078125 C 2.4375 -5.078125 2.082031 -4.941406 1.875 -4.671875 C 1.75 -4.515625 1.671875 -4.289062 1.640625 -4 L 0.734375 -4 C 0.753906 -4.707031 0.984375 -5.195312 1.421875 -5.46875 C 1.867188 -5.75 2.382812 -5.890625 2.96875 -5.890625 C 3.644531 -5.890625 4.191406 -5.757812 4.609375 -5.5 C 5.035156 -5.25 5.25 -4.847656 5.25 -4.296875 L 5.25 -0.984375 C 5.25 -0.890625 5.265625 -0.8125 5.296875 -0.75 C 5.335938 -0.6875 5.425781 -0.65625 5.5625 -0.65625 C 5.601562 -0.65625 5.648438 -0.65625 5.703125 -0.65625 C 5.765625 -0.664062 5.820312 -0.675781 5.875 -0.6875 L 5.875 0.03125 C 5.726562 0.0703125 5.613281 0.0976562 5.53125 0.109375 C 5.457031 0.117188 5.351562 0.125 5.21875 0.125 C 4.882812 0.125 4.640625 0.00390625 4.484375 -0.234375 C 4.410156 -0.359375 4.359375 -0.535156 4.328125 -0.765625 C 4.128906 -0.503906 3.84375 -0.28125 3.46875 -0.09375 C 3.101562 0.0898438 2.695312 0.1875 2.25 0.1875 C 1.71875 0.1875 1.28125 0.0234375 0.9375 -0.296875 C 0.601562 -0.617188 0.4375 -1.023438 0.4375 -1.515625 C 0.4375 -2.046875 0.601562 -2.457031 0.9375 -2.75 C 1.269531 -3.039062 1.707031 -3.222656 2.25 -3.296875 Z M 2.984375 -5.890625 Z M 2.984375 -5.890625 "/>
</g>
<g id="glyph-1-3">
<path d="M 0.734375 -7.890625 L 1.703125 -7.890625 L 1.703125 0 L 0.734375 0 Z M 0.734375 -7.890625 "/>
</g>
<g id="glyph-1-4">
<path d="M 2.984375 -0.625 C 3.628906 -0.625 4.070312 -0.863281 4.3125 -1.34375 C 4.550781 -1.832031 4.671875 -2.375 4.671875 -2.96875 C 4.671875 -3.507812 4.582031 -3.945312 4.40625 -4.28125 C 4.132812 -4.8125 3.664062 -5.078125 3 -5.078125 C 2.40625 -5.078125 1.972656 -4.847656 1.703125 -4.390625 C 1.441406 -3.941406 1.3125 -3.398438 1.3125 -2.765625 C 1.3125 -2.148438 1.441406 -1.640625 1.703125 -1.234375 C 1.972656 -0.828125 2.398438 -0.625 2.984375 -0.625 Z M 3.03125 -5.921875 C 3.769531 -5.921875 4.394531 -5.671875 4.90625 -5.171875 C 5.414062 -4.679688 5.671875 -3.957031 5.671875 -3 C 5.671875 -2.070312 5.445312 -1.304688 5 -0.703125 C 4.550781 -0.0976562 3.851562 0.203125 2.90625 0.203125 C 2.113281 0.203125 1.484375 -0.0625 1.015625 -0.59375 C 0.546875 -1.125 0.3125 -1.84375 0.3125 -2.75 C 0.3125 -3.71875 0.554688 -4.488281 1.046875 -5.0625 C 1.535156 -5.632812 2.195312 -5.921875 3.03125 -5.921875 Z M 3 -5.890625 Z M 3 -5.890625 "/>
</g>
<g id="glyph-1-5">
<path d="M 0.734375 -5.75 L 1.65625 -5.75 L 1.65625 -4.765625 C 1.726562 -4.953125 1.910156 -5.179688 2.203125 -5.453125 C 2.492188 -5.734375 2.832031 -5.875 3.21875 -5.875 C 3.238281 -5.875 3.269531 -5.875 3.3125 -5.875 C 3.351562 -5.875 3.425781 -5.867188 3.53125 -5.859375 L 3.53125 -4.828125 C 3.476562 -4.835938 3.425781 -4.84375 3.375 -4.84375 C 3.320312 -4.851562 3.269531 -4.859375 3.21875 -4.859375 C 2.726562 -4.859375 2.351562 -4.703125 2.09375 -4.390625 C 1.832031 -4.078125 1.703125 -3.71875 1.703125 -3.3125 L 1.703125 0 L 0.734375 0 Z M 0.734375 -5.75 "/>
</g>
<g id="glyph-1-6">
<path d="M 3.109375 -5.875 C 3.515625 -5.875 3.90625 -5.78125 4.28125 -5.59375 C 4.664062 -5.40625 4.960938 -5.15625 5.171875 -4.84375 C 5.359375 -4.5625 5.484375 -4.222656 5.546875 -3.828125 C 5.609375 -3.566406 5.640625 -3.144531 5.640625 -2.5625 L 1.421875 -2.5625 C 1.441406 -1.976562 1.578125 -1.507812 1.828125 -1.15625 C 2.085938 -0.8125 2.488281 -0.640625 3.03125 -0.640625 C 3.539062 -0.640625 3.945312 -0.804688 4.25 -1.140625 C 4.414062 -1.328125 4.535156 -1.550781 4.609375 -1.8125 L 5.5625 -1.8125 C 5.53125 -1.59375 5.441406 -1.351562 5.296875 -1.09375 C 5.160156 -0.832031 5.003906 -0.625 4.828125 -0.46875 C 4.535156 -0.175781 4.175781 0.0195312 3.75 0.125 C 3.507812 0.175781 3.242188 0.203125 2.953125 0.203125 C 2.234375 0.203125 1.625 -0.0546875 1.125 -0.578125 C 0.632812 -1.097656 0.390625 -1.828125 0.390625 -2.765625 C 0.390625 -3.691406 0.640625 -4.441406 1.140625 -5.015625 C 1.640625 -5.585938 2.296875 -5.875 3.109375 -5.875 Z M 4.640625 -3.328125 C 4.609375 -3.753906 4.519531 -4.09375 4.375 -4.34375 C 4.101562 -4.800781 3.660156 -5.03125 3.046875 -5.03125 C 2.597656 -5.03125 2.222656 -4.867188 1.921875 -4.546875 C 1.628906 -4.234375 1.472656 -3.828125 1.453125 -3.328125 Z M 3.015625 -5.890625 Z M 3.015625 -5.890625 "/>
</g>
<g id="glyph-1-7">
<path d="M 1.28125 -1.8125 C 1.3125 -1.488281 1.394531 -1.238281 1.53125 -1.0625 C 1.769531 -0.75 2.191406 -0.59375 2.796875 -0.59375 C 3.148438 -0.59375 3.460938 -0.671875 3.734375 -0.828125 C 4.003906 -0.984375 4.140625 -1.222656 4.140625 -1.546875 C 4.140625 -1.796875 4.03125 -1.984375 3.8125 -2.109375 C 3.675781 -2.191406 3.398438 -2.285156 2.984375 -2.390625 L 2.21875 -2.578125 C 1.726562 -2.703125 1.367188 -2.835938 1.140625 -2.984375 C 0.722656 -3.253906 0.515625 -3.617188 0.515625 -4.078125 C 0.515625 -4.617188 0.707031 -5.054688 1.09375 -5.390625 C 1.488281 -5.734375 2.019531 -5.90625 2.6875 -5.90625 C 3.550781 -5.90625 4.175781 -5.648438 4.5625 -5.140625 C 4.800781 -4.816406 4.914062 -4.46875 4.90625 -4.09375 L 4 -4.09375 C 3.976562 -4.3125 3.898438 -4.507812 3.765625 -4.6875 C 3.546875 -4.945312 3.160156 -5.078125 2.609375 -5.078125 C 2.242188 -5.078125 1.96875 -5.003906 1.78125 -4.859375 C 1.59375 -4.722656 1.5 -4.539062 1.5 -4.3125 C 1.5 -4.0625 1.625 -3.863281 1.875 -3.71875 C 2.007812 -3.625 2.21875 -3.539062 2.5 -3.46875 L 3.140625 -3.3125 C 3.835938 -3.144531 4.300781 -2.984375 4.53125 -2.828125 C 4.914062 -2.578125 5.109375 -2.191406 5.109375 -1.671875 C 5.109375 -1.148438 4.910156 -0.703125 4.515625 -0.328125 C 4.128906 0.0351562 3.539062 0.21875 2.75 0.21875 C 1.894531 0.21875 1.285156 0.0234375 0.921875 -0.359375 C 0.566406 -0.753906 0.378906 -1.238281 0.359375 -1.8125 Z M 2.71875 -5.890625 Z M 2.71875 -5.890625 "/>
</g>
<g id="glyph-1-8">
<path d="M 1.671875 -5.75 L 1.671875 -1.9375 C 1.671875 -1.644531 1.71875 -1.40625 1.8125 -1.21875 C 1.988281 -0.875 2.3125 -0.703125 2.78125 -0.703125 C 3.445312 -0.703125 3.90625 -1 4.15625 -1.59375 C 4.28125 -1.914062 4.34375 -2.359375 4.34375 -2.921875 L 4.34375 -5.75 L 5.3125 -5.75 L 5.3125 0 L 4.40625 0 L 4.421875 -0.84375 C 4.296875 -0.625 4.140625 -0.441406 3.953125 -0.296875 C 3.578125 0.00390625 3.128906 0.15625 2.609375 0.15625 C 1.785156 0.15625 1.222656 -0.117188 0.921875 -0.671875 C 0.765625 -0.960938 0.6875 -1.351562 0.6875 -1.84375 L 0.6875 -5.75 Z M 3 -5.890625 Z M 3 -5.890625 "/>
</g>
<g id="glyph-1-9">
<path d="M 2.921875 -5.921875 C 3.578125 -5.921875 4.109375 -5.757812 4.515625 -5.4375 C 4.921875 -5.125 5.164062 -4.582031 5.25 -3.8125 L 4.296875 -3.8125 C 4.242188 -4.164062 4.113281 -4.457031 3.90625 -4.6875 C 3.707031 -4.925781 3.378906 -5.046875 2.921875 -5.046875 C 2.304688 -5.046875 1.867188 -4.75 1.609375 -4.15625 C 1.429688 -3.757812 1.34375 -3.273438 1.34375 -2.703125 C 1.34375 -2.128906 1.460938 -1.644531 1.703125 -1.25 C 1.953125 -0.851562 2.335938 -0.65625 2.859375 -0.65625 C 3.265625 -0.65625 3.582031 -0.773438 3.8125 -1.015625 C 4.050781 -1.265625 4.210938 -1.601562 4.296875 -2.03125 L 5.25 -2.03125 C 5.132812 -1.269531 4.863281 -0.710938 4.4375 -0.359375 C 4.007812 -0.00390625 3.457031 0.171875 2.78125 0.171875 C 2.03125 0.171875 1.429688 -0.101562 0.984375 -0.65625 C 0.535156 -1.207031 0.3125 -1.894531 0.3125 -2.71875 C 0.3125 -3.726562 0.554688 -4.515625 1.046875 -5.078125 C 1.535156 -5.640625 2.160156 -5.921875 2.921875 -5.921875 Z M 2.78125 -5.890625 Z M 2.78125 -5.890625 "/>
</g>
<g id="glyph-1-10">
<path d="M 1.21875 -5.671875 L 2.34375 -5.671875 L 2.34375 -4.5 L 1.21875 -4.5 Z M 1.21875 -1.171875 L 2.34375 -1.171875 L 2.34375 0 L 1.21875 0 Z M 1.21875 -1.171875 "/>
</g>
<g id="glyph-2-0">
<path d="M 0 -0.359375 L -7.890625 -0.359375 L -7.890625 -6.625 L 0 -6.625 Z M -0.984375 -5.625 L -6.90625 -5.625 L -6.90625 -1.34375 L -0.984375 -1.34375 Z M -0.984375 -5.625 "/>
</g>
<g id="glyph-2-1">
<path d="M -1.8125 -1.28125 C -1.488281 -1.3125 -1.238281 -1.394531 -1.0625 -1.53125 C -0.75 -1.769531 -0.59375 -2.191406 -0.59375 -2.796875 C -0.59375 -3.148438 -0.671875 -3.460938 -0.828125 -3.734375 C -0.984375 -4.003906 -1.222656 -4.140625 -1.546875 -4.140625 C -1.796875 -4.140625 -1.984375 -4.03125 -2.109375 -3.8125 C -2.191406 -3.675781 -2.285156 -3.398438 -2.390625 -2.984375 L -2.578125 -2.21875 C -2.703125 -1.726562 -2.835938 -1.367188 -2.984375 -1.140625 C -3.253906 -0.722656 -3.617188 -0.515625 -4.078125 -0.515625 C -4.617188 -0.515625 -5.054688 -0.707031 -5.390625 -1.09375 C -5.734375 -1.488281 -5.90625 -2.019531 -5.90625 -2.6875 C -5.90625 -3.550781 -5.648438 -4.175781 -5.140625 -4.5625 C -4.816406 -4.800781 -4.46875 -4.914062 -4.09375 -4.90625 L -4.09375 -4 C -4.3125 -3.976562 -4.507812 -3.898438 -4.6875 -3.765625 C -4.945312 -3.546875 -5.078125 -3.160156 -5.078125 -2.609375 C -5.078125 -2.242188 -5.003906 -1.96875 -4.859375 -1.78125 C -4.722656 -1.59375 -4.539062 -1.5 -4.3125 -1.5 C -4.0625 -1.5 -3.863281 -1.625 -3.71875 -1.875 C -3.625 -2.007812 -3.539062 -2.21875 -3.46875 -2.5 L -3.3125 -3.140625 C -3.144531 -3.835938 -2.984375 -4.300781 -2.828125 -4.53125 C -2.578125 -4.914062 -2.191406 -5.109375 -1.671875 -5.109375 C -1.148438 -5.109375 -0.703125 -4.910156 -0.328125 -4.515625 C 0.0351562 -4.128906 0.21875 -3.539062 0.21875 -2.75 C 0.21875 -1.894531 0.0234375 -1.285156 -0.359375 -0.921875 C -0.753906 -0.566406 -1.238281 -0.378906 -1.8125 -0.359375 Z M -5.890625 -2.71875 Z M -5.890625 -2.71875 "/>
</g>
<g id="glyph-2-2">
<path d="M -5.75 -1.671875 L -1.9375 -1.671875 C -1.644531 -1.671875 -1.40625 -1.71875 -1.21875 -1.8125 C -0.875 -1.988281 -0.703125 -2.3125 -0.703125 -2.78125 C -0.703125 -3.445312 -1 -3.90625 -1.59375 -4.15625 C -1.914062 -4.28125 -2.359375 -4.34375 -2.921875 -4.34375 L -5.75 -4.34375 L -5.75 -5.3125 L 0 -5.3125 L 0 -4.40625 L -0.84375 -4.421875 C -0.625 -4.296875 -0.441406 -4.140625 -0.296875 -3.953125 C 0.00390625 -3.578125 0.15625 -3.128906 0.15625 -2.609375 C 0.15625 -1.785156 -0.117188 -1.222656 -0.671875 -0.921875 C -0.960938 -0.765625 -1.351562 -0.6875 -1.84375 -0.6875 L -5.75 -0.6875 Z M -5.890625 -3 Z M -5.890625 -3 "/>
</g>
<g id="glyph-2-3">
<path d="M -5.921875 -2.921875 C -5.921875 -3.578125 -5.757812 -4.109375 -5.4375 -4.515625 C -5.125 -4.921875 -4.582031 -5.164062 -3.8125 -5.25 L -3.8125 -4.296875 C -4.164062 -4.242188 -4.457031 -4.113281 -4.6875 -3.90625 C -4.925781 -3.707031 -5.046875 -3.378906 -5.046875 -2.921875 C -5.046875 -2.304688 -4.75 -1.867188 -4.15625 -1.609375 C -3.757812 -1.429688 -3.273438 -1.34375 -2.703125 -1.34375 C -2.128906 -1.34375 -1.644531 -1.460938 -1.25 -1.703125 C -0.851562 -1.953125 -0.65625 -2.335938 -0.65625 -2.859375 C -0.65625 -3.265625 -0.773438 -3.582031 -1.015625 -3.8125 C -1.265625 -4.050781 -1.601562 -4.210938 -2.03125 -4.296875 L -2.03125 -5.25 C -1.269531 -5.132812 -0.710938 -4.863281 -0.359375 -4.4375 C -0.00390625 -4.007812 0.171875 -3.457031 0.171875 -2.78125 C 0.171875 -2.03125 -0.101562 -1.429688 -0.65625 -0.984375 C -1.207031 -0.535156 -1.894531 -0.3125 -2.71875 -0.3125 C -3.726562 -0.3125 -4.515625 -0.554688 -5.078125 -1.046875 C -5.640625 -1.535156 -5.921875 -2.160156 -5.921875 -2.921875 Z M -5.890625 -2.78125 Z M -5.890625 -2.78125 "/>
</g>
<g id="glyph-2-4">
<path d="M -5.875 -3.109375 C -5.875 -3.515625 -5.78125 -3.90625 -5.59375 -4.28125 C -5.40625 -4.664062 -5.15625 -4.960938 -4.84375 -5.171875 C -4.5625 -5.359375 -4.222656 -5.484375 -3.828125 -5.546875 C -3.566406 -5.609375 -3.144531 -5.640625 -2.5625 -5.640625 L -2.5625 -1.421875 C -1.976562 -1.441406 -1.507812 -1.578125 -1.15625 -1.828125 C -0.8125 -2.085938 -0.640625 -2.488281 -0.640625 -3.03125 C -0.640625 -3.539062 -0.804688 -3.945312 -1.140625 -4.25 C -1.328125 -4.414062 -1.550781 -4.535156 -1.8125 -4.609375 L -1.8125 -5.5625 C -1.59375 -5.53125 -1.351562 -5.441406 -1.09375 -5.296875 C -0.832031 -5.160156 -0.625 -5.003906 -0.46875 -4.828125 C -0.175781 -4.535156 0.0195312 -4.175781 0.125 -3.75 C 0.175781 -3.507812 0.203125 -3.242188 0.203125 -2.953125 C 0.203125 -2.234375 -0.0546875 -1.625 -0.578125 -1.125 C -1.097656 -0.632812 -1.828125 -0.390625 -2.765625 -0.390625 C -3.691406 -0.390625 -4.441406 -0.640625 -5.015625 -1.140625 C -5.585938 -1.640625 -5.875 -2.296875 -5.875 -3.109375 Z M -3.328125 -4.640625 C -3.753906 -4.609375 -4.09375 -4.519531 -4.34375 -4.375 C -4.800781 -4.101562 -5.03125 -3.660156 -5.03125 -3.046875 C -5.03125 -2.597656 -4.867188 -2.222656 -4.546875 -1.921875 C -4.234375 -1.628906 -3.828125 -1.472656 -3.328125 -1.453125 Z M -5.890625 -3.015625 Z M -5.890625 -3.015625 "/>
</g>
<g id="glyph-2-5">
<path d="M -0.625 -2.984375 C -0.625 -3.628906 -0.863281 -4.070312 -1.34375 -4.3125 C -1.832031 -4.550781 -2.375 -4.671875 -2.96875 -4.671875 C -3.507812 -4.671875 -3.945312 -4.582031 -4.28125 -4.40625 C -4.8125 -4.132812 -5.078125 -3.664062 -5.078125 -3 C -5.078125 -2.40625 -4.847656 -1.972656 -4.390625 -1.703125 C -3.941406 -1.441406 -3.398438 -1.3125 -2.765625 -1.3125 C -2.148438 -1.3125 -1.640625 -1.441406 -1.234375 -1.703125 C -0.828125 -1.972656 -0.625 -2.398438 -0.625 -2.984375 Z M -5.921875 -3.03125 C -5.921875 -3.769531 -5.671875 -4.394531 -5.171875 -4.90625 C -4.679688 -5.414062 -3.957031 -5.671875 -3 -5.671875 C -2.070312 -5.671875 -1.304688 -5.445312 -0.703125 -5 C -0.0976562 -4.550781 0.203125 -3.851562 0.203125 -2.90625 C 0.203125 -2.113281 -0.0625 -1.484375 -0.59375 -1.015625 C -1.125 -0.546875 -1.84375 -0.3125 -2.75 -0.3125 C -3.71875 -0.3125 -4.488281 -0.554688 -5.0625 -1.046875 C -5.632812 -1.535156 -5.921875 -2.195312 -5.921875 -3.03125 Z M -5.890625 -3 Z M -5.890625 -3 "/>
</g>
</g>
<clipPath id="clip-0">
<path clip-rule="nonzero" d="M 41.152344 5.480469 L 390.523438 5.480469 L 390.523438 179.652344 L 41.152344 179.652344 Z M 41.152344 5.480469 "/>
</clipPath>
<clipPath id="clip-1">
<path clip-rule="nonzero" d="M 41.152344 151 L 390.523438 151 L 390.523438 153 L 41.152344 153 Z M 41.152344 151 "/>
</clipPath>
<clipPath id="clip-2">
<path clip-rule="nonzero" d="M 41.152344 112 L 390.523438 112 L 390.523438 113 L 41.152344 113 Z M 41.152344 112 "/>
</clipPath>
<clipPath id="clip-3">
<path clip-rule="nonzero" d="M 41.152344 72 L 390.523438 72 L 390.523438 74 L 41.152344 74 Z M 41.152344 72 "/>
</clipPath>
<clipPath id="clip-4">
<path clip-rule="nonzero" d="M 41.152344 32 L 390.523438 32 L 390.523438 34 L 41.152344 34 Z M 41.152344 32 "/>
</clipPath>
<clipPath id="clip-5">
<path clip-rule="nonzero" d="M 73 5.480469 L 75 5.480469 L 75 179.652344 L 73 179.652344 Z M 73 5.480469 "/>
</clipPath>
<clipPath id="clip-6">
<path clip-rule="nonzero" d="M 162 5.480469 L 163 5.480469 L 163 179.652344 L 162 179.652344 Z M 162 5.480469 "/>
</clipPath>
<clipPath id="clip-7">
<path clip-rule="nonzero" d="M 250 5.480469 L 252 5.480469 L 252 179.652344 L 250 179.652344 Z M 250 5.480469 "/>
</clipPath>
<clipPath id="clip-8">
<path clip-rule="nonzero" d="M 339 5.480469 L 340 5.480469 L 340 179.652344 L 339 179.652344 Z M 339 5.480469 "/>
</clipPath>
<clipPath id="clip-9">
<path clip-rule="nonzero" d="M 41.152344 171 L 390.523438 171 L 390.523438 173 L 41.152344 173 Z M 41.152344 171 "/>
</clipPath>
<clipPath id="clip-10">
<path clip-rule="nonzero" d="M 41.152344 131 L 390.523438 131 L 390.523438 133 L 41.152344 133 Z M 41.152344 131 "/>
</clipPath>
<clipPath id="clip-11">
<path clip-rule="nonzero" d="M 41.152344 92 L 390.523438 92 L 390.523438 94 L 41.152344 94 Z M 41.152344 92 "/>
</clipPath>
<clipPath id="clip-12">
<path clip-rule="nonzero" d="M 41.152344 52 L 390.523438 52 L 390.523438 54 L 41.152344 54 Z M 41.152344 52 "/>
</clipPath>
<clipPath id="clip-13">
<path clip-rule="nonzero" d="M 41.152344 12 L 390.523438 12 L 390.523438 14 L 41.152344 14 Z M 41.152344 12 "/>
</clipPath>
<clipPath id="clip-14">
<path clip-rule="nonzero" d="M 117 5.480469 L 119 5.480469 L 119 179.652344 L 117 179.652344 Z M 117 5.480469 "/>
</clipPath>
<clipPath id="clip-15">
<path clip-rule="nonzero" d="M 206 5.480469 L 208 5.480469 L 208 179.652344 L 206 179.652344 Z M 206 5.480469 "/>
</clipPath>
<clipPath id="clip-16">
<path clip-rule="nonzero" d="M 294 5.480469 L 296 5.480469 L 296 179.652344 L 294 179.652344 Z M 294 5.480469 "/>
</clipPath>
<clipPath id="clip-17">
<path clip-rule="nonzero" d="M 383 5.480469 L 385 5.480469 L 385 179.652344 L 383 179.652344 Z M 383 5.480469 "/>
</clipPath>
<clipPath id="clip-18">
<path clip-rule="nonzero" d="M 56 5.480469 L 376 5.480469 L 376 179.652344 L 56 179.652344 Z M 56 5.480469 "/>
</clipPath>
</defs>
<rect x="-39.6" y="-25.2" width="475.2" height="302.4" fill="rgb(100%, 100%, 100%)" fill-opacity="1"/>
<rect x="-39.6" y="-25.2" width="475.2" height="302.4" fill="rgb(100%, 100%, 100%)" fill-opacity="1"/>
<path fill="none" stroke-width="1.066978" stroke-linecap="round" stroke-linejoin="round" stroke="rgb(100%, 100%, 100%)" stroke-opacity="1" stroke-miterlimit="10" d="M 0 252 L 396 252 L 396 0 L 0 0 Z M 0 252 "/>
<g clip-path="url(#clip-0)">
<path fill-rule="nonzero" fill="rgb(92.156863%, 92.156863%, 92.156863%)" fill-opacity="1" d="M 41.152344 179.652344 L 390.523438 179.652344 L 390.523438 5.480469 L 41.152344 5.480469 Z M 41.152344 179.652344 "/>
</g>
<g clip-path="url(#clip-1)">
<path fill="none" stroke-width="0.533489" stroke-linecap="butt" stroke-linejoin="round" stroke="rgb(100%, 100%, 100%)" stroke-opacity="1" stroke-miterlimit="10" d="M 41.152344 151.941406 L 390.519531 151.941406 "/>
</g>
<g clip-path="url(#clip-2)">
<path fill="none" stroke-width="0.533489" stroke-linecap="butt" stroke-linejoin="round" stroke="rgb(100%, 100%, 100%)" stroke-opacity="1" stroke-miterlimit="10" d="M 41.152344 112.359375 L 390.519531 112.359375 "/>
</g>
<g clip-path="url(#clip-3)">
<path fill="none" stroke-width="0.533489" stroke-linecap="butt" stroke-linejoin="round" stroke="rgb(100%, 100%, 100%)" stroke-opacity="1" stroke-miterlimit="10" d="M 41.152344 72.773438 L 390.519531 72.773438 "/>
</g>
<g clip-path="url(#clip-4)">
<path fill="none" stroke-width="0.533489" stroke-linecap="butt" stroke-linejoin="round" stroke="rgb(100%, 100%, 100%)" stroke-opacity="1" stroke-miterlimit="10" d="M 41.152344 33.1875 L 390.519531 33.1875 "/>
</g>
<g clip-path="url(#clip-5)">
<path fill="none" stroke-width="0.533489" stroke-linecap="butt" stroke-linejoin="round" stroke="rgb(100%, 100%, 100%)" stroke-opacity="1" stroke-miterlimit="10" d="M 73.777344 179.652344 L 73.777344 5.480469 "/>
</g>
<g clip-path="url(#clip-6)">
<path fill="none" stroke-width="0.533489" stroke-linecap="butt" stroke-linejoin="round" stroke="rgb(100%, 100%, 100%)" stroke-opacity="1" stroke-miterlimit="10" d="M 162.289062 179.652344 L 162.289062 5.480469 "/>
</g>
<g clip-path="url(#clip-7)">
<path fill="none" stroke-width="0.533489" stroke-linecap="butt" stroke-linejoin="round" stroke="rgb(100%, 100%, 100%)" stroke-opacity="1" stroke-miterlimit="10" d="M 250.804688 179.652344 L 250.804688 5.480469 "/>
</g>
<g clip-path="url(#clip-8)">
<path fill="none" stroke-width="0.533489" stroke-linecap="butt" stroke-linejoin="round" stroke="rgb(100%, 100%, 100%)" stroke-opacity="1" stroke-miterlimit="10" d="M 339.320312 179.652344 L 339.320312 5.480469 "/>
</g>
<g clip-path="url(#clip-9)">
<path fill="none" stroke-width="1.066978" stroke-linecap="butt" stroke-linejoin="round" stroke="rgb(100%, 100%, 100%)" stroke-opacity="1" stroke-miterlimit="10" d="M 41.152344 171.734375 L 390.519531 171.734375 "/>
</g>
<g clip-path="url(#clip-10)">
<path fill="none" stroke-width="1.066978" stroke-linecap="butt" stroke-linejoin="round" stroke="rgb(100%, 100%, 100%)" stroke-opacity="1" stroke-miterlimit="10" d="M 41.152344 132.148438 L 390.519531 132.148438 "/>
</g>
<g clip-path="url(#clip-11)">
<path fill="none" stroke-width="1.066978" stroke-linecap="butt" stroke-linejoin="round" stroke="rgb(100%, 100%, 100%)" stroke-opacity="1" stroke-miterlimit="10" d="M 41.152344 92.566406 L 390.519531 92.566406 "/>
</g>
<g clip-path="url(#clip-12)">
<path fill="none" stroke-width="1.066978" stroke-linecap="butt" stroke-linejoin="round" stroke="rgb(100%, 100%, 100%)" stroke-opacity="1" stroke-miterlimit="10" d="M 41.152344 52.980469 L 390.519531 52.980469 "/>
</g>
<g clip-path="url(#clip-13)">
<path fill="none" stroke-width="1.066978" stroke-linecap="butt" stroke-linejoin="round" stroke="rgb(100%, 100%, 100%)" stroke-opacity="1" stroke-miterlimit="10" d="M 41.152344 13.394531 L 390.519531 13.394531 "/>
</g>
<g clip-path="url(#clip-14)">
<path fill="none" stroke-width="1.066978" stroke-linecap="butt" stroke-linejoin="round" stroke="rgb(100%, 100%, 100%)" stroke-opacity="1" stroke-miterlimit="10" d="M 118.035156 179.652344 L 118.035156 5.480469 "/>
</g>
<g clip-path="url(#clip-15)">
<path fill="none" stroke-width="1.066978" stroke-linecap="butt" stroke-linejoin="round" stroke="rgb(100%, 100%, 100%)" stroke-opacity="1" stroke-miterlimit="10" d="M 206.546875 179.652344 L 206.546875 5.480469 "/>
</g>
<g clip-path="url(#clip-16)">
<path fill="none" stroke-width="1.066978" stroke-linecap="butt" stroke-linejoin="round" stroke="rgb(100%, 100%, 100%)" stroke-opacity="1" stroke-miterlimit="10" d="M 295.0625 179.652344 L 295.0625 5.480469 "/>
</g>
<g clip-path="url(#clip-17)">
<path fill="none" stroke-width="1.066978" stroke-linecap="butt" stroke-linejoin="round" stroke="rgb(100%, 100%, 100%)" stroke-opacity="1" stroke-miterlimit="10" d="M 383.578125 179.652344 L 383.578125 5.480469 "/>
</g>
<path fill-rule="nonzero" fill="rgb(97.254902%, 46.27451%, 42.745098%)" fill-opacity="1" stroke-width="0.708661" stroke-linecap="round" stroke-linejoin="round" stroke="rgb(97.254902%, 46.27451%, 42.745098%)" stroke-opacity="1" stroke-miterlimit="10" d="M 99.578125 171.734375 C 99.578125 174.339844 95.667969 174.339844 95.667969 171.734375 C 95.667969 169.128906 99.578125 169.128906 99.578125 171.734375 "/>
<path fill-rule="nonzero" fill="rgb(97.254902%, 46.27451%, 42.745098%)" fill-opacity="1" stroke-width="0.708661" stroke-linecap="round" stroke-linejoin="round" stroke="rgb(97.254902%, 46.27451%, 42.745098%)" stroke-opacity="1" stroke-miterlimit="10" d="M 277.78125 171.734375 C 277.78125 174.339844 273.871094 174.339844 273.871094 171.734375 C 273.871094 169.128906 277.78125 169.128906 277.78125 171.734375 "/>
<path fill-rule="nonzero" fill="rgb(97.254902%, 46.27451%, 42.745098%)" fill-opacity="1" stroke-width="0.708661" stroke-linecap="round" stroke-linejoin="round" stroke="rgb(97.254902%, 46.27451%, 42.745098%)" stroke-opacity="1" stroke-miterlimit="10" d="M 156.257812 171.734375 C 156.257812 174.339844 152.347656 174.339844 152.347656 171.734375 C 152.347656 169.128906 156.257812 169.128906 156.257812 171.734375 "/>
<path fill-rule="nonzero" fill="rgb(97.254902%, 46.27451%, 42.745098%)" fill-opacity="1" stroke-width="0.708661" stroke-linecap="round" stroke-linejoin="round" stroke="rgb(97.254902%, 46.27451%, 42.745098%)" stroke-opacity="1" stroke-miterlimit="10" d="M 64.101562 171.734375 C 64.101562 174.339844 60.191406 174.339844 60.191406 171.734375 C 60.191406 169.128906 64.101562 169.128906 64.101562 171.734375 "/>
<path fill-rule="nonzero" fill="rgb(97.254902%, 46.27451%, 42.745098%)" fill-opacity="1" stroke-width="0.708661" stroke-linecap="round" stroke-linejoin="round" stroke="rgb(97.254902%, 46.27451%, 42.745098%)" stroke-opacity="1" stroke-miterlimit="10" d="M 75.871094 171.734375 C 75.871094 174.339844 71.960938 174.339844 71.960938 171.734375 C 71.960938 169.128906 75.871094 169.128906 75.871094 171.734375 "/>
<path fill-rule="nonzero" fill="rgb(97.254902%, 46.27451%, 42.745098%)" fill-opacity="1" stroke-width="0.708661" stroke-linecap="round" stroke-linejoin="round" stroke="rgb(97.254902%, 46.27451%, 42.745098%)" stroke-opacity="1" stroke-miterlimit="10" d="M 101.28125 171.734375 C 101.28125 174.339844 97.371094 174.339844 97.371094 171.734375 C 97.371094 169.128906 101.28125 169.128906 101.28125 171.734375 "/>
<path fill-rule="nonzero" fill="rgb(97.254902%, 46.27451%, 42.745098%)" fill-opacity="1" stroke-width="0.708661" stroke-linecap="round" stroke-linejoin="round" stroke="rgb(97.254902%, 46.27451%, 42.745098%)" stroke-opacity="1" stroke-miterlimit="10" d="M 119.570312 171.734375 C 119.570312 174.339844 115.660156 174.339844 115.660156 171.734375 C 115.660156 169.128906 119.570312 169.128906 119.570312 171.734375 "/>
<path fill-rule="nonzero" fill="rgb(97.254902%, 46.27451%, 42.745098%)" fill-opacity="1" stroke-width="0.708661" stroke-linecap="round" stroke-linejoin="round" stroke="rgb(97.254902%, 46.27451%, 42.745098%)" stroke-opacity="1" stroke-miterlimit="10" d="M 79.734375 171.734375 C 79.734375 174.339844 75.824219 174.339844 75.824219 171.734375 C 75.824219 169.128906 79.734375 169.128906 79.734375 171.734375 "/>
<path fill-rule="nonzero" fill="rgb(97.254902%, 46.27451%, 42.745098%)" fill-opacity="1" stroke-width="0.708661" stroke-linecap="round" stroke-linejoin="round" stroke="rgb(97.254902%, 46.27451%, 42.745098%)" stroke-opacity="1" stroke-miterlimit="10" d="M 70.550781 171.734375 C 70.550781 174.339844 66.644531 174.339844 66.644531 171.734375 C 66.644531 169.128906 70.550781 169.128906 70.550781 171.734375 "/>
<path fill-rule="nonzero" fill="rgb(97.254902%, 46.27451%, 42.745098%)" fill-opacity="1" stroke-width="0.708661" stroke-linecap="round" stroke-linejoin="round" stroke="rgb(97.254902%, 46.27451%, 42.745098%)" stroke-opacity="1" stroke-miterlimit="10" d="M 101.570312 171.734375 C 101.570312 174.339844 97.660156 174.339844 97.660156 171.734375 C 97.660156 169.128906 101.570312 169.128906 101.570312 171.734375 "/>
<path fill-rule="nonzero" fill="rgb(97.254902%, 46.27451%, 42.745098%)" fill-opacity="1" stroke-width="0.708661" stroke-linecap="round" stroke-linejoin="round" stroke="rgb(97.254902%, 46.27451%, 42.745098%)" stroke-opacity="1" stroke-miterlimit="10" d="M 101.035156 171.734375 C 101.035156 174.339844 97.125 174.339844 97.125 171.734375 C 97.125 169.128906 101.035156 169.128906 101.035156 171.734375 "/>
<path fill-rule="nonzero" fill="rgb(97.254902%, 46.27451%, 42.745098%)" fill-opacity="1" stroke-width="0.708661" stroke-linecap="round" stroke-linejoin="round" stroke="rgb(97.254902%, 46.27451%, 42.745098%)" stroke-opacity="1" stroke-miterlimit="10" d="M 95.234375 171.734375 C 95.234375 174.339844 91.324219 174.339844 91.324219 171.734375 C 91.324219 169.128906 95.234375 169.128906 95.234375 171.734375 "/>
<path fill-rule="nonzero" fill="rgb(97.254902%, 46.27451%, 42.745098%)" fill-opacity="1" stroke-width="0.708661" stroke-linecap="round" stroke-linejoin="round" stroke="rgb(97.254902%, 46.27451%, 42.745098%)" stroke-opacity="1" stroke-miterlimit="10" d="M 140.535156 171.734375 C 140.535156 174.339844 136.625 174.339844 136.625 171.734375 C 136.625 169.128906 140.535156 169.128906 140.535156 171.734375 "/>
<path fill-rule="nonzero" fill="rgb(97.254902%, 46.27451%, 42.745098%)" fill-opacity="1" stroke-width="0.708661" stroke-linecap="round" stroke-linejoin="round" stroke="rgb(97.254902%, 46.27451%, 42.745098%)" stroke-opacity="1" stroke-miterlimit="10" d="M 76.90625 171.734375 C 76.90625 174.339844 72.996094 174.339844 72.996094 171.734375 C 72.996094 169.128906 76.90625 169.128906 76.90625 171.734375 "/>
<path fill-rule="nonzero" fill="rgb(97.254902%, 46.27451%, 42.745098%)" fill-opacity="1" stroke-width="0.708661" stroke-linecap="round" stroke-linejoin="round" stroke="rgb(97.254902%, 46.27451%, 42.745098%)" stroke-opacity="1" stroke-miterlimit="10" d="M 158.441406 171.734375 C 158.441406 174.339844 154.53125 174.339844 154.53125 171.734375 C 154.53125 169.128906 158.441406 169.128906 158.441406 171.734375 "/>
<path fill-rule="nonzero" fill="rgb(97.254902%, 46.27451%, 42.745098%)" fill-opacity="1" stroke-width="0.708661" stroke-linecap="round" stroke-linejoin="round" stroke="rgb(97.254902%, 46.27451%, 42.745098%)" stroke-opacity="1" stroke-miterlimit="10" d="M 68.757812 171.734375 C 68.757812 174.339844 64.851562 174.339844 64.851562 171.734375 C 64.851562 169.128906 68.757812 169.128906 68.757812 171.734375 "/>
<path fill-rule="nonzero" fill="rgb(97.254902%, 46.27451%, 42.745098%)" fill-opacity="1" stroke-width="0.708661" stroke-linecap="round" stroke-linejoin="round" stroke="rgb(97.254902%, 46.27451%, 42.745098%)" stroke-opacity="1" stroke-miterlimit="10" d="M 105.28125 171.734375 C 105.28125 174.339844 101.375 174.339844 101.375 171.734375 C 101.375 169.128906 105.28125 169.128906 105.28125 171.734375 "/>
<path fill-rule="nonzero" fill="rgb(97.254902%, 46.27451%, 42.745098%)" fill-opacity="1" stroke-width="0.708661" stroke-linecap="round" stroke-linejoin="round" stroke="rgb(97.254902%, 46.27451%, 42.745098%)" stroke-opacity="1" stroke-miterlimit="10" d="M 152.472656 171.734375 C 152.472656 174.339844 148.5625 174.339844 148.5625 171.734375 C 148.5625 169.128906 152.472656 169.128906 152.472656 171.734375 "/>
<path fill-rule="nonzero" fill="rgb(97.254902%, 46.27451%, 42.745098%)" fill-opacity="1" stroke-width="0.708661" stroke-linecap="round" stroke-linejoin="round" stroke="rgb(97.254902%, 46.27451%, 42.745098%)" stroke-opacity="1" stroke-miterlimit="10" d="M 130.285156 171.734375 C 130.285156 174.339844 126.375 174.339844 126.375 171.734375 C 126.375 169.128906 130.285156 169.128906 130.285156 171.734375 "/>
<path fill-rule="nonzero" fill="rgb(97.254902%, 46.27451%, 42.745098%)" fill-opacity="1" stroke-width="0.708661" stroke-linecap="round" stroke-linejoin="round" stroke="rgb(97.254902%, 46.27451%, 42.745098%)" stroke-opacity="1" stroke-miterlimit="10" d="M 202.21875 171.734375 C 202.21875 174.339844 198.308594 174.339844 198.308594 171.734375 C 198.308594 169.128906 202.21875 169.128906 202.21875 171.734375 "/>
<path fill-rule="nonzero" fill="rgb(97.254902%, 46.27451%, 42.745098%)" fill-opacity="1" stroke-width="0.708661" stroke-linecap="round" stroke-linejoin="round" stroke="rgb(97.254902%, 46.27451%, 42.745098%)" stroke-opacity="1" stroke-miterlimit="10" d="M 115.945312 171.734375 C 115.945312 174.339844 112.035156 174.339844 112.035156 171.734375 C 112.035156 169.128906 115.945312 169.128906 115.945312 171.734375 "/>
<path fill-rule="nonzero" fill="rgb(97.254902%, 46.27451%, 42.745098%)" fill-opacity="1" stroke-width="0.708661" stroke-linecap="round" stroke-linejoin="round" stroke="rgb(97.254902%, 46.27451%, 42.745098%)" stroke-opacity="1" stroke-miterlimit="10" d="M 165.734375 171.734375 C 165.734375 174.339844 161.824219 174.339844 161.824219 171.734375 C 161.824219 169.128906 165.734375 169.128906 165.734375 171.734375 "/>
<path fill-rule="nonzero" fill="rgb(97.254902%, 46.27451%, 42.745098%)" fill-opacity="1" stroke-width="0.708661" stroke-linecap="round" stroke-linejoin="round" stroke="rgb(97.254902%, 46.27451%, 42.745098%)" stroke-opacity="1" stroke-miterlimit="10" d="M 83.425781 171.734375 C 83.425781 174.339844 79.515625 174.339844 79.515625 171.734375 C 79.515625 169.128906 83.425781 169.128906 83.425781 171.734375 "/>
<path fill-rule="nonzero" fill="rgb(97.254902%, 46.27451%, 42.745098%)" fill-opacity="1" stroke-width="0.708661" stroke-linecap="round" stroke-linejoin="round" stroke="rgb(97.254902%, 46.27451%, 42.745098%)" stroke-opacity="1" stroke-miterlimit="10" d="M 67.902344 171.734375 C 67.902344 174.339844 63.992188 174.339844 63.992188 171.734375 C 63.992188 169.128906 67.902344 169.128906 67.902344 171.734375 "/>
<path fill-rule="nonzero" fill="rgb(97.254902%, 46.27451%, 42.745098%)" fill-opacity="1" stroke-width="0.708661" stroke-linecap="round" stroke-linejoin="round" stroke="rgb(97.254902%, 46.27451%, 42.745098%)" stroke-opacity="1" stroke-miterlimit="10" d="M 123.457031 171.734375 C 123.457031 174.339844 119.546875 174.339844 119.546875 171.734375 C 119.546875 169.128906 123.457031 169.128906 123.457031 171.734375 "/>
<path fill-rule="nonzero" fill="rgb(97.254902%, 46.27451%, 42.745098%)" fill-opacity="1" stroke-width="0.708661" stroke-linecap="round" stroke-linejoin="round" stroke="rgb(97.254902%, 46.27451%, 42.745098%)" stroke-opacity="1" stroke-miterlimit="10" d="M 104.613281 171.734375 C 104.613281 174.339844 100.703125 174.339844 100.703125 171.734375 C 100.703125 169.128906 104.613281 169.128906 104.613281 171.734375 "/>
<path fill-rule="nonzero" fill="rgb(97.254902%, 46.27451%, 42.745098%)" fill-opacity="1" stroke-width="0.708661" stroke-linecap="round" stroke-linejoin="round" stroke="rgb(97.254902%, 46.27451%, 42.745098%)" stroke-opacity="1" stroke-miterlimit="10" d="M 89.246094 171.734375 C 89.246094 174.339844 85.335938 174.339844 85.335938 171.734375 C 85.335938 169.128906 89.246094 169.128906 89.246094 171.734375 "/>
<path fill-rule="nonzero" fill="rgb(97.254902%, 46.27451%, 42.745098%)" fill-opacity="1" stroke-width="0.708661" stroke-linecap="round" stroke-linejoin="round" stroke="rgb(97.254902%, 46.27451%, 42.745098%)" stroke-opacity="1" stroke-miterlimit="10" d="M 94.183594 171.734375 C 94.183594 174.339844 90.273438 174.339844 90.273438 171.734375 C 90.273438 169.128906 94.183594 169.128906 94.183594 171.734375 "/>
<path fill-rule="nonzero" fill="rgb(97.254902%, 46.27451%, 42.745098%)" fill-opacity="1" stroke-width="0.708661" stroke-linecap="round" stroke-linejoin="round" stroke="rgb(97.254902%, 46.27451%, 42.745098%)" stroke-opacity="1" stroke-miterlimit="10" d="M 84.960938 171.734375 C 84.960938 174.339844 81.054688 174.339844 81.054688 171.734375 C 81.054688 169.128906 84.960938 169.128906 84.960938 171.734375 "/>
<path fill-rule="nonzero" fill="rgb(97.254902%, 46.27451%, 42.745098%)" fill-opacity="1" stroke-width="0.708661" stroke-linecap="round" stroke-linejoin="round" stroke="rgb(97.254902%, 46.27451%, 42.745098%)" stroke-opacity="1" stroke-miterlimit="10" d="M 192.1875 171.734375 C 192.1875 174.339844 188.277344 174.339844 188.277344 171.734375 C 188.277344 169.128906 192.1875 169.128906 192.1875 171.734375 "/>
<path fill-rule="nonzero" fill="rgb(97.254902%, 46.27451%, 42.745098%)" fill-opacity="1" stroke-width="0.708661" stroke-linecap="round" stroke-linejoin="round" stroke="rgb(97.254902%, 46.27451%, 42.745098%)" stroke-opacity="1" stroke-miterlimit="10" d="M 251.363281 171.734375 C 251.363281 174.339844 247.453125 174.339844 247.453125 171.734375 C 247.453125 169.128906 251.363281 169.128906 251.363281 171.734375 "/>
<path fill-rule="nonzero" fill="rgb(97.254902%, 46.27451%, 42.745098%)" fill-opacity="1" stroke-width="0.708661" stroke-linecap="round" stroke-linejoin="round" stroke="rgb(97.254902%, 46.27451%, 42.745098%)" stroke-opacity="1" stroke-miterlimit="10" d="M 228.105469 171.734375 C 228.105469 174.339844 224.195312 174.339844 224.195312 171.734375 C 224.195312 169.128906 228.105469 169.128906 228.105469 171.734375 "/>
<path fill-rule="nonzero" fill="rgb(97.254902%, 46.27451%, 42.745098%)" fill-opacity="1" stroke-width="0.708661" stroke-linecap="round" stroke-linejoin="round" stroke="rgb(97.254902%, 46.27451%, 42.745098%)" stroke-opacity="1" stroke-miterlimit="10" d="M 94.367188 171.734375 C 94.367188 174.339844 90.457031 174.339844 90.457031 171.734375 C 90.457031 169.128906 94.367188 169.128906 94.367188 171.734375 "/>
<path fill-rule="nonzero" fill="rgb(97.254902%, 46.27451%, 42.745098%)" fill-opacity="1" stroke-width="0.708661" stroke-linecap="round" stroke-linejoin="round" stroke="rgb(97.254902%, 46.27451%, 42.745098%)" stroke-opacity="1" stroke-miterlimit="10" d="M 102.128906 171.734375 C 102.128906 174.339844 98.222656 174.339844 98.222656 171.734375 C 98.222656 169.128906 102.128906 169.128906 102.128906 171.734375 "/>
<path fill-rule="nonzero" fill="rgb(97.254902%, 46.27451%, 42.745098%)" fill-opacity="1" stroke-width="0.708661" stroke-linecap="round" stroke-linejoin="round" stroke="rgb(97.254902%, 46.27451%, 42.745098%)" stroke-opacity="1" stroke-miterlimit="10" d="M 172.148438 171.734375 C 172.148438 174.339844 168.238281 174.339844 168.238281 171.734375 C 168.238281 169.128906 172.148438 169.128906 172.148438 171.734375 "/>
<path fill-rule="nonzero" fill="rgb(97.254902%, 46.27451%, 42.745098%)" fill-opacity="1" stroke-width="0.708661" stroke-linecap="round" stroke-linejoin="round" stroke="rgb(97.254902%, 46.27451%, 42.745098%)" stroke-opacity="1" stroke-miterlimit="10" d="M 93.265625 171.734375 C 93.265625 174.339844 89.355469 174.339844 89.355469 171.734375 C 89.355469 169.128906 93.265625 169.128906 93.265625 171.734375 "/>
<path fill-rule="nonzero" fill="rgb(97.254902%, 46.27451%, 42.745098%)" fill-opacity="1" stroke-width="0.708661" stroke-linecap="round" stroke-linejoin="round" stroke="rgb(97.254902%, 46.27451%, 42.745098%)" stroke-opacity="1" stroke-miterlimit="10" d="M 78.695312 171.734375 C 78.695312 174.339844 74.785156 174.339844 74.785156 171.734375 C 74.785156 169.128906 78.695312 169.128906 78.695312 171.734375 "/>
<path fill-rule="nonzero" fill="rgb(97.254902%, 46.27451%, 42.745098%)" fill-opacity="1" stroke-width="0.708661" stroke-linecap="round" stroke-linejoin="round" stroke="rgb(97.254902%, 46.27451%, 42.745098%)" stroke-opacity="1" stroke-miterlimit="10" d="M 70.15625 171.734375 C 70.15625 174.339844 66.246094 174.339844 66.246094 171.734375 C 66.246094 169.128906 70.15625 169.128906 70.15625 171.734375 "/>
<path fill-rule="nonzero" fill="rgb(97.254902%, 46.27451%, 42.745098%)" fill-opacity="1" stroke-width="0.708661" stroke-linecap="round" stroke-linejoin="round" stroke="rgb(97.254902%, 46.27451%, 42.745098%)" stroke-opacity="1" stroke-miterlimit="10" d="M 72.378906 171.734375 C 72.378906 174.339844 68.46875 174.339844 68.46875 171.734375 C 68.46875 169.128906 72.378906 169.128906 72.378906 171.734375 "/>
<path fill-rule="nonzero" fill="rgb(97.254902%, 46.27451%, 42.745098%)" fill-opacity="1" stroke-width="0.708661" stroke-linecap="round" stroke-linejoin="round" stroke="rgb(97.254902%, 46.27451%, 42.745098%)" stroke-opacity="1" stroke-miterlimit="10" d="M 63.8125 171.734375 C 63.8125 174.339844 59.902344 174.339844 59.902344 171.734375 C 59.902344 169.128906 63.8125 169.128906 63.8125 171.734375 "/>
<path fill-rule="nonzero" fill="rgb(97.254902%, 46.27451%, 42.745098%)" fill-opacity="1" stroke-width="0.708661" stroke-linecap="round" stroke-linejoin="round" stroke="rgb(97.254902%, 46.27451%, 42.745098%)" stroke-opacity="1" stroke-miterlimit="10" d="M 205.925781 171.734375 C 205.925781 174.339844 202.015625 174.339844 202.015625 171.734375 C 202.015625 169.128906 205.925781 169.128906 205.925781 171.734375 "/>
<path fill-rule="nonzero" fill="rgb(97.254902%, 46.27451%, 42.745098%)" fill-opacity="1" stroke-width="0.708661" stroke-linecap="round" stroke-linejoin="round" stroke="rgb(97.254902%, 46.27451%, 42.745098%)" stroke-opacity="1" stroke-miterlimit="10" d="M 105.101562 171.734375 C 105.101562 174.339844 101.195312 174.339844 101.195312 171.734375 C 101.195312 169.128906 105.101562 169.128906 105.101562 171.734375 "/>
<path fill-rule="nonzero" fill="rgb(97.254902%, 46.27451%, 42.745098%)" fill-opacity="1" stroke-width="0.708661" stroke-linecap="round" stroke-linejoin="round" stroke="rgb(97.254902%, 46.27451%, 42.745098%)" stroke-opacity="1" stroke-miterlimit="10" d="M 141.800781 171.734375 C 141.800781 174.339844 137.894531 174.339844 137.894531 171.734375 C 137.894531 169.128906 141.800781 169.128906 141.800781 171.734375 "/>
<path fill-rule="nonzero" fill="rgb(97.254902%, 46.27451%, 42.745098%)" fill-opacity="1" stroke-width="0.708661" stroke-linecap="round" stroke-linejoin="round" stroke="rgb(97.254902%, 46.27451%, 42.745098%)" stroke-opacity="1" stroke-miterlimit="10" d="M 96.964844 171.734375 C 96.964844 174.339844 93.054688 174.339844 93.054688 171.734375 C 93.054688 169.128906 96.964844 169.128906 96.964844 171.734375 "/>
<path fill-rule="nonzero" fill="rgb(97.254902%, 46.27451%, 42.745098%)" fill-opacity="1" stroke-width="0.708661" stroke-linecap="round" stroke-linejoin="round" stroke="rgb(97.254902%, 46.27451%, 42.745098%)" stroke-opacity="1" stroke-miterlimit="10" d="M 79.851562 171.734375 C 79.851562 174.339844 75.945312 174.339844 75.945312 171.734375 C 75.945312 169.128906 79.851562 169.128906 79.851562 171.734375 "/>
<path fill-rule="nonzero" fill="rgb(97.254902%, 46.27451%, 42.745098%)" fill-opacity="1" stroke-width="0.708661" stroke-linecap="round" stroke-linejoin="round" stroke="rgb(97.254902%, 46.27451%, 42.745098%)" stroke-opacity="1" stroke-miterlimit="10" d="M 116.097656 171.734375 C 116.097656 174.339844 112.1875 174.339844 112.1875 171.734375 C 112.1875 169.128906 116.097656 169.128906 116.097656 171.734375 "/>
<path fill-rule="nonzero" fill="rgb(97.254902%, 46.27451%, 42.745098%)" fill-opacity="1" stroke-width="0.708661" stroke-linecap="round" stroke-linejoin="round" stroke="rgb(97.254902%, 46.27451%, 42.745098%)" stroke-opacity="1" stroke-miterlimit="10" d="M 140.347656 171.734375 C 140.347656 174.339844 136.4375 174.339844 136.4375 171.734375 C 136.4375 169.128906 140.347656 169.128906 140.347656 171.734375 "/>
<path fill-rule="nonzero" fill="rgb(97.254902%, 46.27451%, 42.745098%)" fill-opacity="1" stroke-width="0.708661" stroke-linecap="round" stroke-linejoin="round" stroke="rgb(97.254902%, 46.27451%, 42.745098%)" stroke-opacity="1" stroke-miterlimit="10" d="M 178.855469 171.734375 C 178.855469 174.339844 174.945312 174.339844 174.945312 171.734375 C 174.945312 169.128906 178.855469 169.128906 178.855469 171.734375 "/>
<path fill-rule="nonzero" fill="rgb(97.254902%, 46.27451%, 42.745098%)" fill-opacity="1" stroke-width="0.708661" stroke-linecap="round" stroke-linejoin="round" stroke="rgb(97.254902%, 46.27451%, 42.745098%)" stroke-opacity="1" stroke-miterlimit="10" d="M 108.398438 171.734375 C 108.398438 174.339844 104.488281 174.339844 104.488281 171.734375 C 104.488281 169.128906 108.398438 169.128906 108.398438 171.734375 "/>
<path fill-rule="nonzero" fill="rgb(97.254902%, 46.27451%, 42.745098%)" fill-opacity="1" stroke-width="0.708661" stroke-linecap="round" stroke-linejoin="round" stroke="rgb(97.254902%, 46.27451%, 42.745098%)" stroke-opacity="1" stroke-miterlimit="10" d="M 58.984375 171.734375 C 58.984375 174.339844 55.078125 174.339844 55.078125 171.734375 C 55.078125 169.128906 58.984375 169.128906 58.984375 171.734375 "/>
<path fill-rule="nonzero" fill="rgb(0%, 74.901961%, 76.862745%)" fill-opacity="1" stroke-width="0.708661" stroke-linecap="round" stroke-linejoin="round" stroke="rgb(0%, 74.901961%, 76.862745%)" stroke-opacity="1" stroke-miterlimit="10" d="M 370.859375 13.394531 C 370.859375 16.003906 366.949219 16.003906 366.949219 13.394531 C 366.949219 10.789062 370.859375 10.789062 370.859375 13.394531 "/>
<path fill-rule="nonzero" fill="rgb(0%, 74.901961%, 76.862745%)" fill-opacity="1" stroke-width="0.708661" stroke-linecap="round" stroke-linejoin="round" stroke="rgb(0%, 74.901961%, 76.862745%)" stroke-opacity="1" stroke-miterlimit="10" d="M 319.945312 13.394531 C 319.945312 16.003906 316.035156 16.003906 316.035156 13.394531 C 316.035156 10.789062 319.945312 10.789062 319.945312 13.394531 "/>
<path fill-rule="nonzero" fill="rgb(0%, 74.901961%, 76.862745%)" fill-opacity="1" stroke-width="0.708661" stroke-linecap="round" stroke-linejoin="round" stroke="rgb(0%, 74.901961%, 76.862745%)" stroke-opacity="1" stroke-miterlimit="10" d="M 363.597656 13.394531 C 363.597656 16.003906 359.6875 16.003906 359.6875 13.394531 C 359.6875 10.789062 363.597656 10.789062 363.597656 13.394531 "/>
<path fill-rule="nonzero" fill="rgb(0%, 74.901961%, 76.862745%)" fill-opacity="1" stroke-width="0.708661" stroke-linecap="round" stroke-linejoin="round" stroke="rgb(0%, 74.901961%, 76.862745%)" stroke-opacity="1" stroke-miterlimit="10" d="M 327.128906 13.394531 C 327.128906 16.003906 323.21875 16.003906 323.21875 13.394531 C 323.21875 10.789062 327.128906 10.789062 327.128906 13.394531 "/>
<path fill-rule="nonzero" fill="rgb(0%, 74.901961%, 76.862745%)" fill-opacity="1" stroke-width="0.708661" stroke-linecap="round" stroke-linejoin="round" stroke="rgb(0%, 74.901961%, 76.862745%)" stroke-opacity="1" stroke-miterlimit="10" d="M 359.90625 13.394531 C 359.90625 16.003906 356 16.003906 356 13.394531 C 356 10.789062 359.90625 10.789062 359.90625 13.394531 "/>
<path fill-rule="nonzero" fill="rgb(0%, 74.901961%, 76.862745%)" fill-opacity="1" stroke-width="0.708661" stroke-linecap="round" stroke-linejoin="round" stroke="rgb(0%, 74.901961%, 76.862745%)" stroke-opacity="1" stroke-miterlimit="10" d="M 299.5 13.394531 C 299.5 16.003906 295.589844 16.003906 295.589844 13.394531 C 295.589844 10.789062 299.5 10.789062 299.5 13.394531 "/>
<path fill-rule="nonzero" fill="rgb(0%, 74.901961%, 76.862745%)" fill-opacity="1" stroke-width="0.708661" stroke-linecap="round" stroke-linejoin="round" stroke="rgb(0%, 74.901961%, 76.862745%)" stroke-opacity="1" stroke-miterlimit="10" d="M 373.492188 13.394531 C 373.492188 16.003906 369.582031 16.003906 369.582031 13.394531 C 369.582031 10.789062 373.492188 10.789062 373.492188 13.394531 "/>
<path fill-rule="nonzero" fill="rgb(0%, 74.901961%, 76.862745%)" fill-opacity="1" stroke-width="0.708661" stroke-linecap="round" stroke-linejoin="round" stroke="rgb(0%, 74.901961%, 76.862745%)" stroke-opacity="1" stroke-miterlimit="10" d="M 287.804688 13.394531 C 287.804688 16.003906 283.894531 16.003906 283.894531 13.394531 C 283.894531 10.789062 287.804688 10.789062 287.804688 13.394531 "/>
<path fill-rule="nonzero" fill="rgb(0%, 74.901961%, 76.862745%)" fill-opacity="1" stroke-width="0.708661" stroke-linecap="round" stroke-linejoin="round" stroke="rgb(0%, 74.901961%, 76.862745%)" stroke-opacity="1" stroke-miterlimit="10" d="M 298.945312 13.394531 C 298.945312 16.003906 295.035156 16.003906 295.035156 13.394531 C 295.035156 10.789062 298.945312 10.789062 298.945312 13.394531 "/>
<path fill-rule="nonzero" fill="rgb(0%, 74.901961%, 76.862745%)" fill-opacity="1" stroke-width="0.708661" stroke-linecap="round" stroke-linejoin="round" stroke="rgb(0%, 74.901961%, 76.862745%)" stroke-opacity="1" stroke-miterlimit="10" d="M 314.257812 13.394531 C 314.257812 16.003906 310.347656 16.003906 310.347656 13.394531 C 310.347656 10.789062 314.257812 10.789062 314.257812 13.394531 "/>
<path fill-rule="nonzero" fill="rgb(0%, 74.901961%, 76.862745%)" fill-opacity="1" stroke-width="0.708661" stroke-linecap="round" stroke-linejoin="round" stroke="rgb(0%, 74.901961%, 76.862745%)" stroke-opacity="1" stroke-miterlimit="10" d="M 317.742188 13.394531 C 317.742188 16.003906 313.832031 16.003906 313.832031 13.394531 C 313.832031 10.789062 317.742188 10.789062 317.742188 13.394531 "/>
<path fill-rule="nonzero" fill="rgb(0%, 74.901961%, 76.862745%)" fill-opacity="1" stroke-width="0.708661" stroke-linecap="round" stroke-linejoin="round" stroke="rgb(0%, 74.901961%, 76.862745%)" stroke-opacity="1" stroke-miterlimit="10" d="M 298.136719 13.394531 C 298.136719 16.003906 294.226562 16.003906 294.226562 13.394531 C 294.226562 10.789062 298.136719 10.789062 298.136719 13.394531 "/>
<path fill-rule="nonzero" fill="rgb(0%, 74.901961%, 76.862745%)" fill-opacity="1" stroke-width="0.708661" stroke-linecap="round" stroke-linejoin="round" stroke="rgb(0%, 74.901961%, 76.862745%)" stroke-opacity="1" stroke-miterlimit="10" d="M 354.15625 13.394531 C 354.15625 16.003906 350.246094 16.003906 350.246094 13.394531 C 350.246094 10.789062 354.15625 10.789062 354.15625 13.394531 "/>
<path fill-rule="nonzero" fill="rgb(0%, 74.901961%, 76.862745%)" fill-opacity="1" stroke-width="0.708661" stroke-linecap="round" stroke-linejoin="round" stroke="rgb(0%, 74.901961%, 76.862745%)" stroke-opacity="1" stroke-miterlimit="10" d="M 327.347656 13.394531 C 327.347656 16.003906 323.4375 16.003906 323.4375 13.394531 C 323.4375 10.789062 327.347656 10.789062 327.347656 13.394531 "/>
<path fill-rule="nonzero" fill="rgb(0%, 74.901961%, 76.862745%)" fill-opacity="1" stroke-width="0.708661" stroke-linecap="round" stroke-linejoin="round" stroke="rgb(0%, 74.901961%, 76.862745%)" stroke-opacity="1" stroke-miterlimit="10" d="M 254.746094 13.394531 C 254.746094 16.003906 250.835938 16.003906 250.835938 13.394531 C 250.835938 10.789062 254.746094 10.789062 254.746094 13.394531 "/>
<path fill-rule="nonzero" fill="rgb(0%, 74.901961%, 76.862745%)" fill-opacity="1" stroke-width="0.708661" stroke-linecap="round" stroke-linejoin="round" stroke="rgb(0%, 74.901961%, 76.862745%)" stroke-opacity="1" stroke-miterlimit="10" d="M 307.992188 13.394531 C 307.992188 16.003906 304.082031 16.003906 304.082031 13.394531 C 304.082031 10.789062 307.992188 10.789062 307.992188 13.394531 "/>
<path fill-rule="nonzero" fill="rgb(0%, 74.901961%, 76.862745%)" fill-opacity="1" stroke-width="0.708661" stroke-linecap="round" stroke-linejoin="round" stroke="rgb(0%, 74.901961%, 76.862745%)" stroke-opacity="1" stroke-miterlimit="10" d="M 327.257812 13.394531 C 327.257812 16.003906 323.347656 16.003906 323.347656 13.394531 C 323.347656 10.789062 327.257812 10.789062 327.257812 13.394531 "/>
<path fill-rule="nonzero" fill="rgb(0%, 74.901961%, 76.862745%)" fill-opacity="1" stroke-width="0.708661" stroke-linecap="round" stroke-linejoin="round" stroke="rgb(0%, 74.901961%, 76.862745%)" stroke-opacity="1" stroke-miterlimit="10" d="M 362.804688 13.394531 C 362.804688 16.003906 358.894531 16.003906 358.894531 13.394531 C 358.894531 10.789062 362.804688 10.789062 362.804688 13.394531 "/>
<path fill-rule="nonzero" fill="rgb(0%, 74.901961%, 76.862745%)" fill-opacity="1" stroke-width="0.708661" stroke-linecap="round" stroke-linejoin="round" stroke="rgb(0%, 74.901961%, 76.862745%)" stroke-opacity="1" stroke-miterlimit="10" d="M 373.671875 13.394531 C 373.671875 16.003906 369.761719 16.003906 369.761719 13.394531 C 369.761719 10.789062 373.671875 10.789062 373.671875 13.394531 "/>
<path fill-rule="nonzero" fill="rgb(0%, 74.901961%, 76.862745%)" fill-opacity="1" stroke-width="0.708661" stroke-linecap="round" stroke-linejoin="round" stroke="rgb(0%, 74.901961%, 76.862745%)" stroke-opacity="1" stroke-miterlimit="10" d="M 359.339844 13.394531 C 359.339844 16.003906 355.429688 16.003906 355.429688 13.394531 C 355.429688 10.789062 359.339844 10.789062 359.339844 13.394531 "/>
<path fill-rule="nonzero" fill="rgb(0%, 74.901961%, 76.862745%)" fill-opacity="1" stroke-width="0.708661" stroke-linecap="round" stroke-linejoin="round" stroke="rgb(0%, 74.901961%, 76.862745%)" stroke-opacity="1" stroke-miterlimit="10" d="M 333.570312 13.394531 C 333.570312 16.003906 329.664062 16.003906 329.664062 13.394531 C 329.664062 10.789062 333.570312 10.789062 333.570312 13.394531 "/>
<path fill-rule="nonzero" fill="rgb(0%, 74.901961%, 76.862745%)" fill-opacity="1" stroke-width="0.708661" stroke-linecap="round" stroke-linejoin="round" stroke="rgb(0%, 74.901961%, 76.862745%)" stroke-opacity="1" stroke-miterlimit="10" d="M 344.542969 13.394531 C 344.542969 16.003906 340.632812 16.003906 340.632812 13.394531 C 340.632812 10.789062 344.542969 10.789062 344.542969 13.394531 "/>
<path fill-rule="nonzero" fill="rgb(0%, 74.901961%, 76.862745%)" fill-opacity="1" stroke-width="0.708661" stroke-linecap="round" stroke-linejoin="round" stroke="rgb(0%, 74.901961%, 76.862745%)" stroke-opacity="1" stroke-miterlimit="10" d="M 344.261719 13.394531 C 344.261719 16.003906 340.351562 16.003906 340.351562 13.394531 C 340.351562 10.789062 344.261719 10.789062 344.261719 13.394531 "/>
<path fill-rule="nonzero" fill="rgb(0%, 74.901961%, 76.862745%)" fill-opacity="1" stroke-width="0.708661" stroke-linecap="round" stroke-linejoin="round" stroke="rgb(0%, 74.901961%, 76.862745%)" stroke-opacity="1" stroke-miterlimit="10" d="M 336.804688 13.394531 C 336.804688 16.003906 332.894531 16.003906 332.894531 13.394531 C 332.894531 10.789062 336.804688 10.789062 336.804688 13.394531 "/>
<path fill-rule="nonzero" fill="rgb(0%, 74.901961%, 76.862745%)" fill-opacity="1" stroke-width="0.708661" stroke-linecap="round" stroke-linejoin="round" stroke="rgb(0%, 74.901961%, 76.862745%)" stroke-opacity="1" stroke-miterlimit="10" d="M 256.871094 13.394531 C 256.871094 16.003906 252.960938 16.003906 252.960938 13.394531 C 252.960938 10.789062 256.871094 10.789062 256.871094 13.394531 "/>
<path fill-rule="nonzero" fill="rgb(0%, 74.901961%, 76.862745%)" fill-opacity="1" stroke-width="0.708661" stroke-linecap="round" stroke-linejoin="round" stroke="rgb(0%, 74.901961%, 76.862745%)" stroke-opacity="1" stroke-miterlimit="10" d="M 361.6875 13.394531 C 361.6875 16.003906 357.777344 16.003906 357.777344 13.394531 C 357.777344 10.789062 361.6875 10.789062 361.6875 13.394531 "/>
<path fill-rule="nonzero" fill="rgb(0%, 74.901961%, 76.862745%)" fill-opacity="1" stroke-width="0.708661" stroke-linecap="round" stroke-linejoin="round" stroke="rgb(0%, 74.901961%, 76.862745%)" stroke-opacity="1" stroke-miterlimit="10" d="M 318.535156 13.394531 C 318.535156 16.003906 314.625 16.003906 314.625 13.394531 C 314.625 10.789062 318.535156 10.789062 318.535156 13.394531 "/>
<path fill-rule="nonzero" fill="rgb(0%, 74.901961%, 76.862745%)" fill-opacity="1" stroke-width="0.708661" stroke-linecap="round" stroke-linejoin="round" stroke="rgb(0%, 74.901961%, 76.862745%)" stroke-opacity="1" stroke-miterlimit="10" d="M 361.910156 13.394531 C 361.910156 16.003906 358 16.003906 358 13.394531 C 358 10.789062 361.910156 10.789062 361.910156 13.394531 "/>
<path fill-rule="nonzero" fill="rgb(0%, 74.901961%, 76.862745%)" fill-opacity="1" stroke-width="0.708661" stroke-linecap="round" stroke-linejoin="round" stroke="rgb(0%, 74.901961%, 76.862745%)" stroke-opacity="1" stroke-miterlimit="10" d="M 309.957031 13.394531 C 309.957031 16.003906 306.046875 16.003906 306.046875 13.394531 C 306.046875 10.789062 309.957031 10.789062 309.957031 13.394531 "/>
<path fill-rule="nonzero" fill="rgb(0%, 74.901961%, 76.862745%)" fill-opacity="1" stroke-width="0.708661" stroke-linecap="round" stroke-linejoin="round" stroke="rgb(0%, 74.901961%, 76.862745%)" stroke-opacity="1" stroke-miterlimit="10" d="M 337.160156 13.394531 C 337.160156 16.003906 333.253906 16.003906 333.253906 13.394531 C 333.253906 10.789062 337.160156 10.789062 337.160156 13.394531 "/>
<path fill-rule="nonzero" fill="rgb(0%, 74.901961%, 76.862745%)" fill-opacity="1" stroke-width="0.708661" stroke-linecap="round" stroke-linejoin="round" stroke="rgb(0%, 74.901961%, 76.862745%)" stroke-opacity="1" stroke-miterlimit="10" d="M 300.683594 13.394531 C 300.683594 16.003906 296.773438 16.003906 296.773438 13.394531 C 296.773438 10.789062 300.683594 10.789062 300.683594 13.394531 "/>
<path fill-rule="nonzero" fill="rgb(0%, 74.901961%, 76.862745%)" fill-opacity="1" stroke-width="0.708661" stroke-linecap="round" stroke-linejoin="round" stroke="rgb(0%, 74.901961%, 76.862745%)" stroke-opacity="1" stroke-miterlimit="10" d="M 210.402344 13.394531 C 210.402344 16.003906 206.496094 16.003906 206.496094 13.394531 C 206.496094 10.789062 210.402344 10.789062 210.402344 13.394531 "/>
<path fill-rule="nonzero" fill="rgb(0%, 74.901961%, 76.862745%)" fill-opacity="1" stroke-width="0.708661" stroke-linecap="round" stroke-linejoin="round" stroke="rgb(0%, 74.901961%, 76.862745%)" stroke-opacity="1" stroke-miterlimit="10" d="M 239.851562 13.394531 C 239.851562 16.003906 235.941406 16.003906 235.941406 13.394531 C 235.941406 10.789062 239.851562 10.789062 239.851562 13.394531 "/>
<path fill-rule="nonzero" fill="rgb(0%, 74.901961%, 76.862745%)" fill-opacity="1" stroke-width="0.708661" stroke-linecap="round" stroke-linejoin="round" stroke="rgb(0%, 74.901961%, 76.862745%)" stroke-opacity="1" stroke-miterlimit="10" d="M 358.675781 13.394531 C 358.675781 16.003906 354.765625 16.003906 354.765625 13.394531 C 354.765625 10.789062 358.675781 10.789062 358.675781 13.394531 "/>
<path fill-rule="nonzero" fill="rgb(0%, 74.901961%, 76.862745%)" fill-opacity="1" stroke-width="0.708661" stroke-linecap="round" stroke-linejoin="round" stroke="rgb(0%, 74.901961%, 76.862745%)" stroke-opacity="1" stroke-miterlimit="10" d="M 352.878906 13.394531 C 352.878906 16.003906 348.96875 16.003906 348.96875 13.394531 C 348.96875 10.789062 352.878906 10.789062 352.878906 13.394531 "/>
<path fill-rule="nonzero" fill="rgb(0%, 74.901961%, 76.862745%)" fill-opacity="1" stroke-width="0.708661" stroke-linecap="round" stroke-linejoin="round" stroke="rgb(0%, 74.901961%, 76.862745%)" stroke-opacity="1" stroke-miterlimit="10" d="M 315.6875 13.394531 C 315.6875 16.003906 311.777344 16.003906 311.777344 13.394531 C 311.777344 10.789062 315.6875 10.789062 315.6875 13.394531 "/>
<path fill-rule="nonzero" fill="rgb(0%, 74.901961%, 76.862745%)" fill-opacity="1" stroke-width="0.708661" stroke-linecap="round" stroke-linejoin="round" stroke="rgb(0%, 74.901961%, 76.862745%)" stroke-opacity="1" stroke-miterlimit="10" d="M 368.214844 13.394531 C 368.214844 16.003906 364.304688 16.003906 364.304688 13.394531 C 364.304688 10.789062 368.214844 10.789062 368.214844 13.394531 "/>
<path fill-rule="nonzero" fill="rgb(0%, 74.901961%, 76.862745%)" fill-opacity="1" stroke-width="0.708661" stroke-linecap="round" stroke-linejoin="round" stroke="rgb(0%, 74.901961%, 76.862745%)" stroke-opacity="1" stroke-miterlimit="10" d="M 371.164062 13.394531 C 371.164062 16.003906 367.253906 16.003906 367.253906 13.394531 C 367.253906 10.789062 371.164062 10.789062 371.164062 13.394531 "/>
<path fill-rule="nonzero" fill="rgb(0%, 74.901961%, 76.862745%)" fill-opacity="1" stroke-width="0.708661" stroke-linecap="round" stroke-linejoin="round" stroke="rgb(0%, 74.901961%, 76.862745%)" stroke-opacity="1" stroke-miterlimit="10" d="M 348.054688 13.394531 C 348.054688 16.003906 344.144531 16.003906 344.144531 13.394531 C 344.144531 10.789062 348.054688 10.789062 348.054688 13.394531 "/>
<path fill-rule="nonzero" fill="rgb(0%, 74.901961%, 76.862745%)" fill-opacity="1" stroke-width="0.708661" stroke-linecap="round" stroke-linejoin="round" stroke="rgb(0%, 74.901961%, 76.862745%)" stroke-opacity="1" stroke-miterlimit="10" d="M 343.949219 13.394531 C 343.949219 16.003906 340.039062 16.003906 340.039062 13.394531 C 340.039062 10.789062 343.949219 10.789062 343.949219 13.394531 "/>
<path fill-rule="nonzero" fill="rgb(0%, 74.901961%, 76.862745%)" fill-opacity="1" stroke-width="0.708661" stroke-linecap="round" stroke-linejoin="round" stroke="rgb(0%, 74.901961%, 76.862745%)" stroke-opacity="1" stroke-miterlimit="10" d="M 364.441406 13.394531 C 364.441406 16.003906 360.53125 16.003906 360.53125 13.394531 C 360.53125 10.789062 364.441406 10.789062 364.441406 13.394531 "/>
<path fill-rule="nonzero" fill="rgb(0%, 74.901961%, 76.862745%)" fill-opacity="1" stroke-width="0.708661" stroke-linecap="round" stroke-linejoin="round" stroke="rgb(0%, 74.901961%, 76.862745%)" stroke-opacity="1" stroke-miterlimit="10" d="M 317.28125 13.394531 C 317.28125 16.003906 313.371094 16.003906 313.371094 13.394531 C 313.371094 10.789062 317.28125 10.789062 317.28125 13.394531 "/>
<path fill-rule="nonzero" fill="rgb(0%, 74.901961%, 76.862745%)" fill-opacity="1" stroke-width="0.708661" stroke-linecap="round" stroke-linejoin="round" stroke="rgb(0%, 74.901961%, 76.862745%)" stroke-opacity="1" stroke-miterlimit="10" d="M 317.125 13.394531 C 317.125 16.003906 313.214844 16.003906 313.214844 13.394531 C 313.214844 10.789062 317.125 10.789062 317.125 13.394531 "/>
<path fill-rule="nonzero" fill="rgb(0%, 74.901961%, 76.862745%)" fill-opacity="1" stroke-width="0.708661" stroke-linecap="round" stroke-linejoin="round" stroke="rgb(0%, 74.901961%, 76.862745%)" stroke-opacity="1" stroke-miterlimit="10" d="M 376.59375 13.394531 C 376.59375 16.003906 372.683594 16.003906 372.683594 13.394531 C 372.683594 10.789062 376.59375 10.789062 376.59375 13.394531 "/>
<path fill-rule="nonzero" fill="rgb(0%, 74.901961%, 76.862745%)" fill-opacity="1" stroke-width="0.708661" stroke-linecap="round" stroke-linejoin="round" stroke="rgb(0%, 74.901961%, 76.862745%)" stroke-opacity="1" stroke-miterlimit="10" d="M 202.164062 13.394531 C 202.164062 16.003906 198.253906 16.003906 198.253906 13.394531 C 198.253906 10.789062 202.164062 10.789062 202.164062 13.394531 "/>
<path fill-rule="nonzero" fill="rgb(0%, 74.901961%, 76.862745%)" fill-opacity="1" stroke-width="0.708661" stroke-linecap="round" stroke-linejoin="round" stroke="rgb(0%, 74.901961%, 76.862745%)" stroke-opacity="1" stroke-miterlimit="10" d="M 367.980469 13.394531 C 367.980469 16.003906 364.070312 16.003906 364.070312 13.394531 C 364.070312 10.789062 367.980469 10.789062 367.980469 13.394531 "/>
<path fill-rule="nonzero" fill="rgb(0%, 74.901961%, 76.862745%)" fill-opacity="1" stroke-width="0.708661" stroke-linecap="round" stroke-linejoin="round" stroke="rgb(0%, 74.901961%, 76.862745%)" stroke-opacity="1" stroke-miterlimit="10" d="M 290.78125 13.394531 C 290.78125 16.003906 286.871094 16.003906 286.871094 13.394531 C 286.871094 10.789062 290.78125 10.789062 290.78125 13.394531 "/>
<path fill-rule="nonzero" fill="rgb(0%, 74.901961%, 76.862745%)" fill-opacity="1" stroke-width="0.708661" stroke-linecap="round" stroke-linejoin="round" stroke="rgb(0%, 74.901961%, 76.862745%)" stroke-opacity="1" stroke-miterlimit="10" d="M 274.367188 13.394531 C 274.367188 16.003906 270.457031 16.003906 270.457031 13.394531 C 270.457031 10.789062 274.367188 10.789062 274.367188 13.394531 "/>
<path fill-rule="nonzero" fill="rgb(0%, 74.901961%, 76.862745%)" fill-opacity="1" stroke-width="0.708661" stroke-linecap="round" stroke-linejoin="round" stroke="rgb(0%, 74.901961%, 76.862745%)" stroke-opacity="1" stroke-miterlimit="10" d="M 308.460938 13.394531 C 308.460938 16.003906 304.550781 16.003906 304.550781 13.394531 C 304.550781 10.789062 308.460938 10.789062 308.460938 13.394531 "/>
<path fill-rule="nonzero" fill="rgb(0%, 74.901961%, 76.862745%)" fill-opacity="1" stroke-width="0.708661" stroke-linecap="round" stroke-linejoin="round" stroke="rgb(0%, 74.901961%, 76.862745%)" stroke-opacity="1" stroke-miterlimit="10" d="M 327.324219 13.394531 C 327.324219 16.003906 323.414062 16.003906 323.414062 13.394531 C 323.414062 10.789062 327.324219 10.789062 327.324219 13.394531 "/>
<path fill="none" stroke-width="1.066978" stroke-linecap="butt" stroke-linejoin="round" stroke="rgb(0%, 0%, 100%)" stroke-opacity="1" stroke-miterlimit="10" d="M 57.03125 171.707031 L 61.855469 171.699219 L 62.144531 171.695312 L 65.945312 171.6875 L 66.804688 171.6875 L 68.203125 171.683594 L 68.597656 171.683594 L 70.425781 171.675781 L 73.914062 171.667969 L 74.949219 171.664062 L 76.738281 171.65625 L 77.78125 171.652344 L 77.898438 171.652344 L 81.46875 171.636719 L 83.007812 171.628906 L 87.292969 171.601562 L 91.308594 171.574219 L 92.230469 171.566406 L 92.410156 171.5625 L 93.28125 171.554688 L 95.007812 171.539062 L 97.625 171.511719 L 99.078125 171.496094 L 99.324219 171.492188 L 99.613281 171.488281 L 100.175781 171.480469 L 102.660156 171.449219 L 103.148438 171.441406 L 103.328125 171.4375 L 106.441406 171.390625 L 113.988281 171.230469 L 114.144531 171.226562 L 117.613281 171.132812 L 121.503906 171.003906 L 128.332031 170.710938 L 138.390625 170.046875 L 138.578125 170.03125 L 139.847656 169.921875 L 150.515625 168.667969 L 154.300781 168.042969 L 156.488281 167.628906 L 163.78125 165.890625 L 170.191406 163.792969 L 176.898438 160.847656 L 190.234375 151.832031 L 200.207031 141.429688 L 200.261719 141.363281 L 203.96875 136.554688 L 208.449219 130.050781 L 226.152344 98.277344 L 237.894531 75.332031 L 249.410156 55.425781 L 252.792969 50.417969 L 254.917969 47.492188 L 272.410156 29.660156 L 275.824219 27.332031 L 285.851562 22.144531 L 288.828125 20.992188 L 296.179688 18.734375 L 296.988281 18.53125 L 297.542969 18.394531 L 298.726562 18.117188 L 306.035156 16.703125 L 306.507812 16.628906 L 308.003906 16.398438 L 312.304688 15.828125 L 313.734375 15.660156 L 315.167969 15.507812 L 315.324219 15.492188 L 315.789062 15.445312 L 316.582031 15.363281 L 317.992188 15.234375 L 325.175781 14.683594 L 325.300781 14.675781 L 325.367188 14.671875 L 325.394531 14.667969 L 331.617188 14.332031 L 334.851562 14.191406 L 335.207031 14.179688 L 341.992188 13.953125 L 342.308594 13.945312 L 342.589844 13.9375 L 346.097656 13.851562 L 350.925781 13.753906 L 352.199219 13.730469 L 356.722656 13.664062 L 357.382812 13.65625 L 357.953125 13.648438 L 359.730469 13.625 L 359.953125 13.625 L 360.847656 13.613281 L 361.640625 13.605469 L 362.488281 13.597656 L 366.023438 13.566406 L 366.257812 13.5625 L 368.902344 13.542969 L 369.210938 13.539062 L 371.539062 13.523438 L 371.71875 13.523438 L 374.640625 13.503906 "/>
<g clip-path="url(#clip-18)">
<path fill="none" stroke-width="1.066978" stroke-linecap="butt" stroke-linejoin="round" stroke="rgb(66.666667%, 66.666667%, 66.666667%)" stroke-opacity="1" stroke-dasharray="4.267913 4.267913" stroke-miterlimit="10" d="M 57.03125 197.171875 L 61.855469 194.082031 L 62.144531 193.894531 L 65.945312 191.457031 L 66.804688 190.910156 L 68.203125 190.011719 L 68.597656 189.757812 L 70.425781 188.589844 L 73.914062 186.351562 L 74.949219 185.6875 L 76.738281 184.539062 L 77.78125 183.871094 L 77.898438 183.796875 L 81.46875 181.507812 L 83.007812 180.523438 L 87.292969 177.777344 L 91.308594 175.199219 L 92.230469 174.609375 L 92.410156 174.496094 L 93.28125 173.9375 L 95.007812 172.828125 L 97.625 171.152344 L 99.078125 170.21875 L 99.324219 170.0625 L 99.613281 169.875 L 100.175781 169.515625 L 102.660156 167.925781 L 103.148438 167.613281 L 103.328125 167.496094 L 106.441406 165.5 L 113.988281 160.664062 L 114.144531 160.5625 L 117.613281 158.339844 L 121.503906 155.847656 L 128.332031 151.46875 L 138.390625 145.019531 L 138.578125 144.898438 L 139.847656 144.085938 L 150.515625 137.25 L 154.300781 134.824219 L 156.488281 133.421875 L 163.78125 128.746094 L 170.191406 124.636719 L 176.898438 120.335938 L 190.234375 111.789062 L 200.207031 105.394531 L 200.261719 105.359375 L 203.96875 102.984375 L 208.449219 100.113281 L 226.152344 88.765625 L 237.894531 81.238281 L 249.410156 73.855469 L 252.792969 71.6875 L 254.917969 70.328125 L 272.410156 59.113281 L 275.824219 56.925781 L 285.851562 50.5 L 288.828125 48.589844 L 296.179688 43.875 L 296.988281 43.359375 L 297.542969 43.003906 L 298.726562 42.246094 L 306.035156 37.558594 L 306.507812 37.257812 L 308.003906 36.296875 L 312.304688 33.542969 L 313.734375 32.625 L 315.167969 31.703125 L 315.324219 31.605469 L 315.789062 31.308594 L 316.582031 30.800781 L 317.992188 29.894531 L 325.175781 25.289062 L 325.300781 25.210938 L 325.367188 25.167969 L 325.394531 25.152344 L 331.617188 21.160156 L 334.851562 19.089844 L 335.207031 18.859375 L 341.992188 14.511719 L 342.308594 14.308594 L 342.589844 14.128906 L 346.097656 11.878906 L 350.925781 8.785156 L 352.199219 7.96875 L 356.722656 5.070312 L 357.382812 4.644531 L 357.953125 4.28125 L 359.730469 3.140625 L 359.953125 2.996094 L 360.847656 2.421875 L 361.640625 1.917969 L 362.488281 1.375 L 366.023438 -0.894531 L 366.257812 -1.042969 L 368.902344 -2.738281 L 369.210938 -2.9375 L 371.539062 -4.425781 L 371.71875 -4.542969 L 374.640625 -6.417969 "/>
</g>
<g fill="rgb(30.196078%, 30.196078%, 30.196078%)" fill-opacity="1">
<use xlink:href="#glyph-0-1" x="19.21875" y="175.010742"/>
<use xlink:href="#glyph-0-2" x="24.21875" y="175.010742"/>
<use xlink:href="#glyph-0-1" x="26.21875" y="175.010742"/>
<use xlink:href="#glyph-0-1" x="31.21875" y="175.010742"/>
</g>
<g fill="rgb(30.196078%, 30.196078%, 30.196078%)" fill-opacity="1">
<use xlink:href="#glyph-0-1" x="19.21875" y="135.424805"/>
<use xlink:href="#glyph-0-2" x="24.21875" y="135.424805"/>
<use xlink:href="#glyph-0-3" x="26.21875" y="135.424805"/>
<use xlink:href="#glyph-0-4" x="31.21875" y="135.424805"/>
</g>
<g fill="rgb(30.196078%, 30.196078%, 30.196078%)" fill-opacity="1">
<use xlink:href="#glyph-0-1" x="19.21875" y="95.842773"/>
<use xlink:href="#glyph-0-2" x="24.21875" y="95.842773"/>
<use xlink:href="#glyph-0-4" x="26.21875" y="95.842773"/>
<use xlink:href="#glyph-0-1" x="31.21875" y="95.842773"/>
</g>
<g fill="rgb(30.196078%, 30.196078%, 30.196078%)" fill-opacity="1">
<use xlink:href="#glyph-0-1" x="19.21875" y="56.256836"/>
<use xlink:href="#glyph-0-2" x="24.21875" y="56.256836"/>
<use xlink:href="#glyph-0-5" x="26.21875" y="56.256836"/>
<use xlink:href="#glyph-0-4" x="31.21875" y="56.256836"/>
</g>
<g fill="rgb(30.196078%, 30.196078%, 30.196078%)" fill-opacity="1">
<use xlink:href="#glyph-0-6" x="19.21875" y="16.670898"/>
<use xlink:href="#glyph-0-2" x="24.21875" y="16.670898"/>
<use xlink:href="#glyph-0-1" x="26.21875" y="16.670898"/>
<use xlink:href="#glyph-0-1" x="31.21875" y="16.670898"/>
</g>
<path fill="none" stroke-width="1.066978" stroke-linecap="butt" stroke-linejoin="round" stroke="rgb(20%, 20%, 20%)" stroke-opacity="1" stroke-miterlimit="10" d="M 38.410156 171.734375 L 41.152344 171.734375 "/>
<path fill="none" stroke-width="1.066978" stroke-linecap="butt" stroke-linejoin="round" stroke="rgb(20%, 20%, 20%)" stroke-opacity="1" stroke-miterlimit="10" d="M 38.410156 132.148438 L 41.152344 132.148438 "/>
<path fill="none" stroke-width="1.066978" stroke-linecap="butt" stroke-linejoin="round" stroke="rgb(20%, 20%, 20%)" stroke-opacity="1" stroke-miterlimit="10" d="M 38.410156 92.566406 L 41.152344 92.566406 "/>
<path fill="none" stroke-width="1.066978" stroke-linecap="butt" stroke-linejoin="round" stroke="rgb(20%, 20%, 20%)" stroke-opacity="1" stroke-miterlimit="10" d="M 38.410156 52.980469 L 41.152344 52.980469 "/>
<path fill="none" stroke-width="1.066978" stroke-linecap="butt" stroke-linejoin="round" stroke="rgb(20%, 20%, 20%)" stroke-opacity="1" stroke-miterlimit="10" d="M 38.410156 13.394531 L 41.152344 13.394531 "/>
<path fill="none" stroke-width="1.066978" stroke-linecap="butt" stroke-linejoin="round" stroke="rgb(20%, 20%, 20%)" stroke-opacity="1" stroke-miterlimit="10" d="M 118.035156 182.390625 L 118.035156 179.652344 "/>
<path fill="none" stroke-width="1.066978" stroke-linecap="butt" stroke-linejoin="round" stroke="rgb(20%, 20%, 20%)" stroke-opacity="1" stroke-miterlimit="10" d="M 206.546875 182.390625 L 206.546875 179.652344 "/>
<path fill="none" stroke-width="1.066978" stroke-linecap="butt" stroke-linejoin="round" stroke="rgb(20%, 20%, 20%)" stroke-opacity="1" stroke-miterlimit="10" d="M 295.0625 182.390625 L 295.0625 179.652344 "/>
<path fill="none" stroke-width="1.066978" stroke-linecap="butt" stroke-linejoin="round" stroke="rgb(20%, 20%, 20%)" stroke-opacity="1" stroke-miterlimit="10" d="M 383.578125 182.390625 L 383.578125 179.652344 "/>
<g fill="rgb(30.196078%, 30.196078%, 30.196078%)" fill-opacity="1">
<use xlink:href="#glyph-0-7" x="113.035156" y="191.358398"/>
<use xlink:href="#glyph-0-1" x="118.035156" y="191.358398"/>
</g>
<g fill="rgb(30.196078%, 30.196078%, 30.196078%)" fill-opacity="1">
<use xlink:href="#glyph-0-7" x="201.546875" y="191.358398"/>
<use xlink:href="#glyph-0-8" x="206.546875" y="191.358398"/>
</g>
<g fill="rgb(30.196078%, 30.196078%, 30.196078%)" fill-opacity="1">
<use xlink:href="#glyph-0-7" x="290.0625" y="191.358398"/>
<use xlink:href="#glyph-0-9" x="295.0625" y="191.358398"/>
</g>
<g fill="rgb(30.196078%, 30.196078%, 30.196078%)" fill-opacity="1">
<use xlink:href="#glyph-0-6" x="376.078125" y="191.358398"/>
<use xlink:href="#glyph-0-1" x="381.078125" y="191.358398"/>
<use xlink:href="#glyph-0-3" x="386.078125" y="191.358398"/>
</g>
<g fill="rgb(0%, 0%, 0%)" fill-opacity="1">
<use xlink:href="#glyph-1-1" x="200.835938" y="203.794922"/>
<use xlink:href="#glyph-1-2" x="206.835938" y="203.794922"/>
<use xlink:href="#glyph-1-3" x="212.835938" y="203.794922"/>
<use xlink:href="#glyph-1-4" x="214.835938" y="203.794922"/>
<use xlink:href="#glyph-1-5" x="220.835938" y="203.794922"/>
<use xlink:href="#glyph-1-6" x="224.835938" y="203.794922"/>
</g>
<g fill="rgb(0%, 0%, 0%)" fill-opacity="1">
<use xlink:href="#glyph-2-1" x="12.951172" y="116.566406"/>
<use xlink:href="#glyph-2-2" x="12.951172" y="110.566406"/>
<use xlink:href="#glyph-2-3" x="12.951172" y="104.566406"/>
<use xlink:href="#glyph-2-3" x="12.951172" y="98.566406"/>
<use xlink:href="#glyph-2-4" x="12.951172" y="92.566406"/>
<use xlink:href="#glyph-2-1" x="12.951172" y="86.566406"/>
<use xlink:href="#glyph-2-1" x="12.951172" y="80.566406"/>
<use xlink:href="#glyph-2-5" x="12.951172" y="74.566406"/>
</g>
<path fill-rule="nonzero" fill="rgb(100%, 100%, 100%)" fill-opacity="1" d="M 131.117188 246.519531 L 300.554688 246.519531 L 300.554688 218.28125 L 131.117188 218.28125 Z M 131.117188 246.519531 "/>
<g fill="rgb(0%, 0%, 0%)" fill-opacity="1">
<use xlink:href="#glyph-1-7" x="136.597656" y="235.873047"/>
<use xlink:href="#glyph-1-8" x="142.597656" y="235.873047"/>
<use xlink:href="#glyph-1-9" x="148.597656" y="235.873047"/>
<use xlink:href="#glyph-1-9" x="154.597656" y="235.873047"/>
<use xlink:href="#glyph-1-6" x="160.597656" y="235.873047"/>
<use xlink:href="#glyph-1-7" x="166.597656" y="235.873047"/>
<use xlink:href="#glyph-1-7" x="172.597656" y="235.873047"/>
<use xlink:href="#glyph-1-4" x="178.597656" y="235.873047"/>
<use xlink:href="#glyph-1-10" x="184.597656" y="235.873047"/>
</g>
<path fill-rule="nonzero" fill="rgb(92.156863%, 92.156863%, 92.156863%)" fill-opacity="1" d="M 193.074219 241.042969 L 210.355469 241.042969 L 210.355469 223.761719 L 193.074219 223.761719 Z M 193.074219 241.042969 "/>
<path fill-rule="nonzero" fill="rgb(97.254902%, 46.27451%, 42.745098%)" fill-opacity="1" stroke-width="0.708661" stroke-linecap="round" stroke-linejoin="round" stroke="rgb(97.254902%, 46.27451%, 42.745098%)" stroke-opacity="1" stroke-miterlimit="10" d="M 203.671875 232.402344 C 203.671875 235.007812 199.761719 235.007812 199.761719 232.402344 C 199.761719 229.792969 203.671875 229.792969 203.671875 232.402344 "/>
<path fill-rule="nonzero" fill="rgb(92.156863%, 92.156863%, 92.156863%)" fill-opacity="1" d="M 249.316406 241.042969 L 266.597656 241.042969 L 266.597656 223.761719 L 249.316406 223.761719 Z M 249.316406 241.042969 "/>
<path fill-rule="nonzero" fill="rgb(0%, 74.901961%, 76.862745%)" fill-opacity="1" stroke-width="0.708661" stroke-linecap="round" stroke-linejoin="round" stroke="rgb(0%, 74.901961%, 76.862745%)" stroke-opacity="1" stroke-miterlimit="10" d="M 259.910156 232.402344 C 259.910156 235.007812 256 235.007812 256 232.402344 C 256 229.792969 259.910156 229.792969 259.910156 232.402344 "/>
<g fill="rgb(0%, 0%, 0%)" fill-opacity="1">
<use xlink:href="#glyph-0-10" x="215.835938" y="235.678711"/>
<use xlink:href="#glyph-0-11" x="220.835938" y="235.678711"/>
<use xlink:href="#glyph-0-12" x="226.835938" y="235.678711"/>
<use xlink:href="#glyph-0-13" x="231.835938" y="235.678711"/>
<use xlink:href="#glyph-0-14" x="237.835938" y="235.678711"/>
</g>
<g fill="rgb(0%, 0%, 0%)" fill-opacity="1">
<use xlink:href="#glyph-0-15" x="272.074219" y="235.678711"/>
<use xlink:href="#glyph-0-16" x="277.074219" y="235.678711"/>
<use xlink:href="#glyph-0-17" x="283.074219" y="235.678711"/>
<use xlink:href="#glyph-0-14" x="289.074219" y="235.678711"/>
</g>
</svg>
