<?xml version="1.0" encoding="UTF-8"?>
<svg xmlns="http://www.w3.org/2000/svg" xmlns:xlink="http://www.w3.org/1999/xlink" width="396pt" height="252pt" viewBox="0 0 396 252">
<defs>
<g>
<g id="glyph-0-0">
<path d="M 0.359375 0 L 0.359375 -7.890625 L 6.625 -7.890625 L 6.625 0 Z M 5.625 -0.984375 L 5.625 -6.90625 L 1.34375 -6.90625 L 1.34375 -0.984375 Z M 5.625 -0.984375 "/>
</g>
<g id="glyph-0-1">
<path d="M 3.25 -8.015625 C 2.6875 -6.921875 2.320312 -6.117188 2.15625 -5.609375 C 1.90625 -4.828125 1.78125 -3.921875 1.78125 -2.890625 C 1.78125 -1.847656 1.925781 -0.898438 2.21875 -0.046875 C 2.394531 0.480469 2.742188 1.25 3.265625 2.25 L 2.625 2.25 C 2.101562 1.425781 1.78125 0.898438 1.65625 0.671875 C 1.53125 0.453125 1.390625 0.148438 1.234375 -0.234375 C 1.035156 -0.765625 0.898438 -1.332031 0.828125 -1.9375 C 0.785156 -2.25 0.765625 -2.546875 0.765625 -2.828125 C 0.765625 -3.890625 0.929688 -4.832031 1.265625 -5.65625 C 1.472656 -6.1875 1.910156 -6.972656 2.578125 -8.015625 Z M 3.25 -8.015625 "/>
</g>
<g id="glyph-0-2">
<path d="M 1.046875 -5.453125 L 1.046875 -6.1875 C 1.742188 -6.257812 2.226562 -6.375 2.5 -6.53125 C 2.78125 -6.6875 2.988281 -7.0625 3.125 -7.65625 L 3.890625 -7.65625 L 3.890625 0 L 2.859375 0 L 2.859375 -5.453125 Z M 1.046875 -5.453125 "/>
</g>
<g id="glyph-0-3">
<path d="M 0.375 2.25 C 0.945312 1.132812 1.316406 0.320312 1.484375 -0.1875 C 1.734375 -0.957031 1.859375 -1.859375 1.859375 -2.890625 C 1.859375 -3.921875 1.710938 -4.867188 1.421875 -5.734375 C 1.242188 -6.265625 0.890625 -7.023438 0.359375 -8.015625 L 1.015625 -8.015625 C 1.566406 -7.140625 1.898438 -6.597656 2.015625 -6.390625 C 2.128906 -6.179688 2.253906 -5.894531 2.390625 -5.53125 C 2.566406 -5.082031 2.691406 -4.640625 2.765625 -4.203125 C 2.835938 -3.773438 2.875 -3.359375 2.875 -2.953125 C 2.875 -1.890625 2.707031 -0.941406 2.375 -0.109375 C 2.15625 0.417969 1.710938 1.207031 1.046875 2.25 Z M 0.375 2.25 "/>
</g>
<g id="glyph-0-4">
<path d="M 6.09375 -4.421875 L 6.09375 -3.515625 L 0.5 -3.515625 L 0.5 -4.421875 Z M 6.09375 -2.109375 L 6.09375 -1.1875 L 0.5 -1.1875 L 0.5 -2.109375 Z M 6.09375 -2.109375 "/>
</g>
<g id="glyph-0-5">
<path d="M 0.34375 0 C 0.375 -0.664062 0.507812 -1.242188 0.75 -1.734375 C 0.988281 -2.222656 1.457031 -2.664062 2.15625 -3.0625 L 3.1875 -3.65625 C 3.644531 -3.925781 3.96875 -4.15625 4.15625 -4.34375 C 4.445312 -4.644531 4.59375 -4.988281 4.59375 -5.375 C 4.59375 -5.820312 4.457031 -6.175781 4.1875 -6.4375 C 3.914062 -6.695312 3.554688 -6.828125 3.109375 -6.828125 C 2.453125 -6.828125 1.992188 -6.578125 1.734375 -6.078125 C 1.597656 -5.804688 1.523438 -5.4375 1.515625 -4.96875 L 0.53125 -4.96875 C 0.539062 -5.632812 0.664062 -6.175781 0.90625 -6.59375 C 1.320312 -7.34375 2.0625 -7.71875 3.125 -7.71875 C 4 -7.71875 4.640625 -7.476562 5.046875 -7 C 5.453125 -6.53125 5.65625 -6.003906 5.65625 -5.421875 C 5.65625 -4.796875 5.441406 -4.265625 5.015625 -3.828125 C 4.765625 -3.578125 4.3125 -3.269531 3.65625 -2.90625 L 2.921875 -2.5 C 2.578125 -2.3125 2.300781 -2.128906 2.09375 -1.953125 C 1.738281 -1.640625 1.515625 -1.289062 1.421875 -0.90625 L 5.625 -0.90625 L 5.625 0 Z M 0.34375 0 "/>
</g>
<g id="glyph-0-6">
<path d="M 2.96875 -7.6875 C 3.96875 -7.6875 4.691406 -7.28125 5.140625 -6.46875 C 5.484375 -5.832031 5.65625 -4.960938 5.65625 -3.859375 C 5.65625 -2.804688 5.5 -1.941406 5.1875 -1.265625 C 4.726562 -0.285156 3.988281 0.203125 2.96875 0.203125 C 2.039062 0.203125 1.351562 -0.195312 0.90625 -1 C 0.53125 -1.664062 0.34375 -2.5625 0.34375 -3.6875 C 0.34375 -4.5625 0.457031 -5.3125 0.6875 -5.9375 C 1.101562 -7.101562 1.863281 -7.6875 2.96875 -7.6875 Z M 2.96875 -0.671875 C 3.46875 -0.671875 3.863281 -0.890625 4.15625 -1.328125 C 4.457031 -1.773438 4.609375 -2.601562 4.609375 -3.8125 C 4.609375 -4.6875 4.5 -5.40625 4.28125 -5.96875 C 4.070312 -6.539062 3.65625 -6.828125 3.03125 -6.828125 C 2.46875 -6.828125 2.050781 -6.554688 1.78125 -6.015625 C 1.519531 -5.484375 1.390625 -4.695312 1.390625 -3.65625 C 1.390625 -2.863281 1.472656 -2.234375 1.640625 -1.765625 C 1.898438 -1.035156 2.34375 -0.671875 2.96875 -0.671875 Z M 2.96875 -0.671875 "/>
</g>
<g id="glyph-0-7">
<path d="M 1.453125 -1.53125 C 1.453125 -1.25 1.550781 -1.023438 1.75 -0.859375 C 1.957031 -0.703125 2.203125 -0.625 2.484375 -0.625 C 2.816406 -0.625 3.144531 -0.703125 3.46875 -0.859375 C 4.007812 -1.117188 4.28125 -1.550781 4.28125 -2.15625 L 4.28125 -2.921875 C 4.15625 -2.847656 4 -2.785156 3.8125 -2.734375 C 3.632812 -2.691406 3.453125 -2.65625 3.265625 -2.625 L 2.6875 -2.5625 C 2.332031 -2.507812 2.066406 -2.4375 1.890625 -2.34375 C 1.597656 -2.164062 1.453125 -1.894531 1.453125 -1.53125 Z M 3.796875 -3.484375 C 4.015625 -3.515625 4.160156 -3.609375 4.234375 -3.765625 C 4.273438 -3.847656 4.296875 -3.972656 4.296875 -4.140625 C 4.296875 -4.460938 4.175781 -4.695312 3.9375 -4.84375 C 3.707031 -5 3.375 -5.078125 2.9375 -5.078125 C 2.4375 -5.078125 2.082031 -4.941406 1.875 -4.671875 C 1.75 -4.515625 1.671875 -4.289062 1.640625 -4 L 0.734375 -4 C 0.753906 -4.707031 0.984375 -5.195312 1.421875 -5.46875 C 1.867188 -5.75 2.382812 -5.890625 2.96875 -5.890625 C 3.644531 -5.890625 4.191406 -5.757812 4.609375 -5.5 C 5.035156 -5.25 5.25 -4.847656 5.25 -4.296875 L 5.25 -0.984375 C 5.25 -0.890625 5.265625 -0.8125 5.296875 -0.75 C 5.335938 -0.6875 5.425781 -0.65625 5.5625 -0.65625 C 5.601562 -0.65625 5.648438 -0.65625 5.703125 -0.65625 C 5.765625 -0.664062 5.820312 -0.675781 5.875 -0.6875 L 5.875 0.03125 C 5.726562 0.0703125 5.613281 0.0976562 5.53125 0.109375 C 5.457031 0.117188 5.351562 0.125 5.21875 0.125 C 4.882812 0.125 4.640625 0.00390625 4.484375 -0.234375 C 4.410156 -0.359375 4.359375 -0.535156 4.328125 -0.765625 C 4.128906 -0.503906 3.84375 -0.28125 3.46875 -0.09375 C 3.101562 0.0898438 2.695312 0.1875 2.25 0.1875 C 1.71875 0.1875 1.28125 0.0234375 0.9375 -0.296875 C 0.601562 -0.617188 0.4375 -1.023438 0.4375 -1.515625 C 0.4375 -2.046875 0.601562 -2.457031 0.9375 -2.75 C 1.269531 -3.039062 1.707031 -3.222656 2.25 -3.296875 Z M 2.984375 -5.890625 Z M 2.984375 -5.890625 "/>
</g>
<g id="glyph-0-8">
<path d="M 1.359375 -1.953125 C 1.421875 -1.410156 1.675781 -1.03125 2.125 -0.8125 C 2.351562 -0.707031 2.617188 -0.65625 2.921875 -0.65625 C 3.492188 -0.65625 3.914062 -0.835938 4.1875 -1.203125 C 4.46875 -1.566406 4.609375 -1.972656 4.609375 -2.421875 C 4.609375 -2.953125 4.441406 -3.363281 4.109375 -3.65625 C 3.785156 -3.957031 3.394531 -4.109375 2.9375 -4.109375 C 2.601562 -4.109375 2.316406 -4.039062 2.078125 -3.90625 C 1.835938 -3.78125 1.632812 -3.601562 1.46875 -3.375 L 0.640625 -3.421875 L 1.21875 -7.5625 L 5.21875 -7.5625 L 5.21875 -6.625 L 1.9375 -6.625 L 1.609375 -4.484375 C 1.796875 -4.617188 1.96875 -4.722656 2.125 -4.796875 C 2.414062 -4.910156 2.75 -4.96875 3.125 -4.96875 C 3.820312 -4.96875 4.414062 -4.738281 4.90625 -4.28125 C 5.40625 -3.832031 5.65625 -3.257812 5.65625 -2.5625 C 5.65625 -1.832031 5.425781 -1.191406 4.96875 -0.640625 C 4.519531 -0.0859375 3.804688 0.1875 2.828125 0.1875 C 2.203125 0.1875 1.644531 0.0117188 1.15625 -0.328125 C 0.675781 -0.679688 0.410156 -1.222656 0.359375 -1.953125 Z M 1.359375 -1.953125 "/>
</g>
<g id="glyph-0-9">
<path d="M 0.640625 -7.921875 L 1.578125 -7.921875 L 1.578125 -5.046875 C 1.785156 -5.328125 2.035156 -5.539062 2.328125 -5.6875 C 2.617188 -5.832031 2.9375 -5.90625 3.28125 -5.90625 C 4 -5.90625 4.582031 -5.65625 5.03125 -5.15625 C 5.476562 -4.664062 5.703125 -3.941406 5.703125 -2.984375 C 5.703125 -2.078125 5.476562 -1.320312 5.03125 -0.71875 C 4.59375 -0.113281 3.984375 0.1875 3.203125 0.1875 C 2.765625 0.1875 2.394531 0.0742188 2.09375 -0.140625 C 1.914062 -0.265625 1.726562 -0.460938 1.53125 -0.734375 L 1.53125 0 L 0.640625 0 Z M 3.140625 -0.671875 C 3.671875 -0.671875 4.0625 -0.878906 4.3125 -1.296875 C 4.570312 -1.710938 4.703125 -2.257812 4.703125 -2.9375 C 4.703125 -3.539062 4.570312 -4.039062 4.3125 -4.4375 C 4.0625 -4.832031 3.679688 -5.03125 3.171875 -5.03125 C 2.734375 -5.03125 2.347656 -4.867188 2.015625 -4.546875 C 1.679688 -4.222656 1.515625 -3.6875 1.515625 -2.9375 C 1.515625 -2.394531 1.582031 -1.957031 1.71875 -1.625 C 1.976562 -0.988281 2.453125 -0.671875 3.140625 -0.671875 Z M 3.140625 -0.671875 "/>
</g>
<g id="glyph-0-10">
<path d="M 2.859375 0.203125 C 1.953125 0.203125 1.289062 -0.046875 0.875 -0.546875 C 0.46875 -1.046875 0.265625 -1.648438 0.265625 -2.359375 L 1.265625 -2.359375 C 1.316406 -1.859375 1.410156 -1.5 1.546875 -1.28125 C 1.796875 -0.875 2.25 -0.671875 2.90625 -0.671875 C 3.414062 -0.671875 3.820312 -0.804688 4.125 -1.078125 C 4.4375 -1.347656 4.59375 -1.695312 4.59375 -2.125 C 4.59375 -2.65625 4.429688 -3.023438 4.109375 -3.234375 C 3.785156 -3.453125 3.335938 -3.5625 2.765625 -3.5625 C 2.703125 -3.5625 2.632812 -3.5625 2.5625 -3.5625 C 2.5 -3.5625 2.429688 -3.554688 2.359375 -3.546875 L 2.359375 -4.40625 C 2.460938 -4.394531 2.546875 -4.382812 2.609375 -4.375 C 2.679688 -4.375 2.757812 -4.375 2.84375 -4.375 C 3.195312 -4.375 3.492188 -4.429688 3.734375 -4.546875 C 4.140625 -4.742188 4.34375 -5.101562 4.34375 -5.625 C 4.34375 -6.007812 4.207031 -6.304688 3.9375 -6.515625 C 3.664062 -6.722656 3.347656 -6.828125 2.984375 -6.828125 C 2.335938 -6.828125 1.890625 -6.609375 1.640625 -6.171875 C 1.503906 -5.941406 1.425781 -5.609375 1.40625 -5.171875 L 0.453125 -5.171875 C 0.453125 -5.742188 0.566406 -6.226562 0.796875 -6.625 C 1.191406 -7.34375 1.882812 -7.703125 2.875 -7.703125 C 3.664062 -7.703125 4.273438 -7.523438 4.703125 -7.171875 C 5.128906 -6.828125 5.34375 -6.320312 5.34375 -5.65625 C 5.34375 -5.1875 5.21875 -4.804688 4.96875 -4.515625 C 4.8125 -4.328125 4.601562 -4.179688 4.34375 -4.078125 C 4.75 -3.972656 5.066406 -3.757812 5.296875 -3.4375 C 5.523438 -3.125 5.640625 -2.738281 5.640625 -2.28125 C 5.640625 -1.539062 5.394531 -0.941406 4.90625 -0.484375 C 4.425781 -0.0234375 3.742188 0.203125 2.859375 0.203125 Z M 2.859375 0.203125 "/>
</g>
<g id="glyph-0-11">
<path d="M 4.890625 -3.234375 L 3.6875 -6.71875 L 2.421875 -3.234375 Z M 3.125 -7.890625 L 4.34375 -7.890625 L 7.203125 0 L 6.03125 0 L 5.234375 -2.359375 L 2.109375 -2.359375 L 1.25 0 L 0.15625 0 Z M 3.125 -7.890625 "/>
</g>
<g id="glyph-1-0">
<path d="M 0.28125 0 L 0.28125 -6.3125 L 5.296875 -6.3125 L 5.296875 0 Z M 4.5 -0.796875 L 4.5 -5.515625 L 1.078125 -5.515625 L 1.078125 -0.796875 Z M 4.5 -0.796875 "/>
</g>
<g id="glyph-1-1">
<path d="M 3.046875 -3.640625 C 3.398438 -3.640625 3.679688 -3.691406 3.890625 -3.796875 C 4.203125 -3.953125 4.359375 -4.234375 4.359375 -4.640625 C 4.359375 -5.054688 4.191406 -5.335938 3.859375 -5.484375 C 3.660156 -5.554688 3.378906 -5.59375 3.015625 -5.59375 L 1.484375 -5.59375 L 1.484375 -3.640625 Z M 3.328125 -0.734375 C 3.847656 -0.734375 4.222656 -0.882812 4.453125 -1.1875 C 4.585938 -1.375 4.65625 -1.601562 4.65625 -1.875 C 4.65625 -2.332031 4.453125 -2.644531 4.046875 -2.8125 C 3.828125 -2.90625 3.539062 -2.953125 3.1875 -2.953125 L 1.484375 -2.953125 L 1.484375 -0.734375 Z M 0.65625 -6.3125 L 3.359375 -6.3125 C 4.097656 -6.3125 4.625 -6.085938 4.9375 -5.640625 C 5.113281 -5.378906 5.203125 -5.082031 5.203125 -4.75 C 5.203125 -4.351562 5.09375 -4.023438 4.875 -3.765625 C 4.75 -3.628906 4.578125 -3.503906 4.359375 -3.390625 C 4.679688 -3.273438 4.925781 -3.140625 5.09375 -2.984375 C 5.375 -2.703125 5.515625 -2.320312 5.515625 -1.84375 C 5.515625 -1.4375 5.390625 -1.066406 5.140625 -0.734375 C 4.753906 -0.242188 4.144531 0 3.3125 0 L 0.65625 0 Z M 0.65625 -6.3125 "/>
</g>
<g id="glyph-1-2">
<path d="M 0.359375 -2.84375 L 2.515625 -2.84375 L 2.515625 -2.046875 L 0.359375 -2.046875 Z M 0.359375 -2.84375 "/>
</g>
<g id="glyph-1-3">
<path d="M 0.390625 -1.875 L 0.390625 -2.609375 L 2.265625 -2.609375 L 2.265625 -4.484375 L 3 -4.484375 L 3 -2.609375 L 4.875 -2.609375 L 4.875 -1.875 L 3 -1.875 L 3 0 L 2.265625 0 L 2.265625 -1.875 Z M 0.390625 -1.875 "/>
</g>
<g id="glyph-1-4">
<path d="M 3.90625 -2.578125 L 2.953125 -5.375 L 1.9375 -2.578125 Z M 2.5 -6.3125 L 3.46875 -6.3125 L 5.765625 0 L 4.828125 0 L 4.1875 -1.890625 L 1.6875 -1.890625 L 1 0 L 0.125 0 Z M 2.5 -6.3125 "/>
</g>
<g id="glyph-2-0">
<path d="M 0 -0.359375 L -7.890625 -0.359375 L -7.890625 -6.625 L 0 -6.625 Z M -0.984375 -5.625 L -6.90625 -5.625 L -6.90625 -1.34375 L -0.984375 -1.34375 Z M -0.984375 -5.625 "/>
</g>
<g id="glyph-2-1">
<path d="M -4.5625 -3.796875 C -4.5625 -4.253906 -4.625 -4.609375 -4.75 -4.859375 C -4.9375 -5.253906 -5.289062 -5.453125 -5.8125 -5.453125 C -6.320312 -5.453125 -6.664062 -5.238281 -6.84375 -4.8125 C -6.945312 -4.582031 -7 -4.234375 -7 -3.765625 L -7 -1.859375 L -4.5625 -1.859375 Z M -0.90625 -4.15625 C -0.90625 -4.8125 -1.097656 -5.28125 -1.484375 -5.5625 C -1.722656 -5.738281 -2.015625 -5.828125 -2.359375 -5.828125 C -2.929688 -5.828125 -3.320312 -5.570312 -3.53125 -5.0625 C -3.632812 -4.789062 -3.6875 -4.429688 -3.6875 -3.984375 L -3.6875 -1.859375 L -0.90625 -1.859375 Z M -7.890625 -0.8125 L -7.890625 -4.203125 C -7.890625 -5.128906 -7.613281 -5.785156 -7.0625 -6.171875 C -6.738281 -6.398438 -6.363281 -6.515625 -5.9375 -6.515625 C -5.4375 -6.515625 -5.023438 -6.375 -4.703125 -6.09375 C -4.535156 -5.945312 -4.382812 -5.734375 -4.25 -5.453125 C -4.09375 -5.859375 -3.921875 -6.160156 -3.734375 -6.359375 C -3.390625 -6.710938 -2.910156 -6.890625 -2.296875 -6.890625 C -1.796875 -6.890625 -1.335938 -6.734375 -0.921875 -6.421875 C -0.304688 -5.941406 0 -5.179688 0 -4.140625 L 0 -0.8125 Z M -7.890625 -0.8125 "/>
</g>
</g>
<clipPath id="clip-0">
<path clip-rule="nonzero" d="M 35.152344 5.480469 L 390.523438 5.480469 L 390.523438 218.851562 L 35.152344 218.851562 Z M 35.152344 5.480469 "/>
</clipPath>
<clipPath id="clip-1">
<path clip-rule="nonzero" d="M 35.152344 160 L 390.523438 160 L 390.523438 162 L 35.152344 162 Z M 35.152344 160 "/>
</clipPath>
<clipPath id="clip-2">
<path clip-rule="nonzero" d="M 35.152344 63 L 390.523438 63 L 390.523438 65 L 35.152344 65 Z M 35.152344 63 "/>
</clipPath>
<clipPath id="clip-3">
<path clip-rule="nonzero" d="M 131 5.480469 L 133 5.480469 L 133 218.851562 L 131 218.851562 Z M 131 5.480469 "/>
</clipPath>
<clipPath id="clip-4">
<path clip-rule="nonzero" d="M 293 5.480469 L 295 5.480469 L 295 218.851562 L 293 218.851562 Z M 293 5.480469 "/>
</clipPath>
</defs>
<rect x="-39.6" y="-25.2" width="475.2" height="302.4" fill="rgb(100%, 100%, 100%)" fill-opacity="1"/>
<rect x="-39.6" y="-25.2" width="475.2" height="302.4" fill="rgb(100%, 100%, 100%)" fill-opacity="1"/>
<path fill="none" stroke-width="1.066978" stroke-linecap="round" stroke-linejoin="round" stroke="rgb(100%, 100%, 100%)" stroke-opacity="1" stroke-miterlimit="10" d="M 0 252 L 396 252 L 396 0 L 0 0 Z M 0 252 "/>
<g clip-path="url(#clip-0)">
<path fill-rule="nonzero" fill="rgb(92.156863%, 92.156863%, 92.156863%)" fill-opacity="1" d="M 35.152344 218.847656 L 390.523438 218.847656 L 390.523438 5.476562 L 35.152344 5.476562 Z M 35.152344 218.847656 "/>
</g>
<g clip-path="url(#clip-1)">
<path fill="none" stroke-width="1.066978" stroke-linecap="butt" stroke-linejoin="round" stroke="rgb(100%, 100%, 100%)" stroke-opacity="1" stroke-miterlimit="10" d="M 35.152344 160.65625 L 390.519531 160.65625 "/>
</g>
<g clip-path="url(#clip-2)">
<path fill="none" stroke-width="1.066978" stroke-linecap="butt" stroke-linejoin="round" stroke="rgb(100%, 100%, 100%)" stroke-opacity="1" stroke-miterlimit="10" d="M 35.152344 63.671875 L 390.519531 63.671875 "/>
</g>
<g clip-path="url(#clip-3)">
<path fill="none" stroke-width="1.066978" stroke-linecap="butt" stroke-linejoin="round" stroke="rgb(100%, 100%, 100%)" stroke-opacity="1" stroke-miterlimit="10" d="M 132.070312 218.847656 L 132.070312 5.480469 "/>
</g>
<g clip-path="url(#clip-4)">
<path fill="none" stroke-width="1.066978" stroke-linecap="butt" stroke-linejoin="round" stroke="rgb(100%, 100%, 100%)" stroke-opacity="1" stroke-miterlimit="10" d="M 293.601562 218.847656 L 293.601562 5.480469 "/>
</g>
<path fill-rule="nonzero" fill="rgb(100%, 100%, 100%)" fill-opacity="1" stroke-width="0.533489" stroke-linecap="round" stroke-linejoin="round" stroke="rgb(0%, 0%, 0%)" stroke-opacity="1" stroke-miterlimit="10" d="M 114.75 167.957031 L 149.390625 167.957031 L 149.308594 167.957031 L 149.628906 167.941406 L 149.941406 167.878906 L 150.238281 167.765625 L 150.515625 167.605469 L 150.761719 167.40625 L 150.972656 167.167969 L 151.144531 166.898438 L 151.269531 166.605469 L 151.34375 166.296875 L 151.371094 165.976562 L 151.371094 155.335938 L 151.34375 155.019531 L 151.269531 154.710938 L 151.144531 154.417969 L 150.972656 154.148438 L 150.761719 153.910156 L 150.515625 153.707031 L 150.238281 153.546875 L 149.941406 153.4375 L 149.628906 153.371094 L 149.390625 153.359375 L 114.75 153.359375 L 114.988281 153.371094 L 114.671875 153.359375 L 114.355469 153.398438 L 114.046875 153.484375 L 113.757812 153.621094 L 113.496094 153.804688 L 113.269531 154.023438 L 113.078125 154.277344 L 112.929688 154.5625 L 112.828125 154.863281 L 112.777344 155.179688 L 112.769531 155.335938 L 112.769531 165.976562 L 112.777344 165.816406 L 112.777344 166.136719 L 112.828125 166.453125 L 112.929688 166.753906 L 113.078125 167.035156 L 113.269531 167.289062 L 113.496094 167.511719 L 113.757812 167.691406 L 114.046875 167.828125 L 114.355469 167.917969 L 114.671875 167.957031 Z M 114.75 167.957031 "/>
<g fill="rgb(0%, 0%, 0%)" fill-opacity="1">
<use xlink:href="#glyph-0-1" x="116.070312" y="164.126953"/>
<use xlink:href="#glyph-0-2" x="120.070312" y="164.126953"/>
<use xlink:href="#glyph-0-3" x="126.070312" y="164.126953"/>
<use xlink:href="#glyph-0-4" x="130.070312" y="164.126953"/>
<use xlink:href="#glyph-0-5" x="136.070312" y="164.126953"/>
<use xlink:href="#glyph-0-6" x="142.070312" y="164.126953"/>
</g>
<path fill-rule="nonzero" fill="rgb(100%, 100%, 100%)" fill-opacity="1" stroke-width="0.533489" stroke-linecap="round" stroke-linejoin="round" stroke="rgb(0%, 0%, 0%)" stroke-opacity="1" stroke-miterlimit="10" d="M 280.28125 167.957031 L 306.921875 167.957031 L 306.839844 167.957031 L 307.160156 167.941406 L 307.472656 167.878906 L 307.769531 167.765625 L 308.046875 167.605469 L 308.292969 167.40625 L 308.503906 167.167969 L 308.675781 166.898438 L 308.800781 166.605469 L 308.875 166.296875 L 308.902344 165.976562 L 308.902344 155.335938 L 308.875 155.019531 L 308.800781 154.710938 L 308.675781 154.417969 L 308.503906 154.148438 L 308.292969 153.910156 L 308.046875 153.707031 L 307.769531 153.546875 L 307.472656 153.4375 L 307.160156 153.371094 L 306.921875 153.359375 L 280.28125 153.359375 L 280.519531 153.371094 L 280.203125 153.359375 L 279.886719 153.398438 L 279.578125 153.484375 L 279.292969 153.621094 L 279.027344 153.804688 L 278.800781 154.023438 L 278.609375 154.277344 L 278.460938 154.5625 L 278.359375 154.863281 L 278.308594 155.179688 L 278.300781 155.335938 L 278.300781 165.976562 L 278.308594 165.816406 L 278.308594 166.136719 L 278.359375 166.453125 L 278.460938 166.753906 L 278.609375 167.035156 L 278.800781 167.289062 L 279.027344 167.511719 L 279.292969 167.691406 L 279.578125 167.828125 L 279.886719 167.917969 L 280.203125 167.957031 Z M 280.28125 167.957031 "/>
<g fill="rgb(0%, 0%, 0%)" fill-opacity="1">
<use xlink:href="#glyph-0-7" x="281.601562" y="164.126953"/>
<use xlink:href="#glyph-0-4" x="287.601562" y="164.126953"/>
<use xlink:href="#glyph-0-8" x="293.601562" y="164.126953"/>
<use xlink:href="#glyph-0-6" x="299.601562" y="164.126953"/>
</g>
<path fill-rule="nonzero" fill="rgb(100%, 100%, 100%)" fill-opacity="1" stroke-width="0.533489" stroke-linecap="round" stroke-linejoin="round" stroke="rgb(0%, 0%, 0%)" stroke-opacity="1" stroke-miterlimit="10" d="M 118.75 70.972656 L 145.390625 70.972656 L 145.308594 70.96875 L 145.628906 70.957031 L 145.941406 70.894531 L 146.238281 70.78125 L 146.515625 70.621094 L 146.761719 70.417969 L 146.972656 70.179688 L 147.144531 69.910156 L 147.269531 69.617188 L 147.34375 69.308594 L 147.371094 68.992188 L 147.371094 58.351562 L 147.34375 58.035156 L 147.269531 57.722656 L 147.144531 57.429688 L 146.972656 57.160156 L 146.761719 56.921875 L 146.515625 56.722656 L 146.238281 56.5625 L 145.941406 56.449219 L 145.628906 56.386719 L 145.390625 56.371094 L 118.75 56.371094 L 118.988281 56.386719 L 118.671875 56.371094 L 118.355469 56.410156 L 118.046875 56.5 L 117.757812 56.636719 L 117.496094 56.816406 L 117.269531 57.039062 L 117.078125 57.292969 L 116.929688 57.574219 L 116.828125 57.878906 L 116.777344 58.191406 L 116.769531 58.351562 L 116.769531 68.992188 L 116.777344 68.832031 L 116.777344 69.152344 L 116.828125 69.464844 L 116.929688 69.765625 L 117.078125 70.050781 L 117.269531 70.304688 L 117.496094 70.523438 L 117.757812 70.707031 L 118.046875 70.84375 L 118.355469 70.929688 L 118.671875 70.96875 Z M 118.75 70.972656 "/>
<g fill="rgb(0%, 0%, 0%)" fill-opacity="1">
<use xlink:href="#glyph-0-9" x="120.070312" y="67.142578"/>
<use xlink:href="#glyph-0-4" x="126.070312" y="67.142578"/>
<use xlink:href="#glyph-0-10" x="132.070312" y="67.142578"/>
<use xlink:href="#glyph-0-6" x="138.070312" y="67.142578"/>
</g>
<path fill-rule="nonzero" fill="rgb(100%, 100%, 100%)" fill-opacity="1" stroke-width="0.533489" stroke-linecap="round" stroke-linejoin="round" stroke="rgb(0%, 0%, 0%)" stroke-opacity="1" stroke-miterlimit="10" d="M 277.28125 70.972656 L 309.921875 70.972656 L 309.839844 70.96875 L 310.160156 70.957031 L 310.472656 70.894531 L 310.769531 70.78125 L 311.046875 70.621094 L 311.292969 70.417969 L 311.503906 70.179688 L 311.675781 69.910156 L 311.800781 69.617188 L 311.875 69.308594 L 311.902344 68.992188 L 311.902344 58.351562 L 311.875 58.035156 L 311.800781 57.722656 L 311.675781 57.429688 L 311.503906 57.160156 L 311.292969 56.921875 L 311.046875 56.722656 L 310.769531 56.5625 L 310.472656 56.449219 L 310.160156 56.386719 L 309.921875 56.371094 L 277.28125 56.371094 L 277.519531 56.386719 L 277.203125 56.371094 L 276.886719 56.410156 L 276.578125 56.5 L 276.292969 56.636719 L 276.027344 56.816406 L 275.800781 57.039062 L 275.609375 57.292969 L 275.460938 57.574219 L 275.359375 57.878906 L 275.308594 58.191406 L 275.300781 58.351562 L 275.300781 68.992188 L 275.308594 68.832031 L 275.308594 69.152344 L 275.359375 69.464844 L 275.460938 69.765625 L 275.609375 70.050781 L 275.800781 70.304688 L 276.027344 70.523438 L 276.292969 70.707031 L 276.578125 70.84375 L 276.886719 70.929688 L 277.203125 70.96875 Z M 277.28125 70.972656 "/>
<g fill="rgb(0%, 0%, 0%)" fill-opacity="1">
<use xlink:href="#glyph-0-7" x="278.601562" y="67.142578"/>
<use xlink:href="#glyph-0-9" x="284.601562" y="67.142578"/>
<use xlink:href="#glyph-0-4" x="290.601562" y="67.142578"/>
<use xlink:href="#glyph-0-2" x="296.601562" y="67.142578"/>
<use xlink:href="#glyph-0-5" x="302.601562" y="67.142578"/>
</g>
<g fill="rgb(30.196078%, 30.196078%, 30.196078%)" fill-opacity="1">
<use xlink:href="#glyph-1-1" x="21.21875" y="163.932617"/>
<use xlink:href="#glyph-1-2" x="27.21875" y="163.932617"/>
</g>
<g fill="rgb(30.196078%, 30.196078%, 30.196078%)" fill-opacity="1">
<use xlink:href="#glyph-1-1" x="19.21875" y="66.948242"/>
<use xlink:href="#glyph-1-3" x="25.21875" y="66.948242"/>
</g>
<path fill="none" stroke-width="1.066978" stroke-linecap="butt" stroke-linejoin="round" stroke="rgb(20%, 20%, 20%)" stroke-opacity="1" stroke-miterlimit="10" d="M 32.410156 160.65625 L 35.152344 160.65625 "/>
<path fill="none" stroke-width="1.066978" stroke-linecap="butt" stroke-linejoin="round" stroke="rgb(20%, 20%, 20%)" stroke-opacity="1" stroke-miterlimit="10" d="M 32.410156 63.671875 L 35.152344 63.671875 "/>
<path fill="none" stroke-width="1.066978" stroke-linecap="butt" stroke-linejoin="round" stroke="rgb(20%, 20%, 20%)" stroke-opacity="1" stroke-miterlimit="10" d="M 132.070312 221.589844 L 132.070312 218.847656 "/>
<path fill="none" stroke-width="1.066978" stroke-linecap="butt" stroke-linejoin="round" stroke="rgb(20%, 20%, 20%)" stroke-opacity="1" stroke-miterlimit="10" d="M 293.601562 221.589844 L 293.601562 218.847656 "/>
<g fill="rgb(30.196078%, 30.196078%, 30.196078%)" fill-opacity="1">
<use xlink:href="#glyph-1-4" x="127.570312" y="230.557617"/>
<use xlink:href="#glyph-1-2" x="133.570312" y="230.557617"/>
</g>
<g fill="rgb(30.196078%, 30.196078%, 30.196078%)" fill-opacity="1">
<use xlink:href="#glyph-1-4" x="288.101562" y="230.557617"/>
<use xlink:href="#glyph-1-3" x="294.101562" y="230.557617"/>
</g>
<g fill="rgb(0%, 0%, 0%)" fill-opacity="1">
<use xlink:href="#glyph-0-11" x="209.335938" y="242.990234"/>
</g>
<g fill="rgb(0%, 0%, 0%)" fill-opacity="1">
<use xlink:href="#glyph-2-1" x="12.951172" y="115.664062"/>
</g>
</svg>
