<?xml version="1.0" encoding="UTF-8"?>
<svg xmlns="http://www.w3.org/2000/svg" xmlns:xlink="http://www.w3.org/1999/xlink" width="396pt" height="216pt" viewBox="0 0 396 216">
<defs>
<g>
<g id="glyph-0-0">
<path d="M 0.28125 0 L 0.28125 -6.3125 L 5.296875 -6.3125 L 5.296875 0 Z M 4.5 -0.796875 L 4.5 -5.515625 L 1.078125 -5.515625 L 1.078125 -0.796875 Z M 4.5 -0.796875 "/>
</g>
<g id="glyph-0-1">
<path d="M 2.375 -6.15625 C 3.175781 -6.15625 3.753906 -5.828125 4.109375 -5.171875 C 4.378906 -4.660156 4.515625 -3.960938 4.515625 -3.078125 C 4.515625 -2.242188 4.390625 -1.554688 4.140625 -1.015625 C 3.785156 -0.222656 3.195312 0.171875 2.375 0.171875 C 1.632812 0.171875 1.082031 -0.148438 0.71875 -0.796875 C 0.425781 -1.328125 0.28125 -2.046875 0.28125 -2.953125 C 0.28125 -3.648438 0.367188 -4.25 0.546875 -4.75 C 0.878906 -5.6875 1.488281 -6.15625 2.375 -6.15625 Z M 2.375 -0.53125 C 2.769531 -0.53125 3.085938 -0.707031 3.328125 -1.0625 C 3.566406 -1.425781 3.6875 -2.085938 3.6875 -3.046875 C 3.6875 -3.753906 3.597656 -4.332031 3.421875 -4.78125 C 3.253906 -5.226562 2.921875 -5.453125 2.421875 -5.453125 C 1.972656 -5.453125 1.640625 -5.238281 1.421875 -4.8125 C 1.210938 -4.382812 1.109375 -3.753906 1.109375 -2.921875 C 1.109375 -2.296875 1.175781 -1.789062 1.3125 -1.40625 C 1.519531 -0.820312 1.875 -0.53125 2.375 -0.53125 Z M 2.375 -0.53125 "/>
</g>
<g id="glyph-0-2">
<path d="M 0.84375 -4.359375 L 0.84375 -4.953125 C 1.394531 -5.003906 1.78125 -5.09375 2 -5.21875 C 2.226562 -5.34375 2.394531 -5.644531 2.5 -6.125 L 3.109375 -6.125 L 3.109375 0 L 2.296875 0 L 2.296875 -4.359375 Z M 0.84375 -4.359375 "/>
</g>
<g id="glyph-0-3">
<path d="M 0.28125 0 C 0.300781 -0.53125 0.40625 -0.988281 0.59375 -1.375 C 0.789062 -1.769531 1.164062 -2.128906 1.71875 -2.453125 L 2.546875 -2.921875 C 2.910156 -3.140625 3.164062 -3.328125 3.3125 -3.484375 C 3.550781 -3.710938 3.671875 -3.984375 3.671875 -4.296875 C 3.671875 -4.648438 3.5625 -4.929688 3.34375 -5.140625 C 3.132812 -5.359375 2.847656 -5.46875 2.484375 -5.46875 C 1.960938 -5.46875 1.597656 -5.265625 1.390625 -4.859375 C 1.285156 -4.648438 1.226562 -4.351562 1.21875 -3.96875 L 0.421875 -3.96875 C 0.429688 -4.5 0.53125 -4.9375 0.71875 -5.28125 C 1.050781 -5.875 1.644531 -6.171875 2.5 -6.171875 C 3.195312 -6.171875 3.707031 -5.976562 4.03125 -5.59375 C 4.363281 -5.21875 4.53125 -4.796875 4.53125 -4.328125 C 4.53125 -3.835938 4.351562 -3.414062 4 -3.0625 C 3.800781 -2.863281 3.441406 -2.617188 2.921875 -2.328125 L 2.34375 -2 C 2.0625 -1.84375 1.835938 -1.695312 1.671875 -1.5625 C 1.390625 -1.3125 1.210938 -1.035156 1.140625 -0.734375 L 4.5 -0.734375 L 4.5 0 Z M 0.28125 0 "/>
</g>
<g id="glyph-0-4">
<path d="M 2.28125 0.171875 C 1.550781 0.171875 1.019531 -0.0234375 0.6875 -0.421875 C 0.363281 -0.828125 0.203125 -1.316406 0.203125 -1.890625 L 1.015625 -1.890625 C 1.046875 -1.492188 1.117188 -1.203125 1.234375 -1.015625 C 1.441406 -0.691406 1.804688 -0.53125 2.328125 -0.53125 C 2.734375 -0.53125 3.054688 -0.640625 3.296875 -0.859375 C 3.546875 -1.078125 3.671875 -1.359375 3.671875 -1.703125 C 3.671875 -2.128906 3.539062 -2.425781 3.28125 -2.59375 C 3.03125 -2.757812 2.671875 -2.84375 2.203125 -2.84375 C 2.148438 -2.84375 2.097656 -2.84375 2.046875 -2.84375 C 1.992188 -2.84375 1.941406 -2.84375 1.890625 -2.84375 L 1.890625 -3.515625 C 1.972656 -3.515625 2.039062 -3.507812 2.09375 -3.5 C 2.144531 -3.5 2.203125 -3.5 2.265625 -3.5 C 2.554688 -3.5 2.796875 -3.546875 2.984375 -3.640625 C 3.304688 -3.796875 3.46875 -4.082031 3.46875 -4.5 C 3.46875 -4.800781 3.359375 -5.035156 3.140625 -5.203125 C 2.921875 -5.367188 2.671875 -5.453125 2.390625 -5.453125 C 1.867188 -5.453125 1.507812 -5.28125 1.3125 -4.9375 C 1.207031 -4.75 1.144531 -4.476562 1.125 -4.125 L 0.359375 -4.125 C 0.359375 -4.582031 0.453125 -4.972656 0.640625 -5.296875 C 0.953125 -5.867188 1.503906 -6.15625 2.296875 -6.15625 C 2.929688 -6.15625 3.421875 -6.015625 3.765625 -5.734375 C 4.109375 -5.460938 4.28125 -5.0625 4.28125 -4.53125 C 4.28125 -4.144531 4.175781 -3.835938 3.96875 -3.609375 C 3.84375 -3.460938 3.679688 -3.347656 3.484375 -3.265625 C 3.804688 -3.171875 4.054688 -3 4.234375 -2.75 C 4.421875 -2.5 4.515625 -2.191406 4.515625 -1.828125 C 4.515625 -1.234375 4.316406 -0.75 3.921875 -0.375 C 3.535156 -0.0078125 2.988281 0.171875 2.28125 0.171875 Z M 2.28125 0.171875 "/>
</g>
<g id="glyph-0-5">
<path d="M 2.90625 -2.171875 L 2.90625 -4.96875 L 0.9375 -2.171875 Z M 2.921875 0 L 2.921875 -1.5 L 0.21875 -1.5 L 0.21875 -2.265625 L 3.046875 -6.171875 L 3.6875 -6.171875 L 3.6875 -2.171875 L 4.59375 -2.171875 L 4.59375 -1.5 L 3.6875 -1.5 L 3.6875 0 Z M 2.921875 0 "/>
</g>
<g id="glyph-0-6">
<path d="M 0.75 -0.9375 L 1.65625 -0.9375 L 1.65625 0 L 0.75 0 Z M 0.75 -0.9375 "/>
</g>
<g id="glyph-0-7">
<path d="M 1.09375 -1.5625 C 1.132812 -1.125 1.335938 -0.820312 1.703125 -0.65625 C 1.878906 -0.570312 2.09375 -0.53125 2.34375 -0.53125 C 2.800781 -0.53125 3.140625 -0.675781 3.359375 -0.96875 C 3.578125 -1.257812 3.6875 -1.582031 3.6875 -1.9375 C 3.6875 -2.363281 3.554688 -2.691406 3.296875 -2.921875 C 3.035156 -3.160156 2.71875 -3.28125 2.34375 -3.28125 C 2.082031 -3.28125 1.851562 -3.226562 1.65625 -3.125 C 1.46875 -3.019531 1.304688 -2.878906 1.171875 -2.703125 L 0.5 -2.734375 L 0.96875 -6.046875 L 4.171875 -6.046875 L 4.171875 -5.296875 L 1.5625 -5.296875 L 1.296875 -3.59375 C 1.429688 -3.695312 1.566406 -3.773438 1.703125 -3.828125 C 1.929688 -3.929688 2.195312 -3.984375 2.5 -3.984375 C 3.0625 -3.984375 3.535156 -3.800781 3.921875 -3.4375 C 4.316406 -3.070312 4.515625 -2.609375 4.515625 -2.046875 C 4.515625 -1.460938 4.332031 -0.945312 3.96875 -0.5 C 3.613281 -0.0625 3.046875 0.15625 2.265625 0.15625 C 1.753906 0.15625 1.304688 0.0117188 0.921875 -0.265625 C 0.546875 -0.546875 0.332031 -0.976562 0.28125 -1.5625 Z M 1.09375 -1.5625 "/>
</g>
<g id="glyph-0-8">
<path d="M 4.59375 -6.046875 L 4.59375 -5.375 C 4.394531 -5.175781 4.128906 -4.835938 3.796875 -4.359375 C 3.472656 -3.890625 3.1875 -3.378906 2.9375 -2.828125 C 2.6875 -2.296875 2.5 -1.8125 2.375 -1.375 C 2.289062 -1.082031 2.179688 -0.625 2.046875 0 L 1.203125 0 C 1.390625 -1.175781 1.816406 -2.34375 2.484375 -3.5 C 2.878906 -4.1875 3.289062 -4.773438 3.71875 -5.265625 L 0.328125 -5.265625 L 0.328125 -6.046875 Z M 4.59375 -6.046875 "/>
</g>
<g id="glyph-1-0">
<path d="M 0.359375 0 L 0.359375 -7.890625 L 6.625 -7.890625 L 6.625 0 Z M 5.625 -0.984375 L 5.625 -6.90625 L 1.34375 -6.90625 L 1.34375 -0.984375 Z M 5.625 -0.984375 "/>
</g>
<g id="glyph-1-1">
<path d="M 0.90625 -7.359375 L 1.875 -7.359375 L 1.875 -5.75 L 2.796875 -5.75 L 2.796875 -4.96875 L 1.875 -4.96875 L 1.875 -1.203125 C 1.875 -1.003906 1.941406 -0.875 2.078125 -0.8125 C 2.160156 -0.769531 2.285156 -0.75 2.453125 -0.75 C 2.503906 -0.75 2.554688 -0.75 2.609375 -0.75 C 2.660156 -0.75 2.722656 -0.753906 2.796875 -0.765625 L 2.796875 0 C 2.679688 0.03125 2.5625 0.0507812 2.4375 0.0625 C 2.320312 0.0820312 2.195312 0.09375 2.0625 0.09375 C 1.613281 0.09375 1.304688 -0.0195312 1.140625 -0.25 C 0.984375 -0.488281 0.90625 -0.789062 0.90625 -1.15625 L 0.90625 -4.96875 L 0.125 -4.96875 L 0.125 -5.75 L 0.90625 -5.75 Z M 0.90625 -7.359375 "/>
</g>
<g id="glyph-1-2">
<path d="M 3.109375 -5.875 C 3.515625 -5.875 3.90625 -5.78125 4.28125 -5.59375 C 4.664062 -5.40625 4.960938 -5.15625 5.171875 -4.84375 C 5.359375 -4.5625 5.484375 -4.222656 5.546875 -3.828125 C 5.609375 -3.566406 5.640625 -3.144531 5.640625 -2.5625 L 1.421875 -2.5625 C 1.441406 -1.976562 1.578125 -1.507812 1.828125 -1.15625 C 2.085938 -0.8125 2.488281 -0.640625 3.03125 -0.640625 C 3.539062 -0.640625 3.945312 -0.804688 4.25 -1.140625 C 4.414062 -1.328125 4.535156 -1.550781 4.609375 -1.8125 L 5.5625 -1.8125 C 5.53125 -1.59375 5.441406 -1.351562 5.296875 -1.09375 C 5.160156 -0.832031 5.003906 -0.625 4.828125 -0.46875 C 4.535156 -0.175781 4.175781 0.0195312 3.75 0.125 C 3.507812 0.175781 3.242188 0.203125 2.953125 0.203125 C 2.234375 0.203125 1.625 -0.0546875 1.125 -0.578125 C 0.632812 -1.097656 0.390625 -1.828125 0.390625 -2.765625 C 0.390625 -3.691406 0.640625 -4.441406 1.140625 -5.015625 C 1.640625 -5.585938 2.296875 -5.875 3.109375 -5.875 Z M 4.640625 -3.328125 C 4.609375 -3.753906 4.519531 -4.09375 4.375 -4.34375 C 4.101562 -4.800781 3.660156 -5.03125 3.046875 -5.03125 C 2.597656 -5.03125 2.222656 -4.867188 1.921875 -4.546875 C 1.628906 -4.234375 1.472656 -3.828125 1.453125 -3.328125 Z M 3.015625 -5.890625 Z M 3.015625 -5.890625 "/>
</g>
<g id="glyph-1-3">
<path d="M 0.703125 -5.75 L 1.671875 -5.75 L 1.671875 -4.9375 C 1.898438 -5.21875 2.101562 -5.421875 2.28125 -5.546875 C 2.601562 -5.765625 2.96875 -5.875 3.375 -5.875 C 3.832031 -5.875 4.203125 -5.765625 4.484375 -5.546875 C 4.640625 -5.410156 4.78125 -5.21875 4.90625 -4.96875 C 5.125 -5.28125 5.378906 -5.507812 5.671875 -5.65625 C 5.960938 -5.800781 6.285156 -5.875 6.640625 -5.875 C 7.410156 -5.875 7.9375 -5.597656 8.21875 -5.046875 C 8.375 -4.742188 8.453125 -4.335938 8.453125 -3.828125 L 8.453125 0 L 7.4375 0 L 7.4375 -4 C 7.4375 -4.382812 7.34375 -4.644531 7.15625 -4.78125 C 6.96875 -4.925781 6.734375 -5 6.453125 -5 C 6.078125 -5 5.75 -4.867188 5.46875 -4.609375 C 5.195312 -4.359375 5.0625 -3.9375 5.0625 -3.34375 L 5.0625 0 L 4.078125 0 L 4.078125 -3.75 C 4.078125 -4.144531 4.03125 -4.429688 3.9375 -4.609375 C 3.789062 -4.878906 3.519531 -5.015625 3.125 -5.015625 C 2.757812 -5.015625 2.425781 -4.867188 2.125 -4.578125 C 1.820312 -4.296875 1.671875 -3.785156 1.671875 -3.046875 L 1.671875 0 L 0.703125 0 Z M 0.703125 -5.75 "/>
</g>
<g id="glyph-1-4">
<path d="M 3.140625 -0.65625 C 3.585938 -0.65625 3.957031 -0.84375 4.25 -1.21875 C 4.550781 -1.59375 4.703125 -2.15625 4.703125 -2.90625 C 4.703125 -3.363281 4.640625 -3.757812 4.515625 -4.09375 C 4.265625 -4.726562 3.804688 -5.046875 3.140625 -5.046875 C 2.460938 -5.046875 2.003906 -4.710938 1.765625 -4.046875 C 1.628906 -3.679688 1.5625 -3.222656 1.5625 -2.671875 C 1.5625 -2.234375 1.628906 -1.859375 1.765625 -1.546875 C 2.015625 -0.953125 2.472656 -0.65625 3.140625 -0.65625 Z M 0.640625 -5.71875 L 1.578125 -5.71875 L 1.578125 -4.96875 C 1.765625 -5.226562 1.972656 -5.425781 2.203125 -5.5625 C 2.535156 -5.78125 2.921875 -5.890625 3.359375 -5.890625 C 4.003906 -5.890625 4.554688 -5.640625 5.015625 -5.140625 C 5.472656 -4.640625 5.703125 -3.925781 5.703125 -3 C 5.703125 -1.75 5.375 -0.851562 4.71875 -0.3125 C 4.300781 0.0195312 3.816406 0.1875 3.265625 0.1875 C 2.828125 0.1875 2.460938 0.0898438 2.171875 -0.09375 C 2.003906 -0.195312 1.8125 -0.378906 1.59375 -0.640625 L 1.59375 2.296875 L 0.640625 2.296875 Z M 0.640625 -5.71875 "/>
</g>
<g id="glyph-1-5">
<path d="M 2.984375 -0.625 C 3.628906 -0.625 4.070312 -0.863281 4.3125 -1.34375 C 4.550781 -1.832031 4.671875 -2.375 4.671875 -2.96875 C 4.671875 -3.507812 4.582031 -3.945312 4.40625 -4.28125 C 4.132812 -4.8125 3.664062 -5.078125 3 -5.078125 C 2.40625 -5.078125 1.972656 -4.847656 1.703125 -4.390625 C 1.441406 -3.941406 1.3125 -3.398438 1.3125 -2.765625 C 1.3125 -2.148438 1.441406 -1.640625 1.703125 -1.234375 C 1.972656 -0.828125 2.398438 -0.625 2.984375 -0.625 Z M 3.03125 -5.921875 C 3.769531 -5.921875 4.394531 -5.671875 4.90625 -5.171875 C 5.414062 -4.679688 5.671875 -3.957031 5.671875 -3 C 5.671875 -2.070312 5.445312 -1.304688 5 -0.703125 C 4.550781 -0.0976562 3.851562 0.203125 2.90625 0.203125 C 2.113281 0.203125 1.484375 -0.0625 1.015625 -0.59375 C 0.546875 -1.125 0.3125 -1.84375 0.3125 -2.75 C 0.3125 -3.71875 0.554688 -4.488281 1.046875 -5.0625 C 1.535156 -5.632812 2.195312 -5.921875 3.03125 -5.921875 Z M 3 -5.890625 Z M 3 -5.890625 "/>
</g>
<g id="glyph-1-6">
</g>
<g id="glyph-1-7">
<path d="M 3.25 -8.015625 C 2.6875 -6.921875 2.320312 -6.117188 2.15625 -5.609375 C 1.90625 -4.828125 1.78125 -3.921875 1.78125 -2.890625 C 1.78125 -1.847656 1.925781 -0.898438 2.21875 -0.046875 C 2.394531 0.480469 2.742188 1.25 3.265625 2.25 L 2.625 2.25 C 2.101562 1.425781 1.78125 0.898438 1.65625 0.671875 C 1.53125 0.453125 1.390625 0.148438 1.234375 -0.234375 C 1.035156 -0.765625 0.898438 -1.332031 0.828125 -1.9375 C 0.785156 -2.25 0.765625 -2.546875 0.765625 -2.828125 C 0.765625 -3.890625 0.929688 -4.832031 1.265625 -5.65625 C 1.472656 -6.1875 1.910156 -6.972656 2.578125 -8.015625 Z M 3.25 -8.015625 "/>
</g>
<g id="glyph-1-8">
<path d="M 1.28125 -1.8125 C 1.3125 -1.488281 1.394531 -1.238281 1.53125 -1.0625 C 1.769531 -0.75 2.191406 -0.59375 2.796875 -0.59375 C 3.148438 -0.59375 3.460938 -0.671875 3.734375 -0.828125 C 4.003906 -0.984375 4.140625 -1.222656 4.140625 -1.546875 C 4.140625 -1.796875 4.03125 -1.984375 3.8125 -2.109375 C 3.675781 -2.191406 3.398438 -2.285156 2.984375 -2.390625 L 2.21875 -2.578125 C 1.726562 -2.703125 1.367188 -2.835938 1.140625 -2.984375 C 0.722656 -3.253906 0.515625 -3.617188 0.515625 -4.078125 C 0.515625 -4.617188 0.707031 -5.054688 1.09375 -5.390625 C 1.488281 -5.734375 2.019531 -5.90625 2.6875 -5.90625 C 3.550781 -5.90625 4.175781 -5.648438 4.5625 -5.140625 C 4.800781 -4.816406 4.914062 -4.46875 4.90625 -4.09375 L 4 -4.09375 C 3.976562 -4.3125 3.898438 -4.507812 3.765625 -4.6875 C 3.546875 -4.945312 3.160156 -5.078125 2.609375 -5.078125 C 2.242188 -5.078125 1.96875 -5.003906 1.78125 -4.859375 C 1.59375 -4.722656 1.5 -4.539062 1.5 -4.3125 C 1.5 -4.0625 1.625 -3.863281 1.875 -3.71875 C 2.007812 -3.625 2.21875 -3.539062 2.5 -3.46875 L 3.140625 -3.3125 C 3.835938 -3.144531 4.300781 -2.984375 4.53125 -2.828125 C 4.914062 -2.578125 5.109375 -2.191406 5.109375 -1.671875 C 5.109375 -1.148438 4.910156 -0.703125 4.515625 -0.328125 C 4.128906 0.0351562 3.539062 0.21875 2.75 0.21875 C 1.894531 0.21875 1.285156 0.0234375 0.921875 -0.359375 C 0.566406 -0.753906 0.378906 -1.238281 0.359375 -1.8125 Z M 2.71875 -5.890625 Z M 2.71875 -5.890625 "/>
</g>
<g id="glyph-1-9">
<path d="M 0.375 2.25 C 0.945312 1.132812 1.316406 0.320312 1.484375 -0.1875 C 1.734375 -0.957031 1.859375 -1.859375 1.859375 -2.890625 C 1.859375 -3.921875 1.710938 -4.867188 1.421875 -5.734375 C 1.242188 -6.265625 0.890625 -7.023438 0.359375 -8.015625 L 1.015625 -8.015625 C 1.566406 -7.140625 1.898438 -6.597656 2.015625 -6.390625 C 2.128906 -6.179688 2.253906 -5.894531 2.390625 -5.53125 C 2.566406 -5.082031 2.691406 -4.640625 2.765625 -4.203125 C 2.835938 -3.773438 2.875 -3.359375 2.875 -2.953125 C 2.875 -1.890625 2.707031 -0.941406 2.375 -0.109375 C 2.15625 0.417969 1.710938 1.207031 1.046875 2.25 Z M 0.375 2.25 "/>
</g>
<g id="glyph-2-0">
<path d="M 0 -0.359375 L -7.890625 -0.359375 L -7.890625 -6.625 L 0 -6.625 Z M -0.984375 -5.625 L -6.90625 -5.625 L -6.90625 -1.34375 L -0.984375 -1.34375 Z M -0.984375 -5.625 "/>
</g>
<g id="glyph-2-1">
<path d="M -7.359375 -0.90625 L -7.359375 -1.875 L -5.75 -1.875 L -5.75 -2.796875 L -4.96875 -2.796875 L -4.96875 -1.875 L -1.203125 -1.875 C -1.003906 -1.875 -0.875 -1.941406 -0.8125 -2.078125 C -0.769531 -2.160156 -0.75 -2.285156 -0.75 -2.453125 C -0.75 -2.503906 -0.75 -2.554688 -0.75 -2.609375 C -0.75 -2.660156 -0.753906 -2.722656 -0.765625 -2.796875 L 0 -2.796875 C 0.03125 -2.679688 0.0507812 -2.5625 0.0625 -2.4375 C 0.0820312 -2.320312 0.09375 -2.195312 0.09375 -2.0625 C 0.09375 -1.613281 -0.0195312 -1.304688 -0.25 -1.140625 C -0.488281 -0.984375 -0.789062 -0.90625 -1.15625 -0.90625 L -4.96875 -0.90625 L -4.96875 -0.125 L -5.75 -0.125 L -5.75 -0.90625 Z M -7.359375 -0.90625 "/>
</g>
<g id="glyph-2-2">
<path d="M -5.875 -3.109375 C -5.875 -3.515625 -5.78125 -3.90625 -5.59375 -4.28125 C -5.40625 -4.664062 -5.15625 -4.960938 -4.84375 -5.171875 C -4.5625 -5.359375 -4.222656 -5.484375 -3.828125 -5.546875 C -3.566406 -5.609375 -3.144531 -5.640625 -2.5625 -5.640625 L -2.5625 -1.421875 C -1.976562 -1.441406 -1.507812 -1.578125 -1.15625 -1.828125 C -0.8125 -2.085938 -0.640625 -2.488281 -0.640625 -3.03125 C -0.640625 -3.539062 -0.804688 -3.945312 -1.140625 -4.25 C -1.328125 -4.414062 -1.550781 -4.535156 -1.8125 -4.609375 L -1.8125 -5.5625 C -1.59375 -5.53125 -1.351562 -5.441406 -1.09375 -5.296875 C -0.832031 -5.160156 -0.625 -5.003906 -0.46875 -4.828125 C -0.175781 -4.535156 0.0195312 -4.175781 0.125 -3.75 C 0.175781 -3.507812 0.203125 -3.242188 0.203125 -2.953125 C 0.203125 -2.234375 -0.0546875 -1.625 -0.578125 -1.125 C -1.097656 -0.632812 -1.828125 -0.390625 -2.765625 -0.390625 C -3.691406 -0.390625 -4.441406 -0.640625 -5.015625 -1.140625 C -5.585938 -1.640625 -5.875 -2.296875 -5.875 -3.109375 Z M -3.328125 -4.640625 C -3.753906 -4.609375 -4.09375 -4.519531 -4.34375 -4.375 C -4.800781 -4.101562 -5.03125 -3.660156 -5.03125 -3.046875 C -5.03125 -2.597656 -4.867188 -2.222656 -4.546875 -1.921875 C -4.234375 -1.628906 -3.828125 -1.472656 -3.328125 -1.453125 Z M -5.890625 -3.015625 Z M -5.890625 -3.015625 "/>
</g>
<g id="glyph-2-3">
<path d="M -5.75 -0.703125 L -5.75 -1.625 L -4.9375 -1.625 C -5.269531 -1.894531 -5.507812 -2.179688 -5.65625 -2.484375 C -5.800781 -2.796875 -5.875 -3.132812 -5.875 -3.5 C -5.875 -4.320312 -5.59375 -4.875 -5.03125 -5.15625 C -4.71875 -5.3125 -4.269531 -5.390625 -3.6875 -5.390625 L 0 -5.390625 L 0 -4.421875 L -3.625 -4.421875 C -3.976562 -4.421875 -4.257812 -4.367188 -4.46875 -4.265625 C -4.832031 -4.085938 -5.015625 -3.773438 -5.015625 -3.328125 C -5.015625 -3.097656 -4.988281 -2.910156 -4.9375 -2.765625 C -4.863281 -2.492188 -4.707031 -2.257812 -4.46875 -2.0625 C -4.28125 -1.90625 -4.082031 -1.800781 -3.875 -1.75 C -3.675781 -1.695312 -3.390625 -1.671875 -3.015625 -1.671875 L 0 -1.671875 L 0 -0.703125 Z M -5.890625 -2.984375 Z M -5.890625 -2.984375 "/>
</g>
<g id="glyph-2-4">
<path d="M -1.8125 -1.28125 C -1.488281 -1.3125 -1.238281 -1.394531 -1.0625 -1.53125 C -0.75 -1.769531 -0.59375 -2.191406 -0.59375 -2.796875 C -0.59375 -3.148438 -0.671875 -3.460938 -0.828125 -3.734375 C -0.984375 -4.003906 -1.222656 -4.140625 -1.546875 -4.140625 C -1.796875 -4.140625 -1.984375 -4.03125 -2.109375 -3.8125 C -2.191406 -3.675781 -2.285156 -3.398438 -2.390625 -2.984375 L -2.578125 -2.21875 C -2.703125 -1.726562 -2.835938 -1.367188 -2.984375 -1.140625 C -3.253906 -0.722656 -3.617188 -0.515625 -4.078125 -0.515625 C -4.617188 -0.515625 -5.054688 -0.707031 -5.390625 -1.09375 C -5.734375 -1.488281 -5.90625 -2.019531 -5.90625 -2.6875 C -5.90625 -3.550781 -5.648438 -4.175781 -5.140625 -4.5625 C -4.816406 -4.800781 -4.46875 -4.914062 -4.09375 -4.90625 L -4.09375 -4 C -4.3125 -3.976562 -4.507812 -3.898438 -4.6875 -3.765625 C -4.945312 -3.546875 -5.078125 -3.160156 -5.078125 -2.609375 C -5.078125 -2.242188 -5.003906 -1.96875 -4.859375 -1.78125 C -4.722656 -1.59375 -4.539062 -1.5 -4.3125 -1.5 C -4.0625 -1.5 -3.863281 -1.625 -3.71875 -1.875 C -3.625 -2.007812 -3.539062 -2.21875 -3.46875 -2.5 L -3.3125 -3.140625 C -3.144531 -3.835938 -2.984375 -4.300781 -2.828125 -4.53125 C -2.578125 -4.914062 -2.191406 -5.109375 -1.671875 -5.109375 C -1.148438 -5.109375 -0.703125 -4.910156 -0.328125 -4.515625 C 0.0351562 -4.128906 0.21875 -3.539062 0.21875 -2.75 C 0.21875 -1.894531 0.0234375 -1.285156 -0.359375 -0.921875 C -0.753906 -0.566406 -1.238281 -0.378906 -1.8125 -0.359375 Z M -5.890625 -2.71875 Z M -5.890625 -2.71875 "/>
</g>
<g id="glyph-2-5">
<path d="M -5.71875 -0.703125 L -5.71875 -1.6875 L 0 -1.6875 L 0 -0.703125 Z M -7.890625 -0.703125 L -7.890625 -1.6875 L -6.796875 -1.6875 L -6.796875 -0.703125 Z M -7.890625 -0.703125 "/>
</g>
<g id="glyph-2-6">
<path d="M -0.625 -2.984375 C -0.625 -3.628906 -0.863281 -4.070312 -1.34375 -4.3125 C -1.832031 -4.550781 -2.375 -4.671875 -2.96875 -4.671875 C -3.507812 -4.671875 -3.945312 -4.582031 -4.28125 -4.40625 C -4.8125 -4.132812 -5.078125 -3.664062 -5.078125 -3 C -5.078125 -2.40625 -4.847656 -1.972656 -4.390625 -1.703125 C -3.941406 -1.441406 -3.398438 -1.3125 -2.765625 -1.3125 C -2.148438 -1.3125 -1.640625 -1.441406 -1.234375 -1.703125 C -0.828125 -1.972656 -0.625 -2.398438 -0.625 -2.984375 Z M -5.921875 -3.03125 C -5.921875 -3.769531 -5.671875 -4.394531 -5.171875 -4.90625 C -4.679688 -5.414062 -3.957031 -5.671875 -3 -5.671875 C -2.070312 -5.671875 -1.304688 -5.445312 -0.703125 -5 C -0.0976562 -4.550781 0.203125 -3.851562 0.203125 -2.90625 C 0.203125 -2.113281 -0.0625 -1.484375 -0.59375 -1.015625 C -1.125 -0.546875 -1.84375 -0.3125 -2.75 -0.3125 C -3.71875 -0.3125 -4.488281 -0.554688 -5.0625 -1.046875 C -5.632812 -1.535156 -5.921875 -2.195312 -5.921875 -3.03125 Z M -5.890625 -3 Z M -5.890625 -3 "/>
</g>
<g id="glyph-2-7">
</g>
<g id="glyph-2-8">
<path d="M -8.015625 -3.25 C -6.921875 -2.6875 -6.117188 -2.320312 -5.609375 -2.15625 C -4.828125 -1.90625 -3.921875 -1.78125 -2.890625 -1.78125 C -1.847656 -1.78125 -0.898438 -1.925781 -0.046875 -2.21875 C 0.480469 -2.394531 1.25 -2.742188 2.25 -3.265625 L 2.25 -2.625 C 1.425781 -2.101562 0.898438 -1.78125 0.671875 -1.65625 C 0.453125 -1.53125 0.148438 -1.390625 -0.234375 -1.234375 C -0.765625 -1.035156 -1.332031 -0.898438 -1.9375 -0.828125 C -2.25 -0.785156 -2.546875 -0.765625 -2.828125 -0.765625 C -3.890625 -0.765625 -4.832031 -0.929688 -5.65625 -1.265625 C -6.1875 -1.472656 -6.972656 -1.910156 -8.015625 -2.578125 Z M -8.015625 -3.25 "/>
</g>
<g id="glyph-2-9">
<path d="M -5.75 -0.703125 L -5.75 -1.671875 L -4.9375 -1.671875 C -5.21875 -1.898438 -5.421875 -2.101562 -5.546875 -2.28125 C -5.765625 -2.601562 -5.875 -2.96875 -5.875 -3.375 C -5.875 -3.832031 -5.765625 -4.203125 -5.546875 -4.484375 C -5.410156 -4.640625 -5.21875 -4.78125 -4.96875 -4.90625 C -5.28125 -5.125 -5.507812 -5.378906 -5.65625 -5.671875 C -5.800781 -5.960938 -5.875 -6.285156 -5.875 -6.640625 C -5.875 -7.410156 -5.597656 -7.9375 -5.046875 -8.21875 C -4.742188 -8.375 -4.335938 -8.453125 -3.828125 -8.453125 L 0 -8.453125 L 0 -7.4375 L -4 -7.4375 C -4.382812 -7.4375 -4.644531 -7.34375 -4.78125 -7.15625 C -4.925781 -6.96875 -5 -6.734375 -5 -6.453125 C -5 -6.078125 -4.867188 -5.75 -4.609375 -5.46875 C -4.359375 -5.195312 -3.9375 -5.0625 -3.34375 -5.0625 L 0 -5.0625 L 0 -4.078125 L -3.75 -4.078125 C -4.144531 -4.078125 -4.429688 -4.03125 -4.609375 -3.9375 C -4.878906 -3.789062 -5.015625 -3.519531 -5.015625 -3.125 C -5.015625 -2.757812 -4.867188 -2.425781 -4.578125 -2.125 C -4.296875 -1.820312 -3.785156 -1.671875 -3.046875 -1.671875 L 0 -1.671875 L 0 -0.703125 Z M -5.75 -0.703125 "/>
</g>
<g id="glyph-2-10">
<path d="M -7.890625 -1.46875 L -1.171875 -3.734375 L -7.890625 -5.96875 L -7.890625 -7.171875 L 0 -4.28125 L 0 -3.15625 L -7.890625 -0.28125 Z M -7.890625 -1.46875 "/>
</g>
<g id="glyph-2-11">
<path d="M 2.25 -0.375 C 1.132812 -0.945312 0.320312 -1.316406 -0.1875 -1.484375 C -0.957031 -1.734375 -1.859375 -1.859375 -2.890625 -1.859375 C -3.921875 -1.859375 -4.867188 -1.710938 -5.734375 -1.421875 C -6.265625 -1.242188 -7.023438 -0.890625 -8.015625 -0.359375 L -8.015625 -1.015625 C -7.140625 -1.566406 -6.597656 -1.898438 -6.390625 -2.015625 C -6.179688 -2.128906 -5.894531 -2.253906 -5.53125 -2.390625 C -5.082031 -2.566406 -4.640625 -2.691406 -4.203125 -2.765625 C -3.773438 -2.835938 -3.359375 -2.875 -2.953125 -2.875 C -1.890625 -2.875 -0.941406 -2.707031 -0.109375 -2.375 C 0.417969 -2.15625 1.207031 -1.710938 2.25 -1.046875 Z M 2.25 -0.375 "/>
</g>
</g>
<clipPath id="clip-0">
<path clip-rule="nonzero" d="M 44.152344 5.480469 L 390.523438 5.480469 L 390.523438 182.851562 L 44.152344 182.851562 Z M 44.152344 5.480469 "/>
</clipPath>
<clipPath id="clip-1">
<path clip-rule="nonzero" d="M 44.152344 160 L 390.523438 160 L 390.523438 161 L 44.152344 161 Z M 44.152344 160 "/>
</clipPath>
<clipPath id="clip-2">
<path clip-rule="nonzero" d="M 44.152344 119 L 390.523438 119 L 390.523438 120 L 44.152344 120 Z M 44.152344 119 "/>
</clipPath>
<clipPath id="clip-3">
<path clip-rule="nonzero" d="M 44.152344 78 L 390.523438 78 L 390.523438 80 L 44.152344 80 Z M 44.152344 78 "/>
</clipPath>
<clipPath id="clip-4">
<path clip-rule="nonzero" d="M 44.152344 37 L 390.523438 37 L 390.523438 39 L 44.152344 39 Z M 44.152344 37 "/>
</clipPath>
<clipPath id="clip-5">
<path clip-rule="nonzero" d="M 97 5.480469 L 99 5.480469 L 99 182.851562 L 97 182.851562 Z M 97 5.480469 "/>
</clipPath>
<clipPath id="clip-6">
<path clip-rule="nonzero" d="M 175 5.480469 L 176 5.480469 L 176 182.851562 L 175 182.851562 Z M 175 5.480469 "/>
</clipPath>
<clipPath id="clip-7">
<path clip-rule="nonzero" d="M 252 5.480469 L 253 5.480469 L 253 182.851562 L 252 182.851562 Z M 252 5.480469 "/>
</clipPath>
<clipPath id="clip-8">
<path clip-rule="nonzero" d="M 329 5.480469 L 331 5.480469 L 331 182.851562 L 329 182.851562 Z M 329 5.480469 "/>
</clipPath>
<clipPath id="clip-9">
<path clip-rule="nonzero" d="M 44.152344 180 L 390.523438 180 L 390.523438 182 L 44.152344 182 Z M 44.152344 180 "/>
</clipPath>
<clipPath id="clip-10">
<path clip-rule="nonzero" d="M 44.152344 139 L 390.523438 139 L 390.523438 141 L 44.152344 141 Z M 44.152344 139 "/>
</clipPath>
<clipPath id="clip-11">
<path clip-rule="nonzero" d="M 44.152344 98 L 390.523438 98 L 390.523438 100 L 44.152344 100 Z M 44.152344 98 "/>
</clipPath>
<clipPath id="clip-12">
<path clip-rule="nonzero" d="M 44.152344 57 L 390.523438 57 L 390.523438 59 L 44.152344 59 Z M 44.152344 57 "/>
</clipPath>
<clipPath id="clip-13">
<path clip-rule="nonzero" d="M 44.152344 16 L 390.523438 16 L 390.523438 18 L 44.152344 18 Z M 44.152344 16 "/>
</clipPath>
<clipPath id="clip-14">
<path clip-rule="nonzero" d="M 59 5.480469 L 61 5.480469 L 61 182.851562 L 59 182.851562 Z M 59 5.480469 "/>
</clipPath>
<clipPath id="clip-15">
<path clip-rule="nonzero" d="M 136 5.480469 L 138 5.480469 L 138 182.851562 L 136 182.851562 Z M 136 5.480469 "/>
</clipPath>
<clipPath id="clip-16">
<path clip-rule="nonzero" d="M 213 5.480469 L 215 5.480469 L 215 182.851562 L 213 182.851562 Z M 213 5.480469 "/>
</clipPath>
<clipPath id="clip-17">
<path clip-rule="nonzero" d="M 290 5.480469 L 292 5.480469 L 292 182.851562 L 290 182.851562 Z M 290 5.480469 "/>
</clipPath>
<clipPath id="clip-18">
<path clip-rule="nonzero" d="M 368 5.480469 L 370 5.480469 L 370 182.851562 L 368 182.851562 Z M 368 5.480469 "/>
</clipPath>
</defs>
<rect x="-39.6" y="-21.6" width="475.2" height="259.2" fill="rgb(100%, 100%, 100%)" fill-opacity="1"/>
<rect x="-39.6" y="-21.6" width="475.2" height="259.2" fill="rgb(100%, 100%, 100%)" fill-opacity="1"/>
<path fill="none" stroke-width="1.066978" stroke-linecap="round" stroke-linejoin="round" stroke="rgb(100%, 100%, 100%)" stroke-opacity="1" stroke-miterlimit="10" d="M 0 216 L 396 216 L 396 0 L 0 0 Z M 0 216 "/>
<g clip-path="url(#clip-0)">
<path fill-rule="nonzero" fill="rgb(92.156863%, 92.156863%, 92.156863%)" fill-opacity="1" d="M 44.152344 182.847656 L 390.523438 182.847656 L 390.523438 5.476562 L 44.152344 5.476562 Z M 44.152344 182.847656 "/>
</g>
<g clip-path="url(#clip-1)">
<path fill="none" stroke-width="0.533489" stroke-linecap="butt" stroke-linejoin="round" stroke="rgb(100%, 100%, 100%)" stroke-opacity="1" stroke-miterlimit="10" d="M 44.152344 160.519531 L 390.519531 160.519531 "/>
</g>
<g clip-path="url(#clip-2)">
<path fill="none" stroke-width="0.533489" stroke-linecap="butt" stroke-linejoin="round" stroke="rgb(100%, 100%, 100%)" stroke-opacity="1" stroke-miterlimit="10" d="M 44.152344 119.636719 L 390.519531 119.636719 "/>
</g>
<g clip-path="url(#clip-3)">
<path fill="none" stroke-width="0.533489" stroke-linecap="butt" stroke-linejoin="round" stroke="rgb(100%, 100%, 100%)" stroke-opacity="1" stroke-miterlimit="10" d="M 44.152344 78.75 L 390.519531 78.75 "/>
</g>
<g clip-path="url(#clip-4)">
<path fill="none" stroke-width="0.533489" stroke-linecap="butt" stroke-linejoin="round" stroke="rgb(100%, 100%, 100%)" stroke-opacity="1" stroke-miterlimit="10" d="M 44.152344 37.867188 L 390.519531 37.867188 "/>
</g>
<g clip-path="url(#clip-5)">
<path fill="none" stroke-width="0.533489" stroke-linecap="butt" stroke-linejoin="round" stroke="rgb(100%, 100%, 100%)" stroke-opacity="1" stroke-miterlimit="10" d="M 98.210938 182.847656 L 98.210938 5.480469 "/>
</g>
<g clip-path="url(#clip-6)">
<path fill="none" stroke-width="0.533489" stroke-linecap="butt" stroke-linejoin="round" stroke="rgb(100%, 100%, 100%)" stroke-opacity="1" stroke-miterlimit="10" d="M 175.464844 182.847656 L 175.464844 5.480469 "/>
</g>
<g clip-path="url(#clip-7)">
<path fill="none" stroke-width="0.533489" stroke-linecap="butt" stroke-linejoin="round" stroke="rgb(100%, 100%, 100%)" stroke-opacity="1" stroke-miterlimit="10" d="M 252.71875 182.847656 L 252.71875 5.480469 "/>
</g>
<g clip-path="url(#clip-8)">
<path fill="none" stroke-width="0.533489" stroke-linecap="butt" stroke-linejoin="round" stroke="rgb(100%, 100%, 100%)" stroke-opacity="1" stroke-miterlimit="10" d="M 329.96875 182.847656 L 329.96875 5.480469 "/>
</g>
<g clip-path="url(#clip-9)">
<path fill="none" stroke-width="1.066978" stroke-linecap="butt" stroke-linejoin="round" stroke="rgb(100%, 100%, 100%)" stroke-opacity="1" stroke-miterlimit="10" d="M 44.152344 180.960938 L 390.519531 180.960938 "/>
</g>
<g clip-path="url(#clip-10)">
<path fill="none" stroke-width="1.066978" stroke-linecap="butt" stroke-linejoin="round" stroke="rgb(100%, 100%, 100%)" stroke-opacity="1" stroke-miterlimit="10" d="M 44.152344 140.078125 L 390.519531 140.078125 "/>
</g>
<g clip-path="url(#clip-11)">
<path fill="none" stroke-width="1.066978" stroke-linecap="butt" stroke-linejoin="round" stroke="rgb(100%, 100%, 100%)" stroke-opacity="1" stroke-miterlimit="10" d="M 44.152344 99.191406 L 390.519531 99.191406 "/>
</g>
<g clip-path="url(#clip-12)">
<path fill="none" stroke-width="1.066978" stroke-linecap="butt" stroke-linejoin="round" stroke="rgb(100%, 100%, 100%)" stroke-opacity="1" stroke-miterlimit="10" d="M 44.152344 58.308594 L 390.519531 58.308594 "/>
</g>
<g clip-path="url(#clip-13)">
<path fill="none" stroke-width="1.066978" stroke-linecap="butt" stroke-linejoin="round" stroke="rgb(100%, 100%, 100%)" stroke-opacity="1" stroke-miterlimit="10" d="M 44.152344 17.425781 L 390.519531 17.425781 "/>
</g>
<g clip-path="url(#clip-14)">
<path fill="none" stroke-width="1.066978" stroke-linecap="butt" stroke-linejoin="round" stroke="rgb(100%, 100%, 100%)" stroke-opacity="1" stroke-miterlimit="10" d="M 59.585938 182.847656 L 59.585938 5.480469 "/>
</g>
<g clip-path="url(#clip-15)">
<path fill="none" stroke-width="1.066978" stroke-linecap="butt" stroke-linejoin="round" stroke="rgb(100%, 100%, 100%)" stroke-opacity="1" stroke-miterlimit="10" d="M 136.839844 182.847656 L 136.839844 5.480469 "/>
</g>
<g clip-path="url(#clip-16)">
<path fill="none" stroke-width="1.066978" stroke-linecap="butt" stroke-linejoin="round" stroke="rgb(100%, 100%, 100%)" stroke-opacity="1" stroke-miterlimit="10" d="M 214.089844 182.847656 L 214.089844 5.480469 "/>
</g>
<g clip-path="url(#clip-17)">
<path fill="none" stroke-width="1.066978" stroke-linecap="butt" stroke-linejoin="round" stroke="rgb(100%, 100%, 100%)" stroke-opacity="1" stroke-miterlimit="10" d="M 291.34375 182.847656 L 291.34375 5.480469 "/>
</g>
<g clip-path="url(#clip-18)">
<path fill="none" stroke-width="1.066978" stroke-linecap="butt" stroke-linejoin="round" stroke="rgb(100%, 100%, 100%)" stroke-opacity="1" stroke-miterlimit="10" d="M 368.597656 182.847656 L 368.597656 5.480469 "/>
</g>
<path fill="none" stroke-width="1.066978" stroke-linecap="butt" stroke-linejoin="round" stroke="rgb(0%, 0%, 0%)" stroke-opacity="1" stroke-miterlimit="10" d="M 59.894531 106.796875 L 60.203125 117.34375 L 60.511719 122.007812 L 60.820312 123.070312 L 61.128906 125.6875 L 61.441406 133.78125 L 61.75 141.140625 L 62.058594 141.628906 L 62.367188 138.441406 L 62.675781 131.695312 L 62.984375 126.832031 L 63.292969 128.34375 L 63.601562 136.191406 L 63.910156 146.617188 L 64.222656 151.320312 L 64.53125 146.046875 L 64.839844 132.882812 L 65.148438 112.683594 L 65.457031 77.605469 L 65.765625 22.742188 L 66.074219 13.542969 L 66.691406 13.542969 L 67.003906 20.125 L 67.3125 52.136719 L 67.621094 85.539062 L 67.929688 112.929688 L 68.238281 138.277344 L 68.546875 161.582031 L 68.855469 173.804688 L 69.164062 174.785156 L 69.472656 167.101562 L 69.78125 152.261719 L 70.09375 130.917969 L 70.402344 104.671875 L 70.710938 76.910156 L 71.019531 59.535156 L 71.328125 60.558594 L 71.636719 72.699219 L 71.945312 84.71875 L 72.253906 94.898438 L 72.5625 104.710938 L 72.875 110.066406 L 73.183594 112.890625 L 73.492188 115.957031 L 73.800781 115.382812 L 74.109375 111.132812 L 74.417969 104.507812 L 74.726562 95.839844 L 75.035156 84.925781 L 75.34375 75.359375 L 75.65625 67.753906 L 75.964844 62.644531 L 76.273438 64.113281 L 76.582031 69.632812 L 76.890625 74.214844 L 77.199219 77.523438 L 77.507812 80.714844 L 77.816406 85.046875 L 78.125 90.527344 L 78.433594 95.757812 L 78.746094 99.109375 L 79.054688 94.941406 L 79.363281 85.660156 L 79.671875 72.78125 L 79.980469 61.742188 L 80.289062 55.855469 L 80.597656 63.542969 L 80.90625 81.203125 L 81.214844 88.808594 L 81.527344 87.171875 L 81.835938 79.324219 L 82.144531 75.152344 L 82.453125 76.054688 L 82.761719 84.476562 L 83.070312 93.304688 L 83.378906 97.964844 L 83.6875 97.597656 L 83.996094 90.976562 L 84.304688 79.324219 L 84.617188 71.066406 L 84.925781 79.28125 L 85.234375 94.738281 L 85.542969 106.550781 L 85.851562 111.171875 L 86.160156 108.390625 L 86.46875 98.621094 L 86.777344 85.171875 L 87.085938 81.941406 L 87.398438 91.792969 L 87.707031 104.261719 L 88.015625 112.480469 L 88.324219 114.15625 L 88.632812 109.742188 L 88.941406 105.082031 L 89.25 103.976562 L 89.558594 108.351562 L 89.867188 113.664062 L 90.179688 114.769531 L 90.488281 110.355469 L 90.796875 101.15625 L 91.105469 91.464844 L 91.414062 86.765625 L 91.722656 91.058594 L 92.03125 101.195312 L 92.339844 111.988281 L 92.648438 120.085938 L 92.957031 125.929688 L 93.269531 127.199219 L 93.578125 123.152344 L 93.886719 119.308594 L 94.195312 121.105469 L 94.503906 119.714844 L 94.8125 116.9375 L 95.121094 120.410156 L 95.429688 128.425781 L 95.738281 135.335938 L 96.050781 142.367188 L 96.359375 142.285156 L 96.667969 131.941406 L 96.976562 114.320312 L 97.285156 90.976562 L 97.59375 55.898438 L 97.902344 14.890625 L 98.210938 13.542969 L 98.519531 13.582031 L 98.832031 34.066406 L 99.140625 60.722656 L 99.449219 89.175781 L 99.757812 111.375 L 100.066406 131.082031 L 100.375 148.949219 L 100.683594 157.328125 L 100.992188 157.941406 L 101.300781 153.773438 L 101.609375 142.816406 L 101.921875 121.148438 L 102.230469 94.695312 L 102.539062 72.617188 L 102.847656 58.308594 L 103.15625 56.46875 L 103.464844 68 L 103.773438 83.984375 L 104.082031 96.660156 L 104.390625 107.289062 L 104.703125 115.792969 L 105.011719 120.984375 L 105.320312 124.171875 L 105.628906 125.605469 L 105.9375 124.089844 L 106.246094 118.328125 L 106.554688 108.308594 L 106.863281 96.414062 L 107.171875 84.476562 L 107.480469 72.824219 L 107.792969 66.894531 L 108.101562 68.449219 L 108.410156 73.640625 L 108.71875 78.996094 L 109.027344 84.597656 L 109.335938 89.996094 L 109.644531 95.472656 L 109.953125 99.96875 L 110.261719 102.667969 L 110.574219 106.226562 L 110.882812 107.371094 L 111.191406 103.242188 L 111.5 96.414062 L 111.808594 85.578125 L 112.117188 71.71875 L 112.425781 59.820312 L 112.734375 61.292969 L 113.042969 73.148438 L 113.355469 87.089844 L 113.664062 95.675781 L 113.972656 92.488281 L 114.28125 85.496094 L 114.589844 82.308594 L 114.898438 85.089844 L 115.207031 88.929688 L 115.515625 94.285156 L 115.824219 98.128906 L 116.132812 95.59375 L 116.445312 88.929688 L 116.753906 78.996094 L 117.0625 74.539062 L 117.371094 81 L 117.679688 93.550781 L 117.988281 102.503906 L 118.296875 103.566406 L 118.605469 100.335938 L 118.914062 92.078125 L 119.226562 80.425781 L 119.535156 78.792969 L 119.84375 88.359375 L 120.152344 102.382812 L 120.460938 113.050781 L 120.769531 116.609375 L 121.078125 113.09375 L 121.386719 106.019531 L 121.695312 102.382812 L 122.007812 102.015625 L 122.316406 103.855469 L 122.625 104.179688 L 122.933594 100.949219 L 123.242188 94.613281 L 123.550781 88.726562 L 123.859375 90.484375 L 124.167969 96.699219 L 124.476562 105.53125 L 124.785156 112.359375 L 125.097656 118.328125 L 125.40625 123.191406 L 125.714844 125.808594 L 126.023438 122.375 L 126.332031 116.117188 L 126.640625 111.703125 L 126.949219 110.476562 L 127.257812 113.953125 L 127.566406 123.355469 L 127.878906 133.125 L 128.1875 140.691406 L 128.496094 143.304688 L 128.804688 133.414062 L 129.113281 112.890625 L 129.421875 85.496094 L 129.730469 50.867188 L 130.039062 13.542969 L 130.347656 13.542969 L 130.65625 17.753906 L 130.96875 41.261719 L 131.277344 70.042969 L 131.585938 95.800781 L 131.894531 112.644531 L 132.203125 128.875 L 132.511719 147.84375 L 132.820312 159.539062 L 133.128906 163.136719 L 133.4375 158.472656 L 133.75 146.945312 L 134.058594 125.074219 L 134.367188 94.410156 L 134.675781 70.859375 L 134.984375 62.644531 L 135.292969 62.929688 L 135.601562 72.496094 L 135.910156 83.699219 L 136.21875 91.914062 L 136.53125 99.234375 L 136.839844 105.9375 L 137.148438 112.152344 L 137.457031 118 L 137.765625 120.574219 L 138.074219 118.652344 L 138.382812 112.234375 L 138.691406 102.667969 L 139 89.75 L 139.308594 78.300781 L 139.621094 71.597656 L 139.929688 69.675781 L 140.238281 71.105469 L 140.546875 73.84375 L 140.855469 76.707031 L 141.164062 78.179688 L 141.472656 81.777344 L 141.78125 87.703125 L 142.089844 92.609375 L 142.402344 95.757812 L 142.710938 96.496094 L 143.019531 95.308594 L 143.328125 93.265625 L 143.636719 90.8125 L 143.945312 90.320312 L 144.253906 88.277344 L 144.5625 83.863281 L 144.871094 74.90625 L 145.183594 67.671875 L 145.492188 62.726562 L 145.800781 61.660156 L 146.109375 73.84375 L 146.417969 89.542969 L 146.726562 98.539062 L 147.035156 99.804688 L 147.34375 97.230469 L 147.652344 93.714844 L 147.960938 91.589844 L 148.273438 93.429688 L 148.582031 94.898438 L 148.890625 95.964844 L 149.199219 94.777344 L 149.507812 90.566406 L 149.816406 84.925781 L 150.125 81.613281 L 150.433594 85.621094 L 150.742188 93.835938 L 151.054688 101.402344 L 151.363281 105 L 151.671875 105.449219 L 151.980469 102.75 L 152.289062 98.046875 L 152.597656 97.230469 L 152.90625 101.5625 L 153.214844 107.082031 L 153.523438 109.988281 L 153.832031 109.375 L 154.144531 106.386719 L 154.453125 103.324219 L 154.761719 100.132812 L 155.070312 99.644531 L 155.378906 98.089844 L 155.6875 92.773438 L 155.996094 88.359375 L 156.304688 87.785156 L 156.613281 91.261719 L 156.925781 97.273438 L 157.234375 106.511719 L 157.542969 113.746094 L 157.851562 118.859375 L 158.160156 123.601562 L 158.46875 125.5625 L 158.777344 120.738281 L 159.085938 115.710938 L 159.394531 114.648438 L 159.707031 116.855469 L 160.015625 119.144531 L 160.324219 123.4375 L 160.632812 126.707031 L 160.941406 131.980469 L 161.25 134.558594 L 161.558594 127.402344 L 161.867188 112.152344 L 162.175781 92.121094 L 162.484375 65.179688 L 162.796875 28.054688 L 163.105469 15.914062 L 163.414062 26.953125 L 163.722656 45.347656 L 164.03125 67.710938 L 164.339844 90.527344 L 164.648438 109.496094 L 164.957031 124.214844 L 165.265625 138.359375 L 165.578125 147.4375 L 165.886719 148.089844 L 166.195312 142.324219 L 166.503906 130.796875 L 166.8125 111.417969 L 167.121094 87.582031 L 167.429688 70.65625 L 167.738281 63.746094 L 168.046875 64.277344 L 168.359375 72.496094 L 168.667969 82.921875 L 168.976562 90.851562 L 169.285156 99.683594 L 169.59375 108.597656 L 169.902344 115.875 L 170.210938 121.925781 L 170.519531 126.542969 L 170.828125 125.152344 L 171.136719 118.652344 L 171.449219 109.210938 L 171.757812 97.886719 L 172.066406 86.558594 L 172.375 78.914062 L 172.683594 76.746094 L 172.992188 79.40625 L 173.300781 82.347656 L 173.609375 84.71875 L 173.917969 86.316406 L 174.230469 89.09375 L 174.539062 93.917969 L 174.847656 98.867188 L 175.15625 103.445312 L 175.464844 103.324219 L 175.773438 101.359375 L 176.082031 98.128906 L 176.390625 95.472656 L 176.699219 95.144531 L 177.007812 94.449219 L 177.320312 91.261719 L 177.628906 86.722656 L 177.9375 80.796875 L 178.246094 73.601562 L 178.554688 66.8125 L 178.863281 71.148438 L 179.171875 81.734375 L 179.480469 94.53125 L 179.789062 100.257812 L 180.101562 98.210938 L 180.410156 93.714844 L 180.71875 92.160156 L 181.027344 93.386719 L 181.335938 93.753906 L 181.644531 95.1875 L 181.953125 95.882812 L 182.261719 93.714844 L 182.570312 88.644531 L 182.882812 84.066406 L 183.191406 85.945312 L 183.5 91.058594 L 183.808594 96.125 L 184.117188 99.601562 L 184.425781 100.992188 L 184.734375 101.359375 L 185.042969 100.09375 L 185.351562 97.886719 L 185.660156 98.703125 L 185.972656 100.949219 L 186.28125 103.324219 L 186.589844 103.484375 L 186.898438 103.199219 L 187.207031 102.789062 L 187.515625 101.726562 L 187.824219 100.910156 L 188.132812 99.765625 L 188.441406 96.578125 L 188.753906 89.09375 L 189.0625 84.394531 L 189.371094 85.785156 L 189.679688 92.121094 L 189.988281 101.851562 L 190.296875 108.921875 L 190.605469 112.070312 L 190.914062 113.050781 L 191.222656 113.257812 L 191.535156 113.09375 L 191.84375 112.847656 L 192.152344 114.117188 L 192.460938 115.875 L 192.769531 116.28125 L 193.078125 116.527344 L 193.386719 116.9375 L 193.695312 122.496094 L 194.003906 130.878906 L 194.3125 134.191406 L 194.625 126.832031 L 194.933594 109.25 L 195.242188 85.171875 L 195.550781 52.300781 L 195.859375 22.578125 L 196.167969 19.019531 L 196.476562 33.492188 L 196.785156 53.28125 L 197.09375 75.808594 L 197.40625 94.449219 L 197.714844 105.570312 L 198.023438 118.613281 L 198.332031 137.253906 L 198.640625 149.519531 L 198.949219 150.421875 L 199.257812 143.878906 L 199.566406 131 L 199.875 109.617188 L 200.183594 83.617188 L 200.496094 67.386719 L 200.804688 61.660156 L 201.113281 65.628906 L 201.421875 75.316406 L 201.730469 82.0625 L 202.039062 86.765625 L 202.347656 92.855469 L 202.65625 101.933594 L 202.964844 111.582031 L 203.277344 120.78125 L 203.585938 127.238281 L 203.894531 125.605469 L 204.203125 118 L 204.511719 106.921875 L 204.820312 95.636719 L 205.128906 85.457031 L 205.4375 80.304688 L 205.746094 80.425781 L 206.058594 81.695312 L 206.367188 83.289062 L 206.675781 82.839844 L 206.984375 81.328125 L 207.292969 83.371094 L 207.601562 90.609375 L 207.910156 97.761719 L 208.21875 102.339844 L 208.527344 104.097656 L 208.835938 102.300781 L 209.148438 98.703125 L 209.457031 95.023438 L 209.765625 93.917969 L 210.074219 95.59375 L 210.382812 95.308594 L 210.691406 89.75 L 211 79.363281 L 211.308594 70.410156 L 211.617188 65.097656 L 211.929688 67.632812 L 212.238281 77.320312 L 212.546875 90.484375 L 212.855469 102.054688 L 213.164062 107.164062 L 213.472656 103.609375 L 213.78125 94.980469 L 214.089844 92.203125 L 214.398438 96.945312 L 214.710938 97.230469 L 215.019531 95.308594 L 215.328125 94.777344 L 215.636719 91.34375 L 215.945312 82.0625 L 216.253906 76.542969 L 216.5625 80.632812 L 216.871094 92.40625 L 217.179688 103.773438 L 217.488281 108.964844 L 217.800781 108.800781 L 218.109375 105.160156 L 218.417969 101.769531 L 218.726562 97.148438 L 219.035156 96.660156 L 219.34375 101.195312 L 219.652344 106.0625 L 219.960938 106.796875 L 220.269531 104.34375 L 220.582031 102.300781 L 220.890625 100.949219 L 221.199219 100.664062 L 221.507812 98.089844 L 221.816406 93.019531 L 222.125 89.625 L 222.433594 92.367188 L 222.742188 99.03125 L 223.050781 102.054688 L 223.359375 104.015625 L 223.671875 107.777344 L 223.980469 111.375 L 224.289062 113.460938 L 224.597656 116.488281 L 224.90625 119.960938 L 225.214844 121.3125 L 225.523438 118.613281 L 225.832031 115.546875 L 226.140625 113.09375 L 226.453125 113.953125 L 226.761719 120.941406 L 227.070312 131.898438 L 227.378906 135.578125 L 227.6875 124.460938 L 227.996094 103.363281 L 228.304688 76.789062 L 228.613281 42.609375 L 228.921875 14.15625 L 229.234375 16.117188 L 229.542969 36.601562 L 229.851562 57.207031 L 230.160156 73.683594 L 230.46875 86.234375 L 230.777344 98.660156 L 231.085938 118.328125 L 231.394531 142.734375 L 231.703125 156.183594 L 232.011719 155.570312 L 232.324219 145.800781 L 232.632812 127.976562 L 232.941406 101.6875 L 233.25 77.28125 L 233.558594 70.984375 L 233.867188 73.355469 L 234.175781 76.132812 L 234.484375 79.363281 L 234.792969 77.238281 L 235.105469 75.316406 L 235.414062 84.066406 L 235.722656 100.214844 L 236.03125 116.894531 L 236.339844 127.976562 L 236.648438 132.023438 L 236.957031 127.15625 L 237.265625 116.773438 L 237.574219 104.917969 L 237.886719 94.980469 L 238.195312 91.179688 L 238.503906 89.585938 L 238.8125 86.4375 L 239.121094 81.652344 L 239.429688 76.09375 L 239.738281 73.070312 L 240.046875 74.582031 L 240.355469 82.0625 L 240.664062 92.160156 L 240.976562 99.273438 L 241.285156 102.871094 L 241.59375 101.726562 L 241.902344 99.03125 L 242.210938 96.046875 L 242.519531 94.207031 L 242.828125 93.511719 L 243.136719 94.125 L 243.445312 94.695312 L 243.757812 96.207031 L 244.066406 96.207031 L 244.375 89.871094 L 244.683594 74.949219 L 244.992188 66.730469 L 245.300781 72.414062 L 245.609375 80.304688 L 245.917969 88.890625 L 246.226562 103.242188 L 246.535156 107.082031 L 246.847656 100.910156 L 247.15625 89.300781 L 247.464844 85.824219 L 247.773438 92.773438 L 248.082031 100.910156 L 248.390625 102.953125 L 248.699219 100.625 L 249.007812 94.164062 L 249.316406 84.515625 L 249.628906 73.394531 L 249.9375 68.777344 L 250.246094 82.0625 L 250.554688 98.253906 L 250.863281 106.265625 L 251.171875 107.082031 L 251.480469 106.675781 L 251.789062 106.59375 L 252.097656 106.308594 L 252.410156 108.066406 L 252.71875 109.863281 L 253.027344 110.679688 L 253.335938 109.167969 L 253.644531 104.304688 L 253.953125 98.089844 L 254.261719 95.390625 L 254.570312 96.820312 L 254.878906 98.335938 L 255.1875 97.640625 L 255.5 94.246094 L 255.808594 90.933594 L 256.117188 96.414062 L 256.425781 103.976562 L 256.734375 108.839844 L 257.042969 111.417969 L 257.351562 113.339844 L 257.660156 113.421875 L 257.96875 113.09375 L 258.28125 114.320312 L 258.589844 117.671875 L 258.898438 118.449219 L 259.207031 114.933594 L 259.515625 112.316406 L 259.824219 112.359375 L 260.132812 116.8125 L 260.441406 124.746094 L 260.75 129.324219 L 261.0625 125.152344 L 261.371094 113.625 L 261.679688 95.472656 L 261.988281 72.945312 L 262.296875 45.878906 L 262.605469 30.875 L 262.914062 31.40625 L 263.222656 41.628906 L 263.53125 55.691406 L 263.839844 66.566406 L 264.152344 77.769531 L 264.460938 96.453125 L 264.769531 120.535156 L 265.078125 137.132812 L 265.386719 143.429688 L 265.695312 141.835938 L 266.003906 131.898438 L 266.3125 114.769531 L 266.621094 95.675781 L 266.933594 82.839844 L 267.242188 79.855469 L 267.550781 79.894531 L 267.859375 81.695312 L 268.167969 79.734375 L 268.476562 74.785156 L 268.785156 78.261719 L 269.09375 89.382812 L 269.402344 103.28125 L 269.714844 114.890625 L 270.023438 121.554688 L 270.332031 121.84375 L 270.640625 115.464844 L 270.949219 108.71875 L 271.257812 104.140625 L 271.566406 100.175781 L 271.875 96.453125 L 272.183594 93.796875 L 272.492188 90.035156 L 272.804688 83.410156 L 273.113281 78.75 L 273.421875 79.976562 L 273.730469 85.703125 L 274.039062 93.714844 L 274.347656 100.09375 L 274.65625 104.058594 L 274.964844 104.261719 L 275.273438 102.75 L 275.585938 101.03125 L 275.894531 101.195312 L 276.203125 100.707031 L 276.511719 99.398438 L 276.820312 98.171875 L 277.128906 95.800781 L 277.4375 87.253906 L 277.746094 75.519531 L 278.054688 72.292969 L 278.363281 77.074219 L 278.675781 84.066406 L 278.984375 92.324219 L 279.292969 97.433594 L 279.601562 94.820312 L 279.910156 91.34375 L 280.21875 90.769531 L 280.527344 93.429688 L 280.835938 98.417969 L 281.144531 102.789062 L 281.457031 101.972656 L 281.765625 95.964844 L 282.074219 91.835938 L 282.382812 88.929688 L 282.691406 87.992188 L 283 90.730469 L 283.308594 96.046875 L 283.617188 99.03125 L 283.925781 98.171875 L 284.238281 97.640625 L 284.546875 97.351562 L 284.855469 100.625 L 285.164062 103.484375 L 285.472656 103.9375 L 285.78125 103.773438 L 286.089844 102.546875 L 286.398438 101.195312 L 287.015625 95.390625 L 287.328125 93.429688 L 287.636719 92.980469 L 287.945312 92.078125 L 288.253906 86.722656 L 288.5625 82.105469 L 288.871094 86.394531 L 289.179688 96.371094 L 289.488281 104.304688 L 289.796875 109.617188 L 290.109375 111.417969 L 290.417969 113.378906 L 290.726562 115.179688 L 291.035156 118.859375 L 291.34375 119.878906 L 291.652344 120.902344 L 291.960938 119.023438 L 292.269531 115.503906 L 292.578125 113.707031 L 292.890625 114.769531 L 293.199219 118.410156 L 293.507812 125.972656 L 293.816406 130.753906 L 294.125 129.652344 L 294.433594 121.230469 L 294.742188 107.820312 L 295.050781 87.910156 L 295.359375 65.257812 L 295.667969 44.492188 L 295.980469 36.3125 L 296.289062 38.847656 L 296.597656 44.613281 L 296.90625 56.429688 L 297.214844 66.566406 L 297.523438 80.917969 L 297.832031 100.664062 L 298.140625 122.046875 L 298.449219 135.660156 L 298.761719 137.910156 L 299.070312 131.980469 L 299.378906 120.617188 L 299.6875 107.535156 L 299.996094 94.613281 L 300.304688 82.960938 L 300.613281 77.851562 L 300.921875 76.214844 L 301.230469 71.597656 L 301.539062 63.828125 L 301.851562 62.804688 L 302.160156 73.761719 L 302.46875 89.382812 L 302.777344 106.183594 L 303.085938 120.042969 L 303.394531 125.929688 L 303.703125 125.074219 L 304.011719 119.878906 L 304.320312 114.605469 L 304.632812 109.863281 L 304.941406 105.980469 L 305.25 102.054688 L 305.558594 96.207031 L 305.867188 90.15625 L 306.175781 85.210938 L 306.484375 83.207031 L 306.792969 84.597656 L 307.101562 89.460938 L 307.414062 94.164062 L 307.722656 97.191406 L 308.03125 99.070312 L 308.339844 99.722656 L 308.648438 98.785156 L 308.957031 98.785156 L 309.265625 100.828125 L 309.574219 106.019531 L 309.882812 107.613281 L 310.191406 103.28125 L 310.503906 94.613281 L 310.8125 85.25 L 311.121094 74.703125 L 311.429688 70.574219 L 311.738281 81.816406 L 312.046875 88.523438 L 312.355469 86.722656 L 312.664062 76.953125 L 312.972656 74.867188 L 313.285156 80.46875 L 313.59375 91.671875 L 313.902344 104.507812 L 314.210938 109.742188 L 314.519531 108.554688 L 314.828125 102.628906 L 315.136719 94.164062 L 315.445312 85.171875 L 315.753906 86.601562 L 316.066406 92.855469 L 316.375 97.597656 L 316.683594 97.722656 L 316.992188 94.574219 L 317.300781 89.625 L 317.609375 85.496094 L 317.917969 88.359375 L 318.226562 95.59375 L 318.535156 103.527344 L 318.84375 106.714844 L 319.15625 106.878906 L 319.464844 104.179688 L 319.773438 102.832031 L 320.082031 102.382812 L 320.390625 103.566406 L 320.699219 103.976562 L 321.007812 97.84375 L 321.316406 87.5 L 321.625 85.128906 L 321.9375 94.125 L 322.246094 103.855469 L 322.554688 109.90625 L 322.863281 112.972656 L 323.171875 115.015625 L 323.480469 114.730469 L 323.789062 114.933594 L 324.097656 116.855469 L 324.40625 121.148438 L 324.714844 124.050781 L 325.027344 122.988281 L 325.335938 121.023438 L 325.644531 119.265625 L 325.953125 122.988281 L 326.261719 127.6875 L 326.570312 127.074219 L 326.878906 121.679688 L 327.1875 111.703125 L 327.496094 96.617188 L 327.808594 74.457031 L 328.117188 52.464844 L 328.425781 39.75 L 328.734375 37.132812 L 329.042969 39.542969 L 329.351562 44.898438 L 329.660156 51.851562 L 329.96875 60.355469 L 330.277344 81.652344 L 330.589844 108.839844 L 330.898438 130.796875 L 331.207031 141.179688 L 331.515625 140.363281 L 331.824219 130.550781 L 332.132812 116.40625 L 332.441406 104.875 L 332.75 94.246094 L 333.058594 86.765625 L 333.367188 80.714844 L 333.679688 73.191406 L 333.988281 66.8125 L 334.296875 62.804688 L 334.605469 65.710938 L 334.914062 76.421875 L 335.222656 93.835938 L 335.53125 111.089844 L 335.839844 120.492188 L 336.148438 124.171875 L 336.460938 122.414062 L 336.769531 117.796875 L 337.078125 113.585938 L 337.386719 109.453125 L 337.695312 104.671875 L 338.003906 99.398438 L 338.3125 94.449219 L 338.621094 88.074219 L 338.929688 82.265625 L 339.242188 80.835938 L 339.550781 83.863281 L 339.859375 88.847656 L 340.167969 93.632812 L 340.476562 97.886719 L 340.785156 100.257812 L 341.09375 101.113281 L 341.402344 102.832031 L 341.710938 104.46875 L 342.019531 105.695312 L 342.332031 106.921875 L 342.640625 109.535156 L 342.949219 108.023438 L 343.257812 100.011719 L 343.566406 87.828125 L 343.875 73.4375 L 344.183594 68.734375 L 344.492188 75.359375 L 344.800781 86.765625 L 345.113281 93.019531 L 345.421875 91.589844 L 345.730469 83.167969 L 346.039062 80.796875 L 346.347656 86.929688 L 346.65625 98.417969 L 346.964844 105.242188 L 347.273438 107 L 347.582031 102.015625 L 347.890625 93.019531 L 348.203125 84.394531 L 348.511719 81.734375 L 348.820312 88.605469 L 349.128906 96.945312 L 349.4375 103.117188 L 349.746094 100.378906 L 350.054688 95.390625 L 350.363281 90.894531 L 350.671875 91.300781 L 350.984375 96.78125 L 351.292969 101.644531 L 351.601562 103.527344 L 351.910156 102.996094 L 352.21875 100.910156 L 352.527344 98.007812 L 352.835938 95.800781 L 353.144531 98.089844 L 353.453125 101.277344 L 353.765625 101.933594 L 354.074219 98.621094 L 354.382812 94.082031 L 354.691406 98.5 L 355 104.957031 L 355.308594 108.1875 L 355.617188 107.65625 L 355.925781 107.289062 L 356.234375 108.269531 L 356.542969 109.90625 L 356.855469 113.828125 L 357.164062 118 L 357.472656 121.433594 L 357.78125 123.355469 L 358.089844 122.824219 L 358.398438 123.519531 L 358.707031 128.140625 L 359.015625 131.941406 L 359.324219 130.101562 L 359.636719 123.234375 L 359.945312 112.726562 L 360.253906 97.515625 L 360.5625 77.359375 L 360.871094 58.882812 L 361.179688 44.898438 L 361.488281 37.375 L 361.796875 38.441406 L 362.105469 43.878906 L 362.417969 48.824219 L 362.726562 54.589844 L 363.035156 74.988281 L 363.34375 101.933594 L 363.652344 127.15625 L 363.960938 139.628906 L 364.269531 139.421875 L 364.578125 130.835938 L 364.886719 118.328125 L 365.195312 109.128906 L 365.507812 102.097656 L 365.816406 95.71875 L 366.125 85.171875 L 366.433594 73.027344 L 366.742188 62.5625 L 367.050781 55.160156 L 367.359375 60.394531 L 367.667969 74.90625 L 367.976562 92.652344 L 368.289062 106.511719 L 368.597656 114.238281 L 368.90625 116.691406 L 369.214844 116.730469 L 369.523438 117.304688 L 369.832031 117.671875 L 370.140625 116.28125 L 370.449219 113.09375 L 370.757812 106.839844 L 371.066406 98.457031 L 371.378906 91.34375 L 371.6875 87.460938 L 371.996094 85.660156 L 372.304688 87.296875 L 372.613281 89.707031 L 372.921875 90.648438 L 373.230469 91.957031 L 373.539062 94.328125 L 373.847656 97.394531 L 374.160156 101.441406 L 374.46875 103.855469 L 374.777344 104.140625 "/>
<g fill="rgb(30.196078%, 30.196078%, 30.196078%)" fill-opacity="1">
<use xlink:href="#glyph-0-1" x="34.21875" y="184.237305"/>
</g>
<g fill="rgb(30.196078%, 30.196078%, 30.196078%)" fill-opacity="1">
<use xlink:href="#glyph-0-2" x="19.21875" y="143.354492"/>
<use xlink:href="#glyph-0-1" x="24.21875" y="143.354492"/>
<use xlink:href="#glyph-0-1" x="29.21875" y="143.354492"/>
<use xlink:href="#glyph-0-1" x="34.21875" y="143.354492"/>
</g>
<g fill="rgb(30.196078%, 30.196078%, 30.196078%)" fill-opacity="1">
<use xlink:href="#glyph-0-3" x="19.21875" y="102.467773"/>
<use xlink:href="#glyph-0-1" x="24.21875" y="102.467773"/>
<use xlink:href="#glyph-0-1" x="29.21875" y="102.467773"/>
<use xlink:href="#glyph-0-1" x="34.21875" y="102.467773"/>
</g>
<g fill="rgb(30.196078%, 30.196078%, 30.196078%)" fill-opacity="1">
<use xlink:href="#glyph-0-4" x="19.21875" y="61.584961"/>
<use xlink:href="#glyph-0-1" x="24.21875" y="61.584961"/>
<use xlink:href="#glyph-0-1" x="29.21875" y="61.584961"/>
<use xlink:href="#glyph-0-1" x="34.21875" y="61.584961"/>
</g>
<g fill="rgb(30.196078%, 30.196078%, 30.196078%)" fill-opacity="1">
<use xlink:href="#glyph-0-5" x="19.21875" y="20.702148"/>
<use xlink:href="#glyph-0-1" x="24.21875" y="20.702148"/>
<use xlink:href="#glyph-0-1" x="29.21875" y="20.702148"/>
<use xlink:href="#glyph-0-1" x="34.21875" y="20.702148"/>
</g>
<path fill="none" stroke-width="1.066978" stroke-linecap="butt" stroke-linejoin="round" stroke="rgb(20%, 20%, 20%)" stroke-opacity="1" stroke-miterlimit="10" d="M 41.410156 180.960938 L 44.152344 180.960938 "/>
<path fill="none" stroke-width="1.066978" stroke-linecap="butt" stroke-linejoin="round" stroke="rgb(20%, 20%, 20%)" stroke-opacity="1" stroke-miterlimit="10" d="M 41.410156 140.078125 L 44.152344 140.078125 "/>
<path fill="none" stroke-width="1.066978" stroke-linecap="butt" stroke-linejoin="round" stroke="rgb(20%, 20%, 20%)" stroke-opacity="1" stroke-miterlimit="10" d="M 41.410156 99.191406 L 44.152344 99.191406 "/>
<path fill="none" stroke-width="1.066978" stroke-linecap="butt" stroke-linejoin="round" stroke="rgb(20%, 20%, 20%)" stroke-opacity="1" stroke-miterlimit="10" d="M 41.410156 58.308594 L 44.152344 58.308594 "/>
<path fill="none" stroke-width="1.066978" stroke-linecap="butt" stroke-linejoin="round" stroke="rgb(20%, 20%, 20%)" stroke-opacity="1" stroke-miterlimit="10" d="M 41.410156 17.425781 L 44.152344 17.425781 "/>
<path fill="none" stroke-width="1.066978" stroke-linecap="butt" stroke-linejoin="round" stroke="rgb(20%, 20%, 20%)" stroke-opacity="1" stroke-miterlimit="10" d="M 59.585938 185.589844 L 59.585938 182.847656 "/>
<path fill="none" stroke-width="1.066978" stroke-linecap="butt" stroke-linejoin="round" stroke="rgb(20%, 20%, 20%)" stroke-opacity="1" stroke-miterlimit="10" d="M 136.839844 185.589844 L 136.839844 182.847656 "/>
<path fill="none" stroke-width="1.066978" stroke-linecap="butt" stroke-linejoin="round" stroke="rgb(20%, 20%, 20%)" stroke-opacity="1" stroke-miterlimit="10" d="M 214.089844 185.589844 L 214.089844 182.847656 "/>
<path fill="none" stroke-width="1.066978" stroke-linecap="butt" stroke-linejoin="round" stroke="rgb(20%, 20%, 20%)" stroke-opacity="1" stroke-miterlimit="10" d="M 291.34375 185.589844 L 291.34375 182.847656 "/>
<path fill="none" stroke-width="1.066978" stroke-linecap="butt" stroke-linejoin="round" stroke="rgb(20%, 20%, 20%)" stroke-opacity="1" stroke-miterlimit="10" d="M 368.597656 185.589844 L 368.597656 182.847656 "/>
<g fill="rgb(30.196078%, 30.196078%, 30.196078%)" fill-opacity="1">
<use xlink:href="#glyph-0-1" x="48.585938" y="194.557617"/>
<use xlink:href="#glyph-0-6" x="53.585938" y="194.557617"/>
<use xlink:href="#glyph-0-1" x="55.585938" y="194.557617"/>
<use xlink:href="#glyph-0-1" x="60.585938" y="194.557617"/>
<use xlink:href="#glyph-0-1" x="65.585938" y="194.557617"/>
</g>
<g fill="rgb(30.196078%, 30.196078%, 30.196078%)" fill-opacity="1">
<use xlink:href="#glyph-0-1" x="125.839844" y="194.557617"/>
<use xlink:href="#glyph-0-6" x="130.839844" y="194.557617"/>
<use xlink:href="#glyph-0-1" x="132.839844" y="194.557617"/>
<use xlink:href="#glyph-0-3" x="137.839844" y="194.557617"/>
<use xlink:href="#glyph-0-7" x="142.839844" y="194.557617"/>
</g>
<g fill="rgb(30.196078%, 30.196078%, 30.196078%)" fill-opacity="1">
<use xlink:href="#glyph-0-1" x="203.089844" y="194.557617"/>
<use xlink:href="#glyph-0-6" x="208.089844" y="194.557617"/>
<use xlink:href="#glyph-0-1" x="210.089844" y="194.557617"/>
<use xlink:href="#glyph-0-7" x="215.089844" y="194.557617"/>
<use xlink:href="#glyph-0-1" x="220.089844" y="194.557617"/>
</g>
<g fill="rgb(30.196078%, 30.196078%, 30.196078%)" fill-opacity="1">
<use xlink:href="#glyph-0-1" x="280.34375" y="194.557617"/>
<use xlink:href="#glyph-0-6" x="285.34375" y="194.557617"/>
<use xlink:href="#glyph-0-1" x="287.34375" y="194.557617"/>
<use xlink:href="#glyph-0-8" x="292.34375" y="194.557617"/>
<use xlink:href="#glyph-0-7" x="297.34375" y="194.557617"/>
</g>
<g fill="rgb(30.196078%, 30.196078%, 30.196078%)" fill-opacity="1">
<use xlink:href="#glyph-0-1" x="357.597656" y="194.557617"/>
<use xlink:href="#glyph-0-6" x="362.597656" y="194.557617"/>
<use xlink:href="#glyph-0-2" x="364.597656" y="194.557617"/>
<use xlink:href="#glyph-0-1" x="369.597656" y="194.557617"/>
<use xlink:href="#glyph-0-1" x="374.597656" y="194.557617"/>
</g>
<g fill="rgb(0%, 0%, 0%)" fill-opacity="1">
<use xlink:href="#glyph-1-1" x="193.835938" y="206.990234"/>
<use xlink:href="#glyph-1-2" x="196.835938" y="206.990234"/>
<use xlink:href="#glyph-1-3" x="202.835938" y="206.990234"/>
<use xlink:href="#glyph-1-4" x="211.835938" y="206.990234"/>
<use xlink:href="#glyph-1-5" x="217.835938" y="206.990234"/>
<use xlink:href="#glyph-1-6" x="223.835938" y="206.990234"/>
<use xlink:href="#glyph-1-7" x="226.835938" y="206.990234"/>
<use xlink:href="#glyph-1-8" x="230.835938" y="206.990234"/>
<use xlink:href="#glyph-1-9" x="236.835938" y="206.990234"/>
</g>
<g fill="rgb(0%, 0%, 0%)" fill-opacity="1">
<use xlink:href="#glyph-2-1" x="12.951172" y="128.164062"/>
<use xlink:href="#glyph-2-2" x="12.951172" y="125.164062"/>
<use xlink:href="#glyph-2-3" x="12.951172" y="119.164062"/>
<use xlink:href="#glyph-2-4" x="12.951172" y="113.164062"/>
<use xlink:href="#glyph-2-5" x="12.951172" y="107.164062"/>
<use xlink:href="#glyph-2-6" x="12.951172" y="105.164062"/>
<use xlink:href="#glyph-2-3" x="12.951172" y="99.164062"/>
<use xlink:href="#glyph-2-2" x="12.951172" y="93.164062"/>
<use xlink:href="#glyph-2-7" x="12.951172" y="87.164062"/>
<use xlink:href="#glyph-2-8" x="12.951172" y="84.164062"/>
<use xlink:href="#glyph-2-9" x="12.951172" y="80.164062"/>
<use xlink:href="#glyph-2-10" x="12.951172" y="71.164062"/>
<use xlink:href="#glyph-2-11" x="12.951172" y="64.164062"/>
</g>
</svg>
